<svg version="1.2" xmlns="http://www.w3.org/2000/svg" viewBox="0 0 123 43" width="250" height="87">
	<style>
		.s0 { fill: #fcfcfc } 
	</style>
	<g id="&lt;Group&gt;">
		<g id="&lt;Group&gt;">
			<path id="&lt;Path&gt;" class="s0" d="m30.01 42.55h-29.34v-13.78l17.49-28.45h37.83z"/>
			<path id="&lt;Path&gt;" class="s0" d="m47.22 42.47l-12.7 0.06 25.96-42.18 12.67-0.02z"/>
			<path id="&lt;Compound Path&gt;" fill-rule="evenodd" class="s0" d="m93.41 31.86l-20.29-0.02-5.98 10.61-5.66-0.01 23.94-42.23 6.28-0.01 9.13 42.25-5.1 0.06zm-0.67-4.08l-4.81-22.5-12.68 22.51z"/>
			<path id="&lt;Path&gt;" class="s0" d="m56.93 42.49h-6.42l25.94-42.15 6.4 0.03z"/>
		</g>
		<path id="&lt;Path&gt;" class="s0" d="m106.44 42.58l5.39-17.82c-0.68-0.19-1.15-0.18-1.7-0.23l-6.33-0.61 16.52-23.63-5.74 18.49 5.92 0.72 1.83 0.28-4.04 5.82z"/>
	</g>
</svg>