<?xml version="1.0" encoding="UTF-8" standalone="no"?>
<!-- Created with Inkscape (http://www.inkscape.org/) -->

<svg
   width="149.81615"
   height="149.82358"
   viewBox="0 0 149.81615 149.82358"
   version="1.1"
   id="svg1"
   xml:space="preserve"
   inkscape:export-filename="bmw.svg"
   inkscape:export-xdpi="80"
   inkscape:export-ydpi="80"
   xmlns:inkscape="http://www.inkscape.org/namespaces/inkscape"
   xmlns:sodipodi="http://sodipodi.sourceforge.net/DTD/sodipodi-0.dtd"
   xmlns="http://www.w3.org/2000/svg"
   xmlns:svg="http://www.w3.org/2000/svg"><sodipodi:namedview
     id="namedview1"
     pagecolor="#ffffff"
     bordercolor="#000000"
     borderopacity="0.25"
     inkscape:showpageshadow="2"
     inkscape:pageopacity="0.0"
     inkscape:pagecheckerboard="0"
     inkscape:deskcolor="#d1d1d1"
     inkscape:document-units="px"><inkscape:page
       x="0"
       y="0"
       width="149.81615"
       height="149.82358"
       id="page2"
       margin="0"
       bleed="0" /></sodipodi:namedview><defs
     id="defs1" /><g
     inkscape:label="Camada 1"
     inkscape:groupmode="layer"
     id="layer1"
     transform="translate(-16.198414,-16.961439)"><path
       style="fill:#000000;stroke-width:0.070687"
       d="m 87.950603,166.77289 c -0.311019,-0.0143 -1.265296,-0.0743 -2.120617,-0.13338 -0.855309,-0.0591 -2.270819,-0.1875 -3.145564,-0.28527 -0.874747,-0.0978 -2.11531,-0.25691 -2.756797,-0.3536 -0.641475,-0.0967 -1.691181,-0.27189 -2.332669,-0.38931 -0.641475,-0.11742 -1.69118,-0.32512 -2.332668,-0.46154 -0.641475,-0.13641 -1.897936,-0.43481 -2.792133,-0.66309 -0.894182,-0.22831 -2.322078,-0.62581 -3.173097,-0.88334 -0.851006,-0.25755 -2.186998,-0.69347 -2.968848,-0.96874 -0.78185,-0.27525 -2.153164,-0.7939 -3.047359,-1.15254 -0.894183,-0.35866 -2.118835,-0.87039 -2.721449,-1.13719 -0.602601,-0.26681 -1.938593,-0.90617 -2.968849,-1.42076 -1.030268,-0.5146 -2.588914,-1.34467 -3.463659,-1.84458 -0.874759,-0.49992 -2.163017,-1.26874 -2.86283,-1.70848 -0.699799,-0.43976 -1.829022,-1.18314 -2.509384,-1.65194 -0.680362,-0.46881 -1.666448,-1.16941 -2.191287,-1.55689 -0.524853,-0.38748 -1.558646,-1.18855 -2.297333,-1.78018 -0.738673,-0.59163 -1.772481,-1.44932 -2.29732,-1.906 -0.524853,-0.45666 -1.55504,-1.39138 -2.289304,-2.07713 -0.734262,-0.68574 -1.940108,-1.883 -2.679668,-2.66054 -0.739555,-0.77756 -1.73767,-1.86244 -2.218022,-2.41083 -0.480354,-0.54841 -1.20906,-1.40725 -1.619333,-1.90855 -0.410282,-0.50131 -1.089646,-1.35678 -1.509704,-1.90107 -0.420064,-0.54429 -1.105805,-1.46677 -1.523869,-2.04992 -0.418071,-0.58317 -1.14874,-1.64879 -1.623715,-2.36803 -0.474973,-0.71923 -1.198455,-1.86437 -1.607746,-2.54473 -0.409285,-0.68036 -1.037607,-1.76186 -1.396273,-2.40334 -0.358673,-0.6415 -1.075636,-2.0252 -1.593263,-3.07489 -0.517634,-1.0497 -1.122848,-2.32206 -1.344924,-2.82748 -0.222078,-0.50542 -0.593418,-1.38015 -0.8252,-1.94388 -0.231783,-0.56373 -0.669689,-1.69296 -0.973127,-2.5094 -0.303437,-0.81643 -0.716489,-1.99337 -0.917884,-2.61542 -0.201401,-0.62204 -0.541144,-1.73537 -0.754979,-2.47404 -0.213843,-0.73867 -0.543159,-1.96584 -0.731815,-2.72705 -0.188663,-0.76119 -0.470874,-2.00184 -0.627135,-2.75699 -0.156267,-0.75515 -0.381193,-1.93838 -0.499834,-2.6294 -0.118646,-0.69102 -0.294518,-1.83767 -0.390836,-2.5481 -0.09631,-0.71044 -0.238595,-1.94218 -0.316182,-2.737207 -0.07759,-0.795041 -0.176859,-1.922655 -0.220606,-2.505819 -0.04376,-0.583177 -0.09,-2.523526 -0.102794,-4.311904 -0.01274,-1.788379 0.0051,-3.760551 0.03989,-4.382589 0.03472,-0.622051 0.112819,-1.735376 0.173522,-2.474049 0.0607,-0.738672 0.189568,-1.995134 0.286345,-2.792132 0.09678,-0.796998 0.273348,-2.06937 0.392371,-2.827481 0.119021,-0.758123 0.342492,-2.014584 0.496611,-2.792131 0.154111,-0.777562 0.466583,-2.17716 0.694378,-3.11023 0.227789,-0.933069 0.578149,-2.269048 0.778568,-2.968847 0.200426,-0.699812 0.629418,-2.067601 0.95332,-3.039546 0.323901,-0.971943 0.803314,-2.323834 1.065351,-3.004196 0.262037,-0.680362 0.760267,-1.905014 1.10717,-2.721448 0.346904,-0.816435 1.068723,-2.375081 1.60405,-3.463661 0.535325,-1.08858 1.301241,-2.567708 1.702029,-3.286945 0.400788,-0.719236 1.015679,-1.78484 1.366414,-2.368016 0.350734,-0.583164 1.034009,-1.664665 1.518384,-2.403352 0.484376,-0.738673 1.258935,-1.873098 1.721248,-2.520926 0.46232,-0.647842 1.194652,-1.633928 1.627404,-2.191301 0.43276,-0.557373 1.115887,-1.413794 1.51806,-1.90315 0.40218,-0.489357 1.006483,-1.205068 1.342903,-1.590457 0.336414,-0.385402 1.115695,-1.245469 1.731725,-1.911287 0.616036,-0.665818 1.700603,-1.775724 2.410148,-2.466488 0.709544,-0.690748 1.735939,-1.654006 2.280859,-2.140575 0.544933,-0.486568 1.452024,-1.271863 2.015751,-1.745121 0.563726,-0.473257 1.541863,-1.261703 2.17362,-1.752105 0.631756,-0.490403 1.633754,-1.239129 2.226636,-1.663821 0.592895,-0.424705 1.714169,-1.19303 2.491716,-1.707387 0.77756,-0.514369 1.986314,-1.277051 2.686114,-1.694866 0.699798,-0.417802 1.749504,-1.023459 2.332668,-1.345912 0.583164,-0.322453 1.744195,-0.929048 2.580068,-1.348003 0.83587,-0.418941 1.949196,-0.958325 2.474048,-1.198606 0.524853,-0.240282 1.447319,-0.644625 2.049921,-0.898512 0.6026,-0.253901 1.509169,-0.620201 2.014571,-0.814008 0.505416,-0.193808 1.486784,-0.554747 2.180832,-0.802065 0.694035,-0.247333 1.934598,-0.655013 2.756797,-0.905979 0.822185,-0.250951 1.908405,-0.568928 2.41382,-0.706595 0.505417,-0.137667 1.443782,-0.377198 2.085269,-0.53228 0.641475,-0.15508 1.866127,-0.423538 2.721449,-0.596568 0.855309,-0.173029 2.064049,-0.396247 2.6861,-0.496032 0.622051,-0.09987 1.719464,-0.259745 2.4387,-0.355442 0.719236,-0.09571 2.039317,-0.239411 2.933513,-0.319344 0.894183,-0.07989 2.214263,-0.177319 2.9335,-0.216407 0.719249,-0.03915 2.46874,-0.07104 3.887789,-0.07104 1.419035,0 3.168544,0.03231 3.887784,0.07172 0.71924,0.03941 1.896169,0.120777 2.61542,0.180738 0.71924,0.05992 2.055216,0.202828 2.968847,0.31748 0.91364,0.114617 2.4,0.335228 3.30305,0.490214 0.90303,0.154986 2.23903,0.410027 2.96884,0.566756 0.72983,0.156743 2.05857,0.472654 2.95275,0.702051 0.8942,0.22937 2.30971,0.624277 3.14558,0.877534 0.83587,0.253271 2.06052,0.650724 2.72145,0.883218 0.66092,0.232506 1.5395,0.549343 1.95241,0.704102 0.4129,0.154758 1.35126,0.528003 2.08526,0.82941 0.73399,0.301434 2.08205,0.894612 2.99568,1.318177 0.91361,0.42358 2.31323,1.114209 3.11022,1.534733 0.79699,0.420509 1.97394,1.065697 2.61542,1.43374 0.64148,0.368056 1.69119,0.996474 2.33267,1.396502 0.64148,0.400027 1.70709,1.094679 2.368,1.543686 0.66093,0.449009 1.61521,1.119263 2.12062,1.489465 0.50542,0.370188 1.34835,1.00756 1.87321,1.416381 0.52485,0.408794 1.40496,1.118498 1.95581,1.577092 0.55085,0.458593 1.4574,1.237533 2.01458,1.730951 0.55717,0.493432 1.90547,1.789586 2.99622,2.880333 1.09076,1.090752 2.39039,2.442964 2.88807,3.004895 0.49769,0.561943 1.27703,1.468499 1.73189,2.014585 0.45484,0.546072 1.16153,1.422278 1.5704,1.947131 0.40889,0.524853 1.10283,1.447319 1.54209,2.049921 0.43927,0.602613 1.25196,1.779544 1.80599,2.615416 0.55401,0.835885 1.34026,2.076435 1.74721,2.756797 0.40695,0.680362 0.98921,1.682346 1.29389,2.226636 0.3047,0.54429 0.92398,1.721233 1.37622,2.615416 0.45223,0.894196 1.08002,2.198365 1.39508,2.898165 0.31506,0.699812 0.81849,1.876743 1.11872,2.615429 0.30023,0.738673 0.76431,1.941837 1.03127,2.673701 0.26698,0.731876 0.67838,1.940107 0.91426,2.68496 0.23586,0.744853 0.56793,1.847843 0.73791,2.451087 0.16998,0.603243 0.45185,1.66937 0.62636,2.369169 0.17451,0.699799 0.44502,1.876743 0.60112,2.615416 0.1561,0.738673 0.41226,2.122374 0.56922,3.07488 0.157,0.952507 0.36486,2.383916 0.46195,3.180912 0.097,0.796998 0.22377,2.005752 0.28151,2.686114 0.0577,0.680363 0.14185,1.936811 0.18696,2.792132 0.0519,0.983232 0.0677,2.724868 0.0431,4.736021 -0.0231,1.885912 -0.0837,3.727695 -0.14871,4.523969 -0.0605,0.738673 -0.15842,1.804289 -0.21772,2.368017 -0.0592,0.563728 -0.17367,1.518008 -0.25413,2.120598 -0.0804,0.60261 -0.23816,1.65231 -0.3504,2.33267 -0.11221,0.68037 -0.33398,1.87321 -0.49272,2.65077 -0.15877,0.77757 -0.41545,1.93859 -0.57042,2.58006 -0.15497,0.6415 -0.39439,1.57986 -0.53205,2.08528 -0.13767,0.50542 -0.4546,1.58823 -0.7043,2.40627 -0.24968,0.81805 -0.65686,2.05861 -0.90483,2.7568 -0.248,0.69819 -0.60996,1.68297 -0.80439,2.18838 -0.19442,0.5054 -0.56123,1.41197 -0.81513,2.01458 -0.2539,0.6026 -0.65372,1.51467 -0.88849,2.02681 -0.23476,0.51215 -0.78245,1.64137 -1.21706,2.50939 -0.43462,0.86801 -1.10908,2.15005 -1.49882,2.84897 -0.38975,0.69892 -0.97864,1.71682 -1.30865,2.26199 -0.33001,0.54517 -1.0293,1.6433 -1.55398,2.44031 -0.52467,0.79699 -1.30146,1.93417 -1.72621,2.52705 -0.42475,0.5929 -1.1735,1.59489 -1.6639,2.22665 -0.4904,0.63177 -1.27886,1.60989 -1.7521,2.17361 -0.47325,0.56373 -1.25857,1.47082 -1.74512,2.01575 -0.48657,0.54492 -1.44983,1.57131 -2.1406,2.28086 -0.69074,0.70955 -1.80066,1.79505 -2.46647,2.41221 -0.66581,0.61719 -1.6877,1.53175 -2.27087,2.03236 -0.58317,0.50061 -1.45792,1.22895 -1.94389,1.61852 -0.48598,0.38956 -1.21758,0.96418 -1.6258,1.27694 -0.40822,0.31275 -1.20345,0.8985 -1.76718,1.30166 -0.56372,0.40318 -1.66114,1.15106 -2.4387,1.66199 -0.77755,0.51092 -1.89087,1.21595 -2.47405,1.56672 -0.58315,0.35078 -1.58514,0.92999 -2.22663,1.28717 -0.64149,0.35717 -1.85023,0.99422 -2.6861,1.41567 -0.83588,0.42144 -2.06053,1.01175 -2.72145,1.3118 -0.66092,0.30003 -1.81617,0.7988 -2.56719,1.10839 -0.75102,0.30958 -1.95977,0.77933 -2.68611,1.04387 -0.72633,0.26455 -1.86633,0.65833 -2.53332,0.87507 -0.667,0.21674 -1.78033,0.55746 -2.47406,0.75716 -0.69371,0.19968 -2.02471,0.54911 -2.95778,0.7765 -0.93307,0.22737 -2.35002,0.54174 -3.1488,0.69857 -0.79877,0.15686 -1.9439,0.3645 -2.54473,0.46145 -0.60083,0.0969 -1.71269,0.25561 -2.47082,0.35263 -0.758115,0.097 -1.903237,0.22526 -2.544733,0.28499 -0.641484,0.0598 -1.611656,0.14218 -2.155945,0.18322 -0.54429,0.041 -2.452831,0.0845 -4.241223,0.0967 -1.788378,0.0121 -3.506073,0.0104 -3.817092,-0.003 z m 7.068702,-2.99154 c 0.505401,-0.0377 1.205201,-0.0874 1.555102,-0.11036 0.349912,-0.0229 1.240555,-0.10304 1.979245,-0.17803 0.738667,-0.075 1.915608,-0.21721 2.615408,-0.31618 0.69981,-0.099 1.63817,-0.24453 2.08528,-0.32347 0.44709,-0.0789 0.97194,-0.17172 1.16632,-0.20614 0.1944,-0.0344 0.51248,-0.094 0.70688,-0.13231 0.19438,-0.0384 0.81467,-0.17043 1.37839,-0.29358 0.56373,-0.12319 1.63299,-0.37891 2.37615,-0.56836 0.74316,-0.18947 1.77697,-0.47021 2.29734,-0.62389 0.52035,-0.15367 1.24831,-0.3749 1.61765,-0.4916 0.36934,-0.11676 0.87829,-0.27927 1.13099,-0.36127 0.25271,-0.0821 0.72985,-0.24562 1.0603,-0.3636 0.33047,-0.11797 0.66447,-0.24239 0.74222,-0.27647 0.0778,-0.0341 0.37026,-0.14197 0.65002,-0.23976 0.27976,-0.0978 1.02728,-0.3892 1.66114,-0.6476 0.63387,-0.25839 1.27973,-0.52633 1.43526,-0.59542 0.15551,-0.0691 0.50547,-0.22249 0.7777,-0.34086 0.27223,-0.11837 0.81297,-0.36311 1.20168,-0.54382 0.38869,-0.18073 1.19975,-0.57529 1.80236,-0.87681 0.60261,-0.30155 1.44555,-0.73377 1.87321,-0.96051 0.42764,-0.22674 0.97961,-0.53429 1.22657,-0.68344 0.24696,-0.14913 0.46205,-0.27116 0.478,-0.27116 0.016,0 0.59321,-0.33727 1.28282,-0.7495 0.6896,-0.41224 1.98543,-1.24052 2.87962,-1.84062 0.89419,-0.60012 1.76893,-1.19358 1.94389,-1.31883 0.17496,-0.12519 0.76342,-0.56032 1.30771,-0.96684 0.54429,-0.40651 1.40314,-1.07203 1.90855,-1.4789 0.50541,-0.4069 1.23702,-1.01232 1.6258,-1.34541 0.38877,-0.33309 0.74196,-0.63743 0.78483,-0.67631 0.0429,-0.0388 0.32739,-0.29334 0.63225,-0.56549 0.30485,-0.27214 0.83986,-0.76518 1.18892,-1.09565 0.34907,-0.33046 1.06655,-1.03188 1.59441,-1.55871 0.52786,-0.52684 1.21501,-1.22664 1.52701,-1.55513 0.31199,-0.32847 0.82234,-0.8835 1.13411,-1.2334 0.31177,-0.3499 0.85328,-0.97019 1.20338,-1.3784 0.35007,-0.40822 0.90694,-1.07621 1.23748,-1.48443 0.33052,-0.40822 0.99783,-1.26707 1.48289,-1.90854 0.48507,-0.64148 1.027,-1.37309 1.20431,-1.62581 0.1773,-0.2527 0.63463,-0.91878 1.01628,-1.48019 0.38165,-0.56143 0.96352,-1.45208 1.29303,-1.97924 0.32952,-0.52717 0.65435,-1.05393 0.72182,-1.17056 0.0675,-0.11663 0.34631,-0.59377 0.61959,-1.0603 0.27329,-0.46655 0.74727,-1.30948 1.0533,-1.87321 0.30602,-0.56374 0.80741,-1.53391 1.11418,-2.15594 0.30678,-0.62206 0.69289,-1.41999 0.85801,-1.77321 0.16512,-0.35321 0.49575,-1.10073 0.73469,-1.66114 0.23896,-0.56041 0.47735,-1.11437 0.52976,-1.23099 0.0524,-0.11662 0.2449,-0.59379 0.42775,-1.06031 0.18285,-0.46654 0.38985,-1.0073 0.46003,-1.20169 0.0701,-0.19439 0.29111,-0.81466 0.49096,-1.3784 0.19986,-0.56373 0.50844,-1.48619 0.68575,-2.04992 0.1773,-0.56373 0.35072,-1.12833 0.38536,-1.25469 0.0345,-0.12641 0.0928,-0.33311 0.12936,-0.45947 0.0365,-0.1264 0.14928,-0.53191 0.25073,-0.90126 0.10143,-0.36933 0.27997,-1.05322 0.39677,-1.51977 0.11676,-0.46653 0.25842,-1.04704 0.31478,-1.29003 0.0563,-0.24299 0.14899,-0.6406 0.20591,-0.88359 0.0569,-0.24298 0.21743,-1.04617 0.35672,-1.78483 0.1393,-0.73869 0.31608,-1.75658 0.39286,-2.26199 0.0769,-0.50542 0.16909,-1.1416 0.20513,-1.41374 0.036,-0.27215 0.11301,-0.86062 0.17116,-1.30771 0.0582,-0.447092 0.15515,-1.44909 0.21561,-2.226637 0.0605,-0.77756 0.14287,-1.827266 0.1831,-2.332669 0.0402,-0.505415 0.0806,-1.873204 0.0895,-3.039544 0.009,-1.166341 -0.006,-2.772695 -0.0309,-3.569693 -0.0262,-0.796997 -0.0648,-1.639933 -0.086,-1.873204 -0.0213,-0.233271 -0.0568,-0.694505 -0.0793,-1.02496 -0.0223,-0.330456 -0.072,-0.934839 -0.11035,-1.343056 -0.0385,-0.408219 -0.11716,-1.140966 -0.17492,-1.628326 -0.0577,-0.487372 -0.12372,-1.028123 -0.14656,-1.201675 -0.0228,-0.173566 -0.13312,-0.904036 -0.24516,-1.623272 -0.11209,-0.719237 -0.33455,-1.9598 -0.49453,-2.756797 -0.15997,-0.796997 -0.32044,-1.591556 -0.35659,-1.765684 -0.0362,-0.174142 -0.2234,-0.937561 -0.41612,-1.696489 -0.19273,-0.75894 -0.45925,-1.761595 -0.59231,-2.228123 -0.13298,-0.466528 -0.3708,-1.261757 -0.52839,-1.767173 -0.15757,-0.505415 -0.41672,-1.300644 -0.57587,-1.767172 -0.15915,-0.466542 -0.34929,-1.007292 -0.42252,-1.201676 -0.0731,-0.194396 -0.23342,-0.62382 -0.35598,-0.954276 -0.12252,-0.330469 -0.38291,-0.998458 -0.57855,-1.484424 -0.19566,-0.485979 -0.41429,-1.013392 -0.48586,-1.172024 -0.0716,-0.158647 -0.19238,-0.444933 -0.26848,-0.636194 -0.0762,-0.191246 -0.256,-0.602212 -0.39977,-0.913231 -0.14377,-0.311032 -0.66977,-1.393351 -1.16889,-2.405174 -0.49913,-1.011837 -1.1679,-2.300095 -1.48615,-2.862829 -0.31824,-0.562721 -0.83356,-1.452561 -1.14516,-1.977414 -0.31157,-0.524853 -0.68924,-1.139424 -0.83922,-1.365724 -0.15,-0.226301 -0.27272,-0.423325 -0.27272,-0.437856 0,-0.01448 -0.37006,-0.576876 -0.82235,-1.249691 -0.4523,-0.672802 -1.14265,-1.66862 -1.53413,-2.21291 -0.39147,-0.54429 -0.91041,-1.244089 -1.15321,-1.555107 -0.24279,-0.311033 -0.56238,-0.718768 -0.71019,-0.9061 -0.14782,-0.187319 -0.69559,-0.855322 -1.2173,-1.484424 -0.52171,-0.629102 -1.36372,-1.605068 -1.87115,-2.168794 -0.50743,-0.563727 -1.60741,-1.710631 -2.44442,-2.548687 -0.837,-0.838057 -1.74641,-1.728714 -2.02092,-1.979237 -0.27452,-0.250522 -0.65623,-0.5987 -0.84824,-0.773727 -0.19203,-0.175013 -0.66724,-0.590117 -1.05602,-0.92245 -0.38877,-0.332333 -0.99314,-0.84122 -1.34306,-1.130859 -0.34988,-0.289651 -0.75786,-0.622063 -0.90659,-0.738685 -0.14873,-0.116623 -0.39296,-0.307495 -0.54272,-0.42413 -0.14978,-0.116622 -0.50523,-0.390188 -0.78989,-0.607909 -0.28467,-0.217707 -0.86749,-0.649705 -1.29514,-0.959986 -0.42766,-0.310282 -1.38193,-0.971422 -2.12061,-1.469183 -0.73867,-0.497776 -2.04284,-1.326207 -2.89815,-1.840979 -0.85533,-0.514773 -2.11179,-1.23795 -2.79215,-1.607065 -0.68036,-0.369115 -1.80959,-0.953995 -2.50938,-1.299745 -0.6998,-0.345738 -1.46323,-0.714385 -1.6965,-0.819197 -0.23325,-0.104822 -0.78992,-0.353525 -1.237,-0.552695 -0.44711,-0.199182 -1.19462,-0.516621 -1.66115,-0.705442 -0.46654,-0.188821 -1.15044,-0.459236 -1.51976,-0.600912 -0.36935,-0.141688 -1.14868,-0.431447 -1.73184,-0.643914 -0.58317,-0.212466 -1.83963,-0.625818 -2.79213,-0.918552 -0.95251,-0.292735 -2.46345,-0.718379 -3.35764,-0.945858 -0.89419,-0.227494 -2.23018,-0.541555 -2.96885,-0.697937 -0.73868,-0.156367 -1.80428,-0.364758 -2.368,-0.463083 -0.56374,-0.09839 -1.56574,-0.257359 -2.22666,-0.353391 -0.66091,-0.09612 -1.837855,-0.242896 -2.615423,-0.326328 -0.777545,-0.08338 -1.811355,-0.177961 -2.297316,-0.210054 -0.485973,-0.03204 -1.898082,-0.09826 -3.138029,-0.147077 -1.798861,-0.07078 -2.727347,-0.07104 -4.594653,-0.0014 -1.287118,0.04799 -2.546971,0.102677 -2.799679,0.121447 -0.252708,0.01877 -1.111556,0.09745 -1.908552,0.174786 -0.796985,0.07735 -1.926221,0.204545 -2.509385,0.282668 -0.583163,0.07815 -1.550537,0.221448 -2.149705,0.318499 -0.59917,0.09705 -1.648874,0.287493 -2.332668,0.423216 -0.683807,0.135725 -1.784022,0.375095 -2.444947,0.531931 -0.660926,0.156836 -1.901476,0.477198 -2.756785,0.711917 -0.855321,0.234719 -2.302628,0.674585 -3.21626,0.97748 -0.913633,0.30291 -2.265524,0.77917 -3.004196,1.058352 -0.738674,0.279196 -1.717508,0.664785 -2.175163,0.856891 -0.457667,0.192104 -1.157466,0.495187 -1.555121,0.673498 -0.39764,0.178311 -0.866139,0.387883 -1.041085,0.46571 -0.174947,0.07774 -1.046408,0.505725 -1.936569,0.950885 -0.890148,0.445162 -1.792708,0.906341 -2.005684,1.024826 -0.212963,0.1185 -0.543701,0.307721 -0.734974,0.420496 -0.191274,0.112739 -0.358498,0.205055 -0.371622,0.205055 -0.0134,0 -0.449089,0.248016 -0.968834,0.551139 -0.519732,0.303136 -1.29488,0.770081 -1.722534,1.037668 -0.427667,0.267574 -1.143365,0.725818 -1.590469,1.018297 -0.447092,0.29248 -1.24232,0.832883 -1.767172,1.200886 -0.524853,0.368015 -1.415497,1.019061 -1.979237,1.446796 -0.563727,0.427721 -1.136288,0.866663 -1.27236,0.975402 -0.136073,0.108717 -0.756353,0.617387 -1.378392,1.130282 -0.622051,0.512909 -1.417278,1.188231 -1.767172,1.500725 -0.349906,0.312491 -1.216234,1.107919 -1.92516,1.767625 -0.708942,0.659719 -1.808701,1.75878 -2.443903,2.442387 -0.6352,0.683592 -1.439762,1.560992 -1.787909,1.949772 -0.348147,0.388781 -1.015667,1.168097 -1.483367,1.731824 -0.467707,0.563726 -1.19487,1.470295 -1.615917,2.014584 -0.421055,0.54429 -1.183385,1.578084 -1.694076,2.297321 -0.510685,0.719249 -1.138951,1.625804 -1.396138,2.014585 -0.257189,0.388779 -0.715685,1.104477 -1.018883,1.590455 -0.303203,0.485966 -0.799759,1.308835 -1.10345,1.828567 -0.303701,0.519746 -0.552179,0.955724 -0.552179,0.968834 0,0.0134 -0.09228,0.180349 -0.205049,0.371622 -0.112785,0.191273 -0.302004,0.522011 -0.420496,0.734987 -0.118485,0.212962 -0.579668,1.115523 -1.024834,2.005684 -0.445165,0.890161 -0.873061,1.76161 -0.950887,1.936555 -0.07781,0.174947 -0.283278,0.63618 -0.456561,1.024961 -0.173288,0.38878 -0.433642,0.993151 -0.578572,1.343057 -0.14493,0.349892 -0.290672,0.699798 -0.323873,0.77756 -0.03321,0.07774 -0.203536,0.507171 -0.378515,0.954263 -0.174985,0.447105 -0.476064,1.242494 -0.669074,1.767547 -0.19301,0.525068 -0.560964,1.61484 -0.817685,2.421731 -0.256713,0.80689 -0.638705,2.095 -0.848865,2.862453 -0.21016,0.767454 -0.495156,1.872508 -0.633328,2.455671 -0.138164,0.583163 -0.346449,1.521542 -0.462851,2.085268 -0.116393,0.563728 -0.262474,1.311234 -0.324608,1.661141 -0.06213,0.349892 -0.19142,1.129222 -0.2873,1.731822 -0.09588,0.602615 -0.236638,1.6046 -0.312796,2.226651 -0.07616,0.622037 -0.153385,1.274128 -0.171615,1.449075 -0.01823,0.174947 -0.04895,0.493043 -0.06828,0.706876 -0.01931,0.213821 -0.05327,0.611435 -0.07547,0.883581 -0.02219,0.272144 -0.05599,0.701568 -0.07514,0.954275 -0.01913,0.252708 -0.07209,1.453379 -0.117668,2.668152 -0.06369,1.698042 -0.0634,2.735791 0.0013,4.488619 0.04629,1.253969 0.101345,2.502602 0.122346,2.774747 0.02102,0.272145 0.08541,1.019665 0.143085,1.66114 0.05768,0.641488 0.169798,1.69119 0.249144,2.33267 0.07934,0.64149 0.220247,1.64347 0.313115,2.22665 0.09287,0.58316 0.203733,1.26554 0.246359,1.51642 0.04262,0.25086 0.201111,1.04608 0.352197,1.76716 0.15108,0.7211 0.38887,1.79639 0.528413,2.38957 0.139544,0.59319 0.445187,1.75423 0.679203,2.58009 0.234017,0.82585 0.568889,1.94688 0.744158,2.49117 0.175261,0.54429 0.445984,1.35542 0.601601,1.80252 0.155618,0.44709 0.490709,1.35365 0.74466,2.01457 0.253943,0.66094 0.522412,1.33654 0.596597,1.50134 0.07419,0.16481 0.134871,0.31496 0.134871,0.33368 0,0.0188 0.07706,0.2025 0.171267,0.40843 0.09419,0.20594 0.234321,0.53292 0.31139,0.72664 0.07706,0.19372 0.257782,0.60669 0.401574,0.91771 0.14379,0.31102 0.623443,1.29711 1.065894,2.19129 0.442452,0.8942 0.934122,1.86437 1.092602,2.15595 0.15848,0.29159 0.418411,0.76873 0.577612,1.06031 0.159201,0.29159 0.546488,0.95957 0.860634,1.48443 0.314147,0.52485 0.603427,1.00787 0.642849,1.07337 0.03941,0.0656 0.164425,0.27226 0.277792,0.45946 0.113365,0.18721 0.510029,0.8016 0.881473,1.36533 0.371447,0.56373 0.943396,1.40667 1.271003,1.87321 0.327605,0.46654 0.963794,1.34128 1.413751,1.94389 0.449952,0.6026 1.232563,1.60223 1.739134,2.22141 0.506562,0.61917 1.268916,1.52217 1.694105,2.0067 0.425189,0.48451 1.2705,1.40932 1.878463,2.05514 0.607976,0.64582 1.659693,1.70321 2.337159,2.34973 0.677466,0.64652 1.677077,1.57057 2.221368,2.05341 0.54429,0.48286 1.514503,1.30576 2.156033,1.8287 0.641528,0.52292 1.723043,1.3665 2.403351,1.87459 0.680322,0.50812 1.491422,1.10006 1.80244,1.31545 0.311033,0.21539 0.819973,0.56373 1.130992,0.77409 0.311033,0.21038 1.042641,0.68689 1.625805,1.05894 0.583164,0.37207 1.293272,0.81674 1.578004,0.98819 0.284745,0.17145 0.618739,0.37068 0.742212,0.44273 0.123458,0.072 0.65394,0.37157 1.178793,0.66559 0.524839,0.29399 1.685886,0.90414 2.580068,1.35589 0.894197,0.45175 1.848459,0.92108 2.120604,1.04293 0.272145,0.12185 0.772453,0.35135 1.111796,0.50998 0.33933,0.15862 0.633929,0.28842 0.654625,0.28842 0.02064,0 0.17248,0.0603 0.337293,0.13409 0.164812,0.0737 0.601836,0.25978 0.971179,0.41342 0.36933,0.15361 1.053231,0.42536 1.51976,0.60385 0.466541,0.17849 1.402695,0.519 2.080349,0.75666 0.677654,0.23766 1.965925,0.65426 2.862816,0.92575 0.896904,0.27148 2.457761,0.69732 3.468593,0.94631 1.010817,0.24898 2.396435,0.56512 3.079129,0.70254 0.682708,0.1374 1.82783,0.34546 2.544734,0.46235 0.716903,0.1169 1.923726,0.29091 2.68185,0.38671 0.758123,0.0959 1.776006,0.20873 2.261984,0.25094 0.485965,0.0422 1.074438,0.0906 1.307708,0.10745 0.233271,0.0169 0.917159,0.065 1.519773,0.10676 0.602601,0.0418 1.445549,0.0826 1.873204,0.0908 0.427654,0.008 1.747735,0.007 2.933499,-0.002 1.185778,-0.009 2.569479,-0.048 3.074902,-0.0857 z m -7.316103,-21.637 c -0.252707,-0.03 -0.904798,-0.0919 -1.449088,-0.13774 -0.544289,-0.0457 -1.546274,-0.16045 -2.226636,-0.25491 -0.680362,-0.0945 -1.586931,-0.23635 -2.014585,-0.31526 -0.427654,-0.0789 -0.904786,-0.17156 -1.060295,-0.20586 -0.155523,-0.0343 -0.425898,-0.0953 -0.600845,-0.13565 -0.174946,-0.0403 -0.620282,-0.1419 -0.989612,-0.22573 -0.369343,-0.0838 -1.180482,-0.29362 -1.80252,-0.46617 -0.622051,-0.17256 -1.576328,-0.45918 -2.120617,-0.63694 -0.54429,-0.17774 -1.514464,-0.52118 -2.155952,-0.76319 -0.641475,-0.24202 -1.548043,-0.60643 -2.014571,-0.80979 -0.466543,-0.20338 -0.991382,-0.43424 -1.166342,-0.51302 -0.174946,-0.0788 -0.731609,-0.34955 -1.237011,-0.6017 -0.505416,-0.25217 -1.189317,-0.604 -1.519772,-0.78185 -0.33047,-0.17786 -1.014357,-0.56218 -1.519773,-0.85406 -0.505416,-0.29188 -1.268834,-0.75297 -1.696489,-1.02461 -0.427654,-0.27165 -1.191072,-0.78151 -1.696488,-1.13303 -0.505402,-0.3515 -1.316542,-0.9403 -1.802521,-1.30845 -0.485964,-0.36816 -1.037801,-0.79875 -1.226287,-0.95687 -0.188485,-0.15812 -0.60201,-0.50621 -0.918941,-0.77352 -0.316917,-0.26732 -1.09563,-0.96635 -1.730483,-1.5534 -0.634866,-0.58707 -1.559129,-1.49758 -2.053928,-2.02337 -0.4948,-0.52579 -1.165054,-1.25817 -1.489451,-1.6275 -0.324396,-0.36933 -0.897668,-1.05324 -1.273942,-1.51976 -0.376273,-0.46655 -0.955335,-1.21405 -1.286783,-1.66116 -0.33146,-0.44709 -0.902037,-1.25822 -1.267936,-1.80251 -0.365898,-0.54429 -0.843459,-1.2759 -1.061234,-1.62581 -0.217774,-0.3499 -0.575455,-0.94376 -0.794852,-1.31969 -0.21941,-0.37592 -0.712761,-1.29089 -1.096354,-2.03326 -0.383606,-0.74234 -0.896649,-1.78666 -1.140121,-2.32067 -0.243458,-0.53402 -0.485925,-1.07433 -0.538794,-1.20068 -0.05281,-0.1264 -0.146206,-0.34288 -0.207385,-0.48114 -0.06126,-0.13827 -0.190765,-0.46432 -0.287963,-0.72455 -0.09718,-0.26021 -0.271743,-0.72761 -0.387896,-1.03863 -0.116085,-0.31102 -0.349947,-0.979 -0.519558,-1.48443 -0.169597,-0.50541 -0.436327,-1.36426 -0.592721,-1.90855 -0.156407,-0.54429 -0.351126,-1.24409 -0.432708,-1.55511 -0.08164,-0.31101 -0.181917,-0.72454 -0.222962,-0.91892 -0.04102,-0.19439 -0.09959,-0.46478 -0.130162,-0.60085 -0.03057,-0.13607 -0.137386,-0.66092 -0.237466,-1.16632 -0.100139,-0.50542 -0.245925,-1.30065 -0.324075,-1.767177 -0.07815,-0.466542 -0.174048,-1.118633 -0.213083,-1.449089 -0.03901,-0.330456 -0.08834,-0.759879 -0.109516,-0.954275 -0.02118,-0.194385 -0.06863,-0.639719 -0.105367,-0.989613 -0.03673,-0.349906 -0.09183,-1.065603 -0.122253,-1.590456 -0.03057,-0.524852 -0.0555,-1.892641 -0.0555,-3.039545 0,-1.14689 0.0252,-2.53059 0.05603,-3.07488 0.03083,-0.54429 0.08538,-1.22819 0.121314,-1.519773 0.03592,-0.291581 0.08164,-0.721005 0.101611,-0.954275 0.01997,-0.233258 0.05174,-0.535443 0.07051,-0.671516 0.0189,-0.136072 0.06998,-0.517788 0.113677,-0.848245 0.0437,-0.330468 0.1248,-0.871219 0.180108,-1.201688 0.05536,-0.330456 0.134209,-0.791689 0.175201,-1.024961 0.04102,-0.233257 0.104161,-0.559303 0.14051,-0.724531 0.03633,-0.165241 0.09678,-0.435616 0.134517,-0.600844 0.03767,-0.165228 0.168485,-0.729839 0.290629,-1.254692 0.122119,-0.524853 0.33098,-1.335979 0.464102,-1.802521 0.133111,-0.466528 0.339586,-1.166328 0.458848,-1.555107 0.119303,-0.388781 0.243298,-0.770497 0.275644,-0.848245 0.03231,-0.07774 0.14496,-0.395844 0.250281,-0.706876 0.105367,-0.311019 0.358138,-0.996435 0.561837,-1.523138 0.203687,-0.526716 0.434143,-1.099276 0.512118,-1.272372 0.07801,-0.173097 0.29303,-0.664612 0.477882,-1.092267 0.184853,-0.427654 0.575832,-1.254692 0.868875,-1.837868 0.293016,-0.583164 0.74555,-1.442012 1.00559,-1.90854 0.260053,-0.466542 0.694102,-1.214049 0.964585,-1.66114 0.270468,-0.447105 0.677519,-1.099182 0.904557,-1.449088 0.227038,-0.349907 0.637131,-0.954277 0.911314,-1.343058 0.274183,-0.388766 0.799383,-1.104476 1.167104,-1.590456 0.367723,-0.485965 0.972414,-1.249383 1.343742,-1.696488 0.37134,-0.447091 0.962118,-1.130604 1.312868,-1.518929 0.350737,-0.388311 1.003513,-1.084115 1.450617,-1.546246 0.447092,-0.462118 1.305939,-1.291421 1.90854,-1.842882 0.602614,-0.551463 1.477359,-1.320068 1.943901,-1.70803 0.466528,-0.38795 1.055,-0.866154 1.307708,-1.062655 0.252694,-0.196528 0.809357,-0.611126 1.237012,-0.921355 0.427667,-0.310227 1.206983,-0.851929 1.731836,-1.20378 0.524853,-0.35185 1.355523,-0.87996 1.845925,-1.173593 0.490416,-0.293632 1.269733,-0.745509 1.731838,-1.004169 0.462091,-0.258659 1.444544,-0.766193 2.183217,-1.127829 0.738687,-0.361635 1.565725,-0.753673 1.83787,-0.871165 0.272145,-0.117561 1.003754,-0.419853 1.625791,-0.671891 0.622051,-0.252037 1.716529,-0.657238 2.432186,-0.900443 0.715656,-0.243217 1.399557,-0.466421 1.519772,-0.496032 0.120241,-0.02963 0.663901,-0.180335 1.208191,-0.334947 0.544289,-0.154611 1.069142,-0.298645 1.16634,-0.320066 0.09718,-0.02144 0.303955,-0.07279 0.459465,-0.114072 0.155509,-0.04129 0.584932,-0.139946 0.954275,-0.21917 0.369344,-0.07923 0.894183,-0.189168 1.166328,-0.244315 0.272145,-0.05523 0.685671,-0.133245 0.918941,-0.173647 0.233258,-0.04035 0.85354,-0.138163 1.378392,-0.21736 0.524853,-0.07923 1.145121,-0.160589 1.378392,-0.180844 0.233271,-0.02024 0.614974,-0.06662 0.848244,-0.103211 0.233271,-0.03647 0.646783,-0.07064 0.918928,-0.07588 0.272144,-0.0053 0.519772,-0.02413 0.550282,-0.04209 0.03057,-0.01797 0.253177,-0.04772 0.494813,-0.06608 0.241634,-0.01836 1.75941,-0.03298 3.372842,-0.03271 1.613432,7.09e-4 3.076646,0.02064 3.251607,0.04504 0.174951,0.0244 0.683886,0.06998 1.130993,0.101344 0.447095,0.03137 0.892416,0.07507 0.989611,0.09706 0.09714,0.02199 0.367577,0.05697 0.600844,0.07748 0.233255,0.02065 0.630866,0.06635 0.883584,0.101739 0.252706,0.03539 0.79346,0.117426 1.201677,0.182306 0.408217,0.06488 1.0603,0.181153 1.44908,0.258365 0.38878,0.07721 1.06564,0.219356 1.50416,0.315885 0.43851,0.09651 1.17012,0.2713 1.6258,0.388405 0.45567,0.117157 1.0989,0.292935 1.42935,0.390723 0.33047,0.09786 1.20521,0.379263 1.94389,0.62547 0.73868,0.24622 1.86791,0.655242 2.50939,0.908941 0.64147,0.2537 1.57985,0.650282 2.08526,0.881287 0.50541,0.231019 1.34439,0.633352 1.8644,0.894076 0.52,0.260723 1.36295,0.705469 1.87319,0.988324 0.51026,0.282855 1.30946,0.747319 1.776,1.032145 0.46653,0.284813 1.22995,0.772199 1.69647,1.083071 0.46655,0.31087 1.26177,0.866138 1.76719,1.233914 0.5054,0.367762 1.28473,0.963405 1.73182,1.323632 0.44709,0.360229 1.1787,0.968018 1.62581,1.350644 0.44709,0.382642 1.46008,1.33236 2.25109,2.110511 0.79101,0.778137 1.76706,1.780603 2.16899,2.227695 0.40193,0.447091 1.06952,1.226421 1.48353,1.731836 0.414,0.505403 1.06572,1.333915 1.44824,1.841127 0.38252,0.507198 1.02517,1.413754 1.42811,2.014572 0.40295,0.600817 0.91834,1.392708 1.14531,1.759772 0.22698,0.367051 0.69669,1.17248 1.04378,1.78984 0.34712,0.617359 0.91378,1.700737 1.25926,2.407507 0.34549,0.706769 0.77722,1.634934 0.95943,2.062588 0.18221,0.427655 0.48881,1.175174 0.68138,1.66114 0.19256,0.485979 0.44498,1.153968 0.56091,1.484424 0.11595,0.330469 0.28554,0.823512 0.37684,1.095656 0.0913,0.272145 0.26253,0.812897 0.38044,1.201676 0.11796,0.388781 0.28216,0.961342 0.36498,1.27236 0.0829,0.311019 0.19725,0.756355 0.25427,0.989625 0.0569,0.233258 0.13404,0.535443 0.17109,0.671515 0.0371,0.136073 0.18085,0.786703 0.31954,1.445831 0.13867,0.65913 0.32702,1.677012 0.41855,2.261985 0.0916,0.584961 0.21876,1.556596 0.28272,2.15921 0.064,0.6026 0.14179,1.334209 0.17292,1.625792 0.0311,0.291595 0.0642,0.832346 0.0735,1.201689 0.009,0.36933 0.0383,1.180469 0.0642,1.802507 0.0261,0.6237 0.008,2.082172 -0.0392,3.25161 -0.0476,1.166327 -0.11782,2.4387 -0.15611,2.827467 -0.0384,0.38878 -0.10525,0.992251 -0.14859,1.341019 -0.0435,0.34878 -0.12387,0.937252 -0.17872,1.307708 -0.0548,0.37047 -0.13533,0.880322 -0.17885,1.133022 -0.0436,0.25271 -0.10814,0.61057 -0.14372,0.79523 -0.0355,0.18467 -0.0948,0.48687 -0.13164,0.67153 -0.0369,0.18467 -0.10027,0.49482 -0.14093,0.6892 -0.0406,0.1944 -0.10247,0.48067 -0.13726,0.63617 -0.0349,0.15551 -0.1749,0.71274 -0.31123,1.2383 -0.13635,0.52554 -0.33284,1.24124 -0.43664,1.59045 -0.10374,0.34921 -0.36443,1.15978 -0.57917,1.80126 -0.21472,0.64148 -0.62224,1.7548 -0.90557,2.47404 -0.28335,0.71925 -0.66381,1.63755 -0.84546,2.04069 -0.18166,0.40315 -0.60957,1.29381 -0.95094,1.97923 -0.34137,0.68546 -0.83681,1.62797 -1.10096,2.0945 -0.26416,0.46654 -0.67359,1.16634 -0.90985,1.55513 -0.23624,0.38877 -0.78632,1.23778 -1.22239,1.8867 -0.43607,0.64891 -1.07218,1.55547 -1.41355,2.01457 -0.34136,0.45912 -0.63899,0.85066 -0.66138,0.8701 -0.0224,0.0195 -0.15099,0.17848 -0.28577,0.35343 -0.13478,0.17494 -0.57255,0.70658 -0.97282,1.18139 -0.40029,0.47482 -0.93699,1.0951 -1.19266,1.37839 -0.25569,0.2833 -1.10992,1.15419 -1.89832,1.9353 -0.7884,0.78111 -1.93783,1.85185 -2.55428,2.37942 -0.61646,0.52759 -1.43893,1.20705 -1.82771,1.50992 -0.38878,0.30289 -1.04086,0.79355 -1.44908,1.09039 -0.40821,0.29684 -1.17163,0.82586 -1.69649,1.17561 -0.52485,0.34975 -1.43141,0.92284 -2.01458,1.27356 -0.58317,0.35071 -1.60106,0.92579 -2.26198,1.27794 -0.66091,0.35213 -1.63111,0.83769 -2.15596,1.07901 -0.52484,0.24131 -1.30993,0.59187 -1.74462,0.77902 -0.43469,0.18715 -1.34126,0.54646 -2.01459,0.79847 -0.67331,0.25201 -1.5105,0.5522 -1.8604,0.66709 -0.3499,0.11487 -0.85884,0.27537 -1.13099,0.3566 -0.27214,0.0813 -0.89242,0.25635 -1.37839,0.38915 -0.48597,0.13284 -1.04263,0.27945 -1.23703,0.32592 -0.19438,0.0464 -0.49657,0.11608 -0.67152,0.15466 -0.17495,0.0386 -0.42942,0.097 -0.56549,0.13002 -0.13607,0.0328 -0.40647,0.0935 -0.60085,0.13485 -0.19439,0.0413 -0.70333,0.13824 -1.13099,0.21547 -0.427651,0.0772 -1.334209,0.21879 -2.014571,0.31455 -0.680362,0.0957 -1.63463,0.20961 -2.120615,0.25298 -0.485961,0.0434 -1.217569,0.10606 -1.625786,0.13917 -0.408218,0.0333 -1.998689,0.0594 -3.534359,0.0583 -1.535671,-0.001 -2.998888,-0.0267 -3.251596,-0.0567 z m 7.210065,-2.60627 c 0.408217,-0.0385 0.933079,-0.0882 1.166334,-0.11059 0.233267,-0.0224 0.678589,-0.0737 0.989623,-0.11406 0.311023,-0.0405 0.963113,-0.1361 1.449074,-0.2126 0.485985,-0.0765 1.217592,-0.20235 1.625812,-0.27967 0.40821,-0.0773 1.23526,-0.2537 1.83785,-0.39196 0.60262,-0.13825 1.54099,-0.37749 2.08528,-0.53163 0.54429,-0.15414 1.32955,-0.39202 1.74505,-0.52862 0.47512,-0.15621 0.88166,-0.34235 1.09564,-0.50167 0.18712,-0.13931 0.5111,-0.41568 0.71993,-0.61415 0.20886,-0.19846 0.52695,-0.58378 0.70687,-0.85626 0.17994,-0.27249 0.38663,-0.6383 0.45932,-0.81291 0.0727,-0.17461 0.158,-0.38108 0.18957,-0.45885 0.0316,-0.0778 0.0793,-0.25271 0.10595,-0.38878 0.0267,-0.13607 0.0627,-0.59364 0.0802,-1.01684 0.0203,-0.49168 0.003,-0.7966 -0.0437,-0.8447 -0.0414,-0.0414 -0.0753,-0.17389 -0.0753,-0.29442 0,-0.1205 -0.0254,-0.24933 -0.0563,-0.28626 -0.0309,-0.037 -0.0977,-0.18944 -0.14834,-0.33889 -0.0507,-0.14945 -0.20812,-0.46646 -0.34988,-0.70447 -0.14179,-0.238 -0.48059,-0.65647 -0.75291,-0.92994 -0.27232,-0.27347 -0.68598,-0.61351 -0.91924,-0.75565 -0.23327,-0.14213 -0.61949,-0.32421 -0.85825,-0.40461 -0.23878,-0.0804 -0.6523,-0.17707 -0.91894,-0.21482 -0.26663,-0.0378 -1.97982,-0.0857 -3.80708,-0.10653 -2.431895,-0.0277 -3.445419,-0.0641 -3.781769,-0.1355 -0.252695,-0.0538 -0.602595,-0.13592 -0.777545,-0.18272 -0.174962,-0.0468 -0.508947,-0.15028 -0.742214,-0.23001 -0.233267,-0.0798 -0.729313,-0.29635 -1.102315,-0.48144 -0.373003,-0.18509 -0.926179,-0.5072 -1.22925,-0.71581 -0.303083,-0.2086 -0.77378,-0.58548 -1.045992,-0.83752 -0.272212,-0.25202 -0.699598,-0.71171 -0.949732,-1.02152 -0.250134,-0.30982 -0.609276,-0.82485 -0.798097,-1.1445 -0.188807,-0.31967 -0.421314,-0.75179 -0.516676,-0.96027 -0.09531,-0.20848 -0.226421,-0.53527 -0.291246,-0.72622 -0.06488,-0.19092 -0.19185,-0.63533 -0.282292,-0.98758 -0.09048,-0.35224 -0.205443,-1.0157 -0.255537,-1.47433 -0.07427,-0.67942 -0.07427,-0.99979 -7.1e-4,-1.72942 0.04987,-0.49253 0.167922,-1.2145 0.262332,-1.60437 0.09437,-0.38988 0.287453,-0.97944 0.428995,-1.31013 0.141555,-0.33072 0.403486,-0.85575 0.582091,-1.16679 0.178593,-0.31102 0.4648,-0.75634 0.636006,-0.98961 0.171206,-0.23326 0.536113,-0.65767 0.810898,-0.94315 0.274799,-0.28546 0.736984,-0.69789 1.027092,-0.9165 0.290107,-0.21862 0.85768,-0.58148 1.261263,-0.80635 0.403581,-0.22489 0.776664,-0.40888 0.829069,-0.40888 0.05239,0 0.111974,-0.0269 0.132305,-0.0599 0.0204,-0.033 0.348301,-0.15957 0.728722,-0.28132 0.380409,-0.12171 0.97795,-0.27661 1.327839,-0.34407 0.571112,-0.11024 1.413465,-0.12655 8.235043,-0.16048 l 7.59883,-0.0378 0.22543,-0.1608 c 0.124,-0.0884 0.27509,-0.26032 0.33577,-0.38195 0.0607,-0.12172 0.11035,-0.31215 0.11035,-0.42335 0,-0.11116 -0.0398,-0.27329 -0.0883,-0.36024 -0.0487,-0.0871 -0.15198,-0.23267 -0.22974,-0.32385 -0.0778,-0.0911 -0.22727,-0.21044 -0.33224,-0.26508 -0.16029,-0.0833 -1.34469,-0.0993 -7.38679,-0.0995 -4.60487,0 -7.424996,-0.0271 -7.8321,-0.0749 -0.3499,-0.0412 -0.874751,-0.12224 -1.166335,-0.18048 -0.291583,-0.0582 -0.75282,-0.16462 -1.024965,-0.23652 -0.272145,-0.0719 -0.652194,-0.18487 -0.844567,-0.25099 -0.192372,-0.0661 -0.62689,-0.24222 -0.96559,-0.39128 -0.3387,-0.14904 -0.801582,-0.37439 -1.028633,-0.50079 -0.227038,-0.12641 -0.683191,-0.41064 -1.013646,-0.63168 -0.33056,-0.22111 -0.807705,-0.57349 -1.060413,-0.78312 -0.252708,-0.20965 -0.661462,-0.58731 -0.908352,-0.83925 -0.246876,-0.25197 -0.599718,-0.63307 -0.784061,-0.84691 -0.184357,-0.21382 -0.494598,-0.61143 -0.689412,-0.88358 -0.194825,-0.27214 -0.511782,-0.765183 -0.704342,-1.095652 -0.192547,-0.330514 -0.480524,-0.903075 -0.63992,-1.272418 -0.15941,-0.369343 -0.389304,-0.973713 -0.510858,-1.343056 -0.121582,-0.36933 -0.299504,-1.095109 -0.395403,-1.61283 -0.150348,-0.811622 -0.174316,-1.147614 -0.174075,-2.4387 0,-0.982065 0.03606,-1.716327 0.104428,-2.13358 0.05724,-0.349892 0.153216,-0.827038 0.21327,-1.060295 0.06006,-0.233271 0.210255,-0.742212 0.333781,-1.130992 0.123591,-0.38878 0.448874,-1.152307 0.723029,-1.696717 0.274156,-0.54441 0.70937,-1.29193 0.967131,-1.661139 0.257775,-0.369223 0.709841,-0.946917 1.004585,-1.283768 0.294759,-0.336849 0.796957,-0.838391 1.116006,-1.114544 0.319036,-0.276153 0.912198,-0.728164 1.318124,-1.004477 0.405925,-0.276314 1.060617,-0.667159 1.454866,-0.868553 0.394263,-0.201394 0.939499,-0.450214 1.211644,-0.55295 0.272145,-0.102816 0.717466,-0.253525 0.989611,-0.335093 0.272145,-0.08164 0.606142,-0.177855 0.742214,-0.213981 0.136072,-0.03606 0.422359,-0.09706 0.636175,-0.135456 0.21384,-0.03833 0.547837,-0.0925 0.742214,-0.120375 0.194401,-0.02775 2.134745,-0.06073 4.311904,-0.07306 2.17716,-0.01207 5.03999,-0.03057 6.36183,-0.04048 l 2.40336,-0.01809 0.42412,-0.198083 c 0.23327,-0.108983 0.54677,-0.31571 0.69669,-0.459463 0.14991,-0.143754 0.35126,-0.384062 0.44744,-0.534008 0.0962,-0.149948 0.21971,-0.420322 0.27451,-0.600846 0.0548,-0.180509 0.10003,-0.503606 0.10038,-0.717976 7.2e-4,-0.214383 -0.0595,-0.554665 -0.13311,-0.756192 -0.0736,-0.201529 -0.1988,-0.457521 -0.27809,-0.568888 -0.0794,-0.111394 -0.28631,-0.333472 -0.46,-0.493593 -0.1737,-0.160108 -0.47003,-0.364893 -0.6585,-0.455067 l -0.34268,-0.163968 -10.90346,-0.0185 c -5.996907,-0.01078 -10.903462,-0.02908 -10.903462,-0.04196 0,-0.0134 0.06073,-0.200001 0.135012,-0.415846 0.07427,-0.215844 0.292507,-0.708767 0.485001,-1.095375 0.19248,-0.386596 0.515362,-0.948016 0.71752,-1.2476 0.202158,-0.299572 0.559036,-0.767159 0.793056,-1.039063 0.234035,-0.27193 0.669465,-0.703498 0.967654,-0.959088 0.298165,-0.255577 0.7648,-0.614598 1.036945,-0.797802 0.272145,-0.183218 0.558419,-0.359719 0.63618,-0.392239 0.07774,-0.03257 0.53898,-0.06649 1.024952,-0.07547 0.485973,-0.0094 3.229514,-0.01971 6.096752,-0.02385 l 5.21316,-0.008 0.26508,-0.267574 c 0.1458,-0.147158 0.3001,-0.385724 0.34289,-0.530147 0.0566,-0.191086 0.0566,-0.334076 0,-0.525162 -0.0428,-0.144424 -0.19212,-0.378015 -0.33184,-0.519102 -0.14078,-0.142171 -0.35744,-0.277211 -0.48598,-0.302921 -0.12761,-0.02547 -2.84747,-0.04638 -6.04424,-0.04638 H 94.15653 L 93.668848,65.723362 C 93.400631,65.52261 92.990322,65.191566 92.757052,64.987732 92.52378,64.783911 92.219679,64.510788 92.08126,64.380801 91.942856,64.250775 91.621984,63.916994 91.36823,63.638965 91.114464,63.360921 90.718834,62.88379 90.489035,62.578656 c -0.229799,-0.305134 -0.584867,-0.856971 -0.789062,-1.226301 -0.204183,-0.369343 -0.371246,-0.703337 -0.37126,-0.742212 0,-0.04652 1.690174,-0.07064 4.930416,-0.07064 2.711741,0 5.089478,-0.01381 5.283868,-0.03069 0.194389,-0.01689 0.535313,-0.08526 0.757623,-0.15189 0.2223,-0.06663 0.50858,-0.186019 0.63618,-0.265255 0.12761,-0.07923 0.34774,-0.26539 0.4892,-0.413619 0.14146,-0.148245 0.47463,-0.603527 0.74036,-1.011744 0.26574,-0.408217 0.65608,-0.909973 0.86739,-1.115026 0.21928,-0.212762 0.59941,-0.477843 0.88544,-0.617454 0.27567,-0.134545 0.69207,-0.298861 0.92534,-0.365148 0.36967,-0.105088 0.90501,-0.123861 4.17052,-0.146166 3.05682,-0.02091 3.82448,-0.04544 4.17053,-0.133244 0.23328,-0.05912 0.56727,-0.189705 0.74222,-0.290121 0.17495,-0.100405 0.42943,-0.277346 0.5655,-0.393149 0.13607,-0.115822 0.38168,-0.371918 0.54579,-0.569103 0.16414,-0.197198 0.39595,-0.600482 0.51515,-0.896193 0.18051,-0.447775 0.21756,-0.638848 0.22175,-1.14303 0.002,-0.332963 -0.0344,-0.728525 -0.0826,-0.879035 -0.0482,-0.15051 -0.18076,-0.470081 -0.2945,-0.710147 -0.11383,-0.240068 -0.33569,-0.582856 -0.49317,-0.761756 -0.15746,-0.178901 -0.42254,-0.419009 -0.58905,-0.533553 -0.1665,-0.114616 -0.88671,-0.504465 -1.60047,-0.866435 -0.71376,-0.361971 -1.74307,-0.853579 -2.28736,-1.092439 -0.54429,-0.238861 -1.38722,-0.592347 -1.8732,-0.785511 -0.48597,-0.193163 -1.35657,-0.513941 -1.93467,-0.712828 -0.5781,-0.198887 -1.48466,-0.486086 -2.01457,-0.63819 -0.52993,-0.152119 -1.34187,-0.375376 -1.80433,-0.49614 -0.46248,-0.120777 -1.30541,-0.315228 -1.87322,-0.432145 -0.5678,-0.11689 -1.207318,-0.243203 -1.421134,-0.280643 -0.21384,-0.03739 -0.818208,-0.131099 -1.343059,-0.208271 -0.52485,-0.07707 -1.383698,-0.186809 -1.908537,-0.24378 -0.524862,-0.05697 -1.542756,-0.141341 -2.261989,-0.187508 -0.841462,-0.05402 -2.177227,-0.06917 -3.746422,-0.04249 -1.366476,0.0232 -2.916194,0.08995 -3.524761,0.151784 -0.597332,0.06073 -1.647024,0.189517 -2.332667,0.286273 -0.68563,0.09678 -1.723741,0.270979 -2.306905,0.387172 -0.583177,0.11622 -1.285711,0.259597 -1.561193,0.318699 -0.275496,0.05912 -1.086622,0.264384 -1.80252,0.45622 -0.715899,0.191823 -1.842387,0.529558 -2.503313,0.75051 -0.660925,0.220939 -1.679088,0.584745 -2.262601,0.808445 -0.583499,0.223713 -1.442345,0.574679 -1.908539,0.77992 -0.466194,0.205241 -0.887158,0.403659 -0.935469,0.440912 -0.06957,0.05362 -0.08807,3.911824 -0.08861,18.573035 -7.11e-4,10.17791 0.01864,18.555929 0.04236,18.617792 0.03915,0.101878 0.724974,0.112473 7.245673,0.112473 3.961382,0 7.202508,0.01078 7.202508,0.02507 0,0.01381 -0.14189,0.328646 -0.315308,0.699758 -0.173432,0.371113 -0.443056,1.056877 -0.599182,1.523928 -0.156127,0.467038 -0.362855,1.241609 -0.459411,1.721261 -0.09651,0.479638 -0.212117,1.301502 -0.256809,1.826355 -0.04705,0.552198 -0.06167,1.341474 -0.03472,1.873204 0.02561,0.505415 0.09464,1.237024 0.153432,1.625805 0.05871,0.388779 0.199451,1.059825 0.312641,1.491219 0.113133,0.431395 0.22622,0.837574 0.25118,0.902628 0.04223,0.110049 -0.423875,0.117963 -6.730981,0.114071 l -6.776369,-0.0041 -0.0193,18.681806 c -0.01078,10.27501 -0.0027,18.74932 0.01676,18.83181 0.02654,0.11035 0.218915,0.22963 0.72618,0.45052 0.379571,0.16528 0.992306,0.42588 1.361649,0.5791 0.369344,0.15321 1.085041,0.43171 1.590456,0.61887 0.505417,0.18716 1.268835,0.45108 1.696489,0.58649 0.427654,0.13541 1.001636,0.3144 1.275523,0.39774 0.273874,0.0833 0.989584,0.27771 1.590457,0.43191 0.600871,0.15422 1.410576,0.34695 1.799357,0.42832 0.38878,0.0814 1.056769,0.211 1.484423,0.28812 0.427655,0.0771 1.197494,0.20204 1.710752,0.27759 0.513257,0.0755 1.069919,0.15227 1.237024,0.17052 0.167104,0.0182 0.621917,0.068 1.010697,0.11081 0.388781,0.0427 1.136288,0.10514 1.661141,0.13867 0.524851,0.0336 2.083499,0.0487 3.46366,0.0336 1.380175,-0.0152 2.843393,-0.059 3.25161,-0.0975 z M 82.048242,77.570885 c -0.09718,-0.01662 -0.391435,-0.06716 -0.653862,-0.112472 -0.262426,-0.04531 -0.47713,-0.106305 -0.47713,-0.135483 0,-0.02922 0.125468,-0.270644 0.278847,-0.536488 0.153364,-0.265832 0.443753,-0.651622 0.645308,-0.857319 0.201542,-0.205684 0.477561,-0.420389 0.613365,-0.477131 0.135804,-0.05671 0.400723,-0.103222 0.588713,-0.103222 0.30307,0 0.363218,-0.02681 0.530992,-0.237132 0.104022,-0.130429 0.261837,-0.41563 0.35059,-0.63378 0.08874,-0.218163 0.230215,-0.676059 0.314343,-1.017561 0.08418,-0.341501 0.21622,-1.034437 0.29354,-1.539852 0.07735,-0.505403 0.158726,-1.436329 0.180924,-2.068715 0.03659,-1.041019 0.02828,-1.163056 -0.0866,-1.29004 -0.06984,-0.07708 -0.209476,-0.139545 -0.310362,-0.138686 -0.100938,8.44e-4 -0.31067,0.05992 -0.466179,0.131233 -0.15551,0.07131 -0.441797,0.263727 -0.63618,0.42748 -0.194397,0.16374 -0.496891,0.371689 -0.672226,0.462117 -0.175335,0.09048 -0.564142,0.201596 -0.863994,0.247038 -0.299867,0.04544 -0.633553,0.06823 -0.741529,0.05054 -0.107905,-0.01769 -0.323539,-0.0555 -0.479048,-0.08418 -0.155509,-0.02855 -0.447909,-0.128954 -0.649772,-0.223002 -0.201863,-0.0941 -0.526301,-0.314183 -0.72098,-0.489209 -0.204959,-0.18429 -0.436165,-0.486275 -0.549235,-0.717387 -0.158727,-0.324423 -0.200349,-0.518982 -0.222333,-1.039289 -0.02226,-0.527641 -6.97e-4,-0.710966 0.1248,-1.043164 0.08432,-0.223795 0.292653,-0.559612 0.468417,-0.755109 0.174089,-0.193632 0.462092,-0.433404 0.639974,-0.532827 0.177896,-0.09947 0.538163,-0.244719 0.800604,-0.322882 0.262453,-0.07815 0.622265,-0.142105 0.799598,-0.142105 0.177332,0 0.523807,0.05134 0.769932,0.114211 0.246141,0.06273 0.563901,0.173297 0.706153,0.245563 0.142253,0.07225 0.407574,0.260282 0.589599,0.417815 0.182024,0.157547 0.454022,0.349222 0.60445,0.425966 0.15043,0.0768 0.364115,0.13953 0.474866,0.13953 0.110722,0 0.260135,-0.0429 0.331944,-0.09544 0.121314,-0.08874 0.12748,-0.182239 0.08687,-1.32539 -0.02413,-0.676434 -0.107639,-1.634289 -0.185844,-2.128538 -0.07815,-0.494251 -0.209182,-1.171274 -0.291207,-1.504492 -0.08203,-0.333231 -0.22177,-0.784356 -0.310523,-1.00252 -0.08875,-0.21815 -0.246528,-0.503352 -0.35059,-0.63378 -0.169826,-0.212829 -0.225831,-0.237132 -0.546622,-0.237132 -0.196568,0 -0.473553,-0.05469 -0.615496,-0.121716 -0.141944,-0.06689 -0.412641,-0.281636 -0.601528,-0.477131 -0.188901,-0.19551 -0.371248,-0.419103 -0.405228,-0.49685 -0.03404,-0.07774 -0.141635,-0.268606 -0.239249,-0.424129 -0.09759,-0.15551 -0.197508,-0.323874 -0.222012,-0.374143 -0.02453,-0.05027 -0.02936,-0.106572 -0.01078,-0.125066 0.0185,-0.0185 0.279759,-0.08083 0.580442,-0.138325 0.300711,-0.0575 0.811488,-0.104555 1.135068,-0.104555 0.37748,0 0.741487,0.04772 1.015724,0.132975 0.235094,0.07319 0.627587,0.277159 0.872226,0.453325 0.244638,0.176167 0.624691,0.505965 0.84457,0.732895 0.219866,0.226917 0.54173,0.635242 0.715242,0.907387 0.173499,0.272145 0.387198,0.636448 0.474892,0.809585 0.08767,0.173124 0.315028,0.707534 0.505188,1.18756 0.190162,0.480028 0.491555,1.163111 0.669773,1.517937 0.178203,0.354852 0.479584,0.895978 0.669719,1.202546 0.190134,0.306556 0.496822,0.754197 0.681528,0.99476 0.184704,0.240549 0.574706,0.68799 0.866649,0.994302 0.291944,0.306315 0.809142,0.77933 1.149317,1.051168 0.340188,0.27181 0.618512,0.517506 0.618512,0.545952 0,0.02842 -0.198808,0.20713 -0.441783,0.397051 -0.242989,0.189919 -0.722158,0.614624 -1.064839,0.943793 -0.342668,0.329169 -0.84098,0.886234 -1.107347,1.237896 -0.266367,0.351689 -0.657305,0.925697 -0.86874,1.275603 -0.211434,0.349894 -0.487547,0.858848 -0.613579,1.130993 -0.126006,0.272144 -0.354008,0.807238 -0.506596,1.189102 -0.1526,0.381877 -0.385965,0.922628 -0.518605,1.201689 -0.132709,0.279049 -0.37224,0.70988 -0.532454,0.957387 -0.160215,0.247507 -0.456595,0.625563 -0.658632,0.840134 -0.202039,0.214571 -0.53685,0.515925 -0.744035,0.669678 -0.207199,0.153754 -0.55248,0.35728 -0.76728,0.45228 -0.294503,0.130161 -0.549625,0.179638 -1.037037,0.200818 -0.355563,0.01542 -0.725992,0.01448 -0.823177,-0.0027 z m 6.808956,-23.602004 c -0.123459,-0.05375 -0.278928,-0.18083 -0.345563,-0.282533 -0.06662,-0.101738 -0.124665,-0.33488 -0.129088,-0.518137 -0.0053,-0.243163 0.03592,-0.394625 0.154208,-0.56047 0.100266,-0.140589 0.262012,-0.255 0.424129,-0.300027 0.170309,-0.04732 2.392441,-0.07292 6.348324,-0.07319 l 6.086292,-7.11e-4 0.23916,0.161166 c 0.13151,0.08861 0.27891,0.239745 0.32751,0.335764 0.0486,0.09598 0.0889,0.305496 0.0894,0.465483 7e-4,0.192574 -0.0508,0.356729 -0.15221,0.485711 -0.0843,0.107105 -0.2582,0.238673 -0.38651,0.292279 -0.1923,0.08029 -1.30437,0.09692 -6.332289,0.09463 -5.027416,-0.0027 -6.138448,-0.01997 -6.323408,-0.100406 z m 0.376743,-3.388901 c -0.149491,-0.0555 -0.346502,-0.17114 -0.437815,-0.256931 -0.09128,-0.08579 -0.214599,-0.258324 -0.273968,-0.383418 -0.05938,-0.125067 -0.123995,-0.351851 -0.143553,-0.503901 -0.01957,-0.152051 -6.97e-4,-0.387788 0.04196,-0.52386 0.04262,-0.136073 0.152962,-0.348326 0.24504,-0.471676 0.09209,-0.123326 0.267963,-0.274438 0.390886,-0.335765 0.128954,-0.06434 0.403016,-0.111533 0.648216,-0.111533 0.320872,0 0.49555,0.04155 0.714438,0.169786 0.170375,0.09986 0.361407,0.296394 0.463767,0.477132 0.132037,0.233189 0.172935,0.406192 0.169463,0.716944 -0.0041,0.334088 -0.04263,0.463779 -0.211126,0.703485 -0.113677,0.161635 -0.30642,0.352212 -0.428484,0.423499 -0.122119,0.07131 -0.376087,0.144799 -0.564518,0.163378 -0.205322,0.02024 -0.451476,-0.0067 -0.614357,-0.06716 z m 5.582119,-0.0011 c -0.150654,-0.05577 -0.376827,-0.201099 -0.502571,-0.322975 -0.12574,-0.12185 -0.264909,-0.342668 -0.309239,-0.490631 -0.04437,-0.147963 -0.08056,-0.369732 -0.08056,-0.492815 0,-0.123056 0.04919,-0.341636 0.109389,-0.485644 0.06018,-0.144021 0.17945,-0.336876 0.265075,-0.428566 0.08566,-0.09169 0.241578,-0.21142 0.346551,-0.266045 0.104902,-0.05469 0.384895,-0.09933 0.622022,-0.09933 0.237138,0 0.517038,0.0449 0.622022,0.09973 0.104903,0.05483 0.276329,0.190027 0.380768,0.300415 0.104439,0.110328 0.223727,0.290241 0.265086,0.399679 0.04138,0.109377 0.07523,0.345938 0.07523,0.525509 0,0.187038 -0.06329,0.457266 -0.148173,0.632588 -0.09864,0.203913 -0.24807,0.364611 -0.447513,0.481488 -0.164645,0.09651 -0.43992,0.191756 -0.611729,0.211702 -0.185962,0.02158 -0.423193,-0.0053 -0.586285,-0.06514 z m 5.4429,0 c -0.15067,-0.05577 -0.381897,-0.206019 -0.513854,-0.333914 -0.133105,-0.129089 -0.27415,-0.359437 -0.316865,-0.517762 -0.04231,-0.156876 -0.05877,-0.439865 -0.03628,-0.628847 0.02538,-0.214946 0.110698,-0.435562 0.227865,-0.589182 0.103048,-0.135067 0.286993,-0.306367 0.408844,-0.380671 0.15814,-0.09638 0.35309,-0.13508 0.68102,-0.13508 0.32794,0 0.52288,0.03861 0.681,0.13508 0.12185,0.07427 0.31272,0.254732 0.42414,0.400939 0.17978,0.235939 0.20257,0.323325 0.20257,0.777024 0,0.466448 -0.0191,0.534974 -0.21955,0.782816 -0.12079,0.149397 -0.31438,0.327184 -0.43027,0.395093 -0.1158,0.06796 -0.35109,0.13976 -0.52266,0.159679 -0.18552,0.02158 -0.42296,-0.0053 -0.58587,-0.06515 z m 12.65311,83.85365 c 0.4616,-0.23906 1.18917,-0.6344 1.61683,-0.87854 0.42765,-0.24414 1.05476,-0.61316 1.39357,-0.82005 0.33881,-0.20689 0.86367,-0.53459 1.16633,-0.72823 0.30268,-0.19364 0.93204,-0.61983 1.39856,-0.9471 0.46655,-0.32725 1.10274,-0.78865 1.41375,-1.02532 0.31102,-0.23666 0.8995,-0.69949 1.30771,-1.0285 0.40822,-0.329 1.01259,-0.8378 1.34305,-1.13066 0.33046,-0.29283 1.0328,-0.93776 1.56076,-1.43314 0.52795,-0.4954 1.43915,-1.41847 2.02488,-2.05127 0.58572,-0.63281 1.35756,-1.50047 1.71518,-1.92811 0.35763,-0.42766 1.021,-1.27015 1.47413,-1.87222 0.45314,-0.60207 1.17626,-1.62201 1.60692,-2.26656 0.43066,-0.64456 1.00679,-1.55157 1.28027,-2.01558 0.2735,-0.46401 0.62518,-1.06632 0.78153,-1.33847 0.15636,-0.27214 0.58576,-1.09918 0.95423,-1.83785 0.36847,-0.73868 0.81469,-1.67706 0.99157,-2.08527 0.17689,-0.40822 0.48669,-1.15573 0.68844,-1.66114 0.20175,-0.50543 0.55581,-1.4756 0.7868,-2.15596 0.23099,-0.68036 0.54329,-1.66645 0.69401,-2.1913 0.15072,-0.52485 0.35703,-1.29622 0.45848,-1.71416 0.10154,-0.41794 0.26451,-1.14955 0.36234,-1.6258 0.0978,-0.47625 0.23859,-1.21581 0.31279,-1.64347 0.0742,-0.427657 0.20121,-1.254695 0.28226,-1.837859 0.0811,-0.583163 0.19121,-1.601059 0.2448,-2.261984 0.0537,-0.660925 0.10803,-1.456154 0.12105,-1.767172 0.0134,-0.311019 0.0209,-1.519773 0.0175,-2.6861 -0.002,-1.166341 -0.0447,-2.613647 -0.092,-3.216261 -0.0473,-0.602601 -0.11689,-1.36602 -0.15473,-1.696488 -0.0378,-0.330456 -0.0865,-0.727574 -0.10815,-0.882494 -0.0217,-0.154907 -0.10223,-0.679758 -0.17899,-1.166341 -0.0766,-0.486569 -0.16656,-1.043713 -0.19965,-1.23811 -0.0332,-0.194384 -0.12922,-0.687426 -0.21351,-1.095644 -0.0843,-0.408218 -0.24838,-1.139825 -0.36457,-1.625804 -0.11623,-0.485966 -0.3383,-1.328916 -0.49359,-1.873205 -0.15528,-0.54429 -0.40599,-1.360255 -0.55712,-1.813271 -0.15114,-0.453017 -0.39172,-1.136904 -0.5346,-1.519772 -0.1429,-0.382855 -0.44373,-1.141436 -0.66852,-1.685725 -0.2248,-0.54429 -0.52686,-1.244088 -0.67125,-1.555107 -0.14439,-0.311033 -0.33666,-0.732749 -0.42725,-0.937185 -0.0906,-0.204424 -0.45837,-0.920136 -0.8173,-1.590457 -0.35893,-0.670321 -0.84211,-1.536863 -1.07372,-1.925644 -0.23161,-0.388781 -0.55177,-0.913633 -0.71146,-1.16634 -0.1597,-0.252695 -0.55725,-0.855511 -0.88342,-1.339558 -0.3262,-0.484049 -0.9014,-1.295189 -1.27824,-1.802508 -0.37684,-0.507346 -1.108,-1.431381 -1.62481,-2.053419 -0.5168,-0.622051 -0.99939,-1.141154 -1.0724,-1.15358 -0.073,-0.01207 -0.13271,0.01381 -0.13271,0.05831 0,0.0445 0.13966,0.296796 0.31037,0.560684 0.17071,0.263887 0.47114,0.778405 0.66761,1.143378 0.19647,0.36496 0.51747,1.023647 0.7133,1.463741 0.19585,0.440106 0.51638,1.295308 0.71232,1.900455 0.19594,0.605149 0.43399,1.485618 0.52902,1.95661 0.0951,0.470992 0.22681,1.253968 0.29285,1.739933 0.0812,0.598097 0.12119,1.386073 0.12333,2.4387 0.001,0.855309 -0.037,1.889116 -0.086,2.297333 -0.0491,0.408219 -0.11702,0.885349 -0.15089,1.060296 -0.0337,0.174947 -0.0996,0.524853 -0.14612,0.77756 -0.0465,0.252708 -0.1902,0.84118 -0.3193,1.307708 -0.12909,0.466529 -0.34476,1.15043 -0.47922,1.519773 -0.13448,0.36933 -0.37769,0.973713 -0.54046,1.343043 -0.16278,0.369343 -0.44181,0.941904 -0.62008,1.272374 -0.17827,0.330456 -0.5293,0.918927 -0.78006,1.307708 -0.25078,0.388779 -0.68085,1.00492 -0.95572,1.369223 -0.27486,0.364289 -0.79172,0.985255 -1.14858,1.379906 -0.35684,0.394652 -0.95945,0.998619 -1.33908,1.342158 -0.37964,0.343526 -1.04378,0.88732 -1.47583,1.208419 -0.43206,0.321086 -1.1232,0.792346 -1.53586,1.047225 -0.41263,0.254893 -1.07653,0.62716 -1.47531,0.82728 -0.39877,0.200107 -1.1204,0.52185 -1.60363,0.714986 -0.48321,0.193124 -1.25073,0.458084 -1.70558,0.588794 -0.45486,0.130698 -1.15167,0.305858 -1.54847,0.389222 -0.39681,0.08338 -1.0648,0.203499 -1.48443,0.266958 -0.64539,0.09759 -1.74965,0.121582 -7.1657,0.155938 l -6.402733,0.04062 -0.26701,0.203713 c -0.146852,0.112066 -0.311347,0.309826 -0.365537,0.439517 -0.05413,0.12976 -0.09853,0.306328 -0.09853,0.392494 0,0.08619 0.06283,0.286689 0.139863,0.445604 0.07697,0.158913 0.243931,0.351863 0.371113,0.428766 0.22564,0.136448 0.420782,0.140751 8.077484,0.178204 7.07571,0.03459 7.90178,0.0504 8.41175,0.160429 0.31101,0.06716 0.80406,0.18626 1.09565,0.264719 0.29158,0.07842 0.75282,0.225133 1.02497,0.325951 0.27214,0.1008 0.79698,0.333097 1.16632,0.516193 0.36935,0.183097 0.86239,0.454223 1.09565,0.60248 0.23327,0.148271 0.67932,0.467521 0.99119,0.709438 0.3119,0.241904 0.90738,0.79496 1.32328,1.228995 0.42645,0.445027 0.97473,1.115952 1.25734,1.538593 0.27561,0.412199 0.6556,1.070937 0.84439,1.463887 0.18878,0.39295 0.45406,1.04845 0.5895,1.45667 0.13542,0.40821 0.31679,1.07621 0.40303,1.48442 0.11372,0.53839 0.16685,1.08766 0.19345,2.00008 0.0234,0.80332 0.006,1.49301 -0.05,1.90855 -0.0478,0.35787 -0.16109,0.96877 -0.25204,1.35755 -0.0909,0.38879 -0.26669,0.99315 -0.39054,1.34304 -0.12385,0.34991 -0.33678,0.85796 -0.47321,1.12898 -0.13642,0.27104 -0.39221,0.73228 -0.56842,1.02496 -0.17622,0.2927 -0.51799,0.78665 -0.7595,1.09767 -0.24151,0.31102 -0.80242,0.91707 -1.24647,1.34678 -0.48639,0.47068 -1.11162,0.98474 -1.57276,1.29311 -0.42098,0.2815 -1.11952,0.6834 -1.55229,0.8931 -0.43278,0.20971 -1.15661,0.49285 -1.60854,0.62919 -0.45194,0.13632 -1.104,0.30416 -1.44909,0.37291 -0.57074,0.11382 -1.35915,0.12842 -8.73358,0.16298 -8.047369,0.0377 -8.10761,0.0389 -8.30135,0.18369 -0.107337,0.0801 -0.26075,0.2336 -0.340905,0.34096 -0.100382,0.13443 -0.14574,0.30202 -0.14574,0.53827 0,0.23737 0.04555,0.40455 0.147873,0.54263 0.08137,0.10977 0.253042,0.27115 0.381568,0.35863 l 0.233684,0.15905 4.77858,0.002 c 3.67912,10e-4 4.90057,0.0242 5.30874,0.0974 0.29158,0.0522 0.83235,0.196 1.20168,0.31958 0.36935,0.1236 0.87828,0.33778 1.13099,0.47603 0.2527,0.13825 0.67252,0.39407 0.93294,0.56848 0.2604,0.17443 0.75426,0.60825 1.09748,0.96405 0.34321,0.3558 0.77868,0.88045 0.9677,1.16591 0.18903,0.28545 0.48244,0.83426 0.65204,1.21958 0.16957,0.38534 0.30832,0.76225 0.30832,0.83757 0,0.0753 0.0284,0.15454 0.0633,0.17603 0.0347,0.0214 0.0796,0.15856 0.0996,0.3046 0.0199,0.14603 0.0743,0.51998 0.12063,0.831 0.0511,0.34274 0.0687,0.91355 0.0447,1.44908 -0.0217,0.48598 -0.0761,1.05854 -0.12091,1.27237 -0.0447,0.21382 -0.10618,0.4524 -0.13631,0.53015 -0.0301,0.0778 -0.0961,0.28451 -0.14651,0.45946 -0.0504,0.17496 -0.2332,0.60438 -0.40618,0.95428 -0.17297,0.3499 -0.45833,0.83794 -0.63412,1.08453 -0.17581,0.24658 -0.60039,0.72221 -0.94353,1.05694 -0.34313,0.33475 -0.70405,0.65726 -0.80202,0.7167 -0.0979,0.0594 -0.17812,0.13258 -0.17812,0.1624 0,0.0299 0.0279,0.0542 0.0619,0.0542 0.0341,0 0.43965,-0.19557 0.90126,-0.43463 z m -53.642535,-21.93841 -0.01783,-14.880253 -7.740231,-7.11e-4 c -7.682884,-6.97e-4 -7.740391,7.11e-4 -7.762629,0.140711 -0.01207,0.07762 0.02989,0.483753 0.09371,0.902399 0.06394,0.418646 0.14201,0.920228 0.173578,1.114612 0.03163,0.194397 0.109783,0.639722 0.173834,0.989622 0.06408,0.3499 0.230295,1.14512 0.369464,1.76718 0.139169,0.62203 0.377547,1.57631 0.529746,2.1206 0.152184,0.54429 0.501649,1.65712 0.776568,2.47293 0.27492,0.81583 0.626742,1.80191 0.781824,2.19131 0.15508,0.38938 0.339423,0.83521 0.409638,0.99073 0.07024,0.15551 0.214048,0.48949 0.319625,0.74221 0.105633,0.25271 0.441072,0.97754 0.745549,1.61073 0.304478,0.63322 0.768204,1.53978 1.030483,2.01459 0.262278,0.47481 0.714652,1.26091 1.005268,1.74689 0.290617,0.48596 0.877065,1.40332 1.303231,2.03856 0.426153,0.63524 1.077092,1.55771 1.446529,2.04992 0.369437,0.49222 0.975443,1.26074 1.346676,1.70785 0.371234,0.4471 0.913244,1.08327 1.204464,1.41374 0.291207,0.33045 1.231877,1.30764 2.090362,2.17152 0.858486,0.86385 1.600712,1.57162 1.649397,1.57278 0.07065,0.001 0.08499,-2.9959 0.07065,-14.87814 z m 0,-41.351252 c 0.0094,-8.04771 9.79e-4,-14.67723 -0.01997,-14.73227 -0.02547,-0.06676 -0.510147,0.368512 -1.456341,1.307708 -0.78004,0.774276 -1.811381,1.84622 -2.29185,2.382066 -0.480469,0.53587 -1.23354,1.426528 -1.673472,1.979235 -0.439933,0.552722 -0.976676,1.243512 -1.192762,1.535095 -0.216085,0.291595 -0.663365,0.927775 -0.993967,1.41374 -0.330578,0.485978 -0.80799,1.217587 -1.060913,1.625805 -0.252923,0.408217 -0.572601,0.93307 -0.710402,1.16634 -0.137802,0.233258 -0.372641,0.646784 -0.521877,0.918929 -0.149223,0.272144 -0.356663,0.653847 -0.460965,0.848243 -0.104289,0.194384 -0.332252,0.639719 -0.506569,0.989613 -0.174316,0.349906 -0.420818,0.858847 -0.547775,1.130992 -0.126944,0.272145 -0.324249,0.701568 -0.438391,0.954275 -0.114211,0.252709 -0.367547,0.857079 -0.56307,1.343058 -0.195549,0.485964 -0.380698,0.963096 -0.411461,1.060294 -0.0307,0.09718 -0.140054,0.399384 -0.242896,0.67153 -0.102817,0.272145 -0.296515,0.828807 -0.430415,1.237024 -0.133914,0.408217 -0.309437,0.964879 -0.390055,1.237024 -0.08056,0.272145 -0.17461,0.590228 -0.208833,0.706864 -0.03418,0.116622 -0.141421,0.514249 -0.23823,0.883593 -0.09678,0.369329 -0.259827,1.037332 -0.362279,1.484423 -0.102411,0.447092 -0.248633,1.14689 -0.324853,1.555107 -0.07627,0.408219 -0.181891,0.99669 -0.234799,1.30771 -0.05295,0.311031 -0.117024,0.740441 -0.142601,0.954275 -0.02547,0.213834 -0.06408,0.460497 -0.08552,0.548137 l -0.03914,0.159357 7.765632,-0.01797 7.765632,-0.01797 z m 91.144435,20.820005 c -0.24626,-0.07493 -0.65118,-0.231501 -0.89982,-0.347855 -0.24864,-0.116354 -0.60381,-0.315228 -0.78927,-0.441944 -0.18548,-0.126676 -0.52395,-0.407024 -0.75218,-0.62291 -0.22823,-0.21587 -0.54911,-0.567452 -0.71307,-0.781286 -0.16396,-0.21382 -0.4623,-0.668083 -0.66302,-1.009451 -0.20069,-0.341367 -0.3649,-0.635952 -0.3649,-0.654624 0,-0.01864 -0.0613,-0.168794 -0.13629,-0.333593 -0.0749,-0.164812 -0.22998,-0.585939 -0.34447,-0.935831 -0.11452,-0.349907 -0.25939,-0.874759 -0.32201,-1.166342 -0.0626,-0.291581 -0.14784,-0.730469 -0.1894,-0.975308 -0.0416,-0.244839 -0.0752,-0.992345 -0.0746,-1.66114 7.2e-4,-0.804544 0.0387,-1.41929 0.11278,-1.816823 0.0616,-0.33047 0.17516,-0.807601 0.25264,-1.060309 0.0776,-0.252708 0.16708,-0.523083 0.19913,-0.600844 0.032,-0.07774 0.18968,-0.403016 0.35029,-0.722802 0.16063,-0.319786 0.4326,-0.765121 0.6044,-0.989625 0.17179,-0.224504 0.41862,-0.504545 0.54853,-0.622333 0.12989,-0.117828 0.37211,-0.318673 0.53824,-0.446421 0.1661,-0.127748 0.52307,-0.341528 0.79326,-0.47504 0.27016,-0.133512 0.53795,-0.242776 0.59505,-0.242776 0.0571,0 0.12144,-0.02842 0.14289,-0.06327 0.0214,-0.03472 0.17446,-0.08566 0.33993,-0.112866 0.16547,-0.02734 0.75881,-0.06421 1.31854,-0.08191 0.6608,-0.02091 1.04378,-0.0067 1.09212,0.04223 0.0409,0.04102 0.14369,0.07439 0.22838,0.07439 0.0847,0 0.27712,0.05094 0.42765,0.1134 0.15054,0.06233 0.41685,0.178002 0.5918,0.257024 0.17496,0.07895 0.50895,0.272895 0.74221,0.430844 0.23327,0.157963 0.63281,0.495591 0.88783,0.750282 0.25504,0.254692 0.63176,0.701649 0.83716,0.993231 0.20539,0.291582 0.5281,0.836849 0.71711,1.211689 0.189,0.374853 0.43941,0.972106 0.55641,1.327213 0.11703,0.35512 0.26581,0.891367 0.3306,1.191662 0.0648,0.300309 0.14439,0.720952 0.17686,0.934772 0.0325,0.213834 0.08,0.754585 0.1056,1.201676 0.0277,0.485188 0.0135,1.126368 -0.037,1.590456 -0.046,0.427668 -0.14924,1.046019 -0.22952,1.374143 -0.0803,0.328123 -0.25658,0.860899 -0.39182,1.183954 -0.13523,0.323043 -0.37433,0.786194 -0.53134,1.02921 -0.15701,0.24303 -0.42858,0.609437 -0.60349,0.81425 -0.1749,0.204826 -0.51225,0.518418 -0.74965,0.696876 -0.2374,0.178459 -0.62269,0.421368 -0.85622,0.539799 -0.23353,0.1185 -0.61544,0.277306 -0.84871,0.353044 -0.32063,0.104161 -0.68283,0.144262 -1.48443,0.164584 -0.8975,0.02279 -1.12904,0.0053 -1.50804,-0.109389 z m 2.68656,-3.50787 c 0.2007,-0.101738 0.53759,-0.34823 0.74866,-0.547841 0.21106,-0.199612 0.46045,-0.493834 0.55421,-0.653821 0.0937,-0.159973 0.24535,-0.510322 0.33687,-0.778539 0.0916,-0.268217 0.19933,-0.678526 0.23958,-0.911797 0.0402,-0.23327 0.078,-0.591983 0.084,-0.797171 0.007,-0.205175 -0.0241,-0.634598 -0.0669,-0.954277 -0.0428,-0.319665 -0.11151,-0.724356 -0.15298,-0.899317 -0.0414,-0.174945 -0.13706,-0.50894 -0.21254,-0.742212 -0.0755,-0.233257 -0.23586,-0.614973 -0.35635,-0.848243 -0.12052,-0.233258 -0.29039,-0.535443 -0.37752,-0.671516 -0.0872,-0.136072 -0.29303,-0.385576 -0.45753,-0.554463 -0.16448,-0.168888 -0.46439,-0.412803 -0.66645,-0.542065 -0.20205,-0.129222 -0.56905,-0.301206 -0.81557,-0.382132 -0.24651,-0.08097 -0.56224,-0.146595 -0.70161,-0.145911 -0.13937,6.97e-4 -0.46433,0.04598 -0.72213,0.100533 -0.2578,0.05469 -0.63779,0.185027 -0.84442,0.289731 -0.20664,0.104695 -0.55238,0.359009 -0.76831,0.565094 -0.22608,0.215792 -0.47846,0.549586 -0.59507,0.787025 -0.11139,0.226756 -0.23067,0.46752 -0.26508,0.53504 -0.0344,0.06755 -0.0626,0.18043 -0.0626,0.250938 0,0.07051 -0.0283,0.158406 -0.0627,0.195349 -0.0345,0.037 -0.0862,0.258004 -0.11487,0.491274 -0.0286,0.233258 -0.0619,0.692963 -0.0739,1.021569 -0.0121,0.328593 -0.002,0.629611 0.0223,0.668928 0.0242,0.03927 0.0533,0.183994 0.0644,0.321487 0.0104,0.137494 0.0572,0.424947 0.10201,0.638767 0.0449,0.213834 0.12225,0.516019 0.17182,0.671528 0.0496,0.15551 0.15783,0.454009 0.24059,0.663325 0.0828,0.209317 0.29161,0.598767 0.46412,0.865456 0.17252,0.266676 0.46553,0.630403 0.65115,0.808284 0.18563,0.177869 0.57065,0.438647 0.85564,0.579505 0.39431,0.194893 0.63926,0.265777 1.02497,0.296596 0.29601,0.02373 0.6907,0.0041 0.94894,-0.04786 0.24319,-0.04866 0.60638,-0.171595 0.80707,-0.273298 z M 34.78685,91.338825 C 34.394289,91.039106 33.331257,90.221317 32.424555,89.521519 31.517852,88.821719 30.4656,88.01058 30.086215,87.718998 29.706838,87.427416 28.972649,86.863971 28.454698,86.466906 27.936745,86.069842 27.290299,85.570605 27.018154,85.357523 26.746009,85.144412 26.358702,84.8533 26.157463,84.710579 25.956232,84.56787 25.651888,84.425002 25.481144,84.393113 c -0.170743,-0.0319 -0.430173,-0.03096 -0.576516,0.0014 l -0.266066,0.06006 0.04701,-0.364973 c 0.02585,-0.200724 0.153602,-1.048861 0.283894,-1.884732 0.130294,-0.835872 0.262835,-1.689531 0.294544,-1.897025 l 0.05766,-0.377265 1.449084,-0.492441 c 0.796995,-0.270844 1.608127,-0.54138 1.802517,-0.601206 0.19439,-0.05979 0.40867,-0.13764 0.476175,-0.172935 0.06751,-0.03525 0.184917,-0.06421 0.260906,-0.06421 0.07599,0 0.157823,-0.03177 0.181849,-0.07064 0.02402,-0.03888 0.119451,-0.07064 0.212062,-0.07064 0.0926,0 0.188033,-0.03177 0.21206,-0.07064 0.02402,-0.03888 0.105854,-0.07065 0.181848,-0.07065 0.07599,0 0.193394,-0.02748 0.260907,-0.06126 0.06751,-0.03365 0.234072,-0.09799 0.370144,-0.142989 0.136074,-0.04504 1.678816,-0.558941 3.428318,-1.142119 1.749504,-0.58319 3.244532,-1.08744 3.322288,-1.120576 0.07776,-0.03311 0.232549,-0.09706 0.343984,-0.141944 0.198659,-0.08017 0.201649,-0.07788 0.153056,0.114884 -0.02722,0.108171 -0.07962,0.419289 -0.116354,0.691434 -0.03673,0.272144 -0.09906,0.701568 -0.138486,0.954262 -0.03941,0.252709 -0.0941,0.663338 -0.12158,0.912495 l -0.04987,0.453015 -1.127121,0.379584 c -0.619917,0.208768 -1.142145,0.394599 -1.160503,0.41295 -0.01835,0.01836 -0.06043,0.216246 -0.09348,0.439772 -0.03306,0.223513 -0.0906,0.613151 -0.127882,0.865845 -0.03728,0.252708 -0.08602,0.586703 -0.108322,0.742226 -0.0223,0.155509 -0.10095,0.66445 -0.174759,1.130978 -0.0738,0.466542 -0.216683,1.404907 -0.317491,2.085269 -0.100799,0.680362 -0.213757,1.40933 -0.251009,1.61992 -0.03726,0.210589 -0.06772,0.469115 -0.06772,0.574491 0,0.163512 0.140025,0.296729 0.95489,0.908539 l 0.954882,0.716944 -0.04378,0.299022 c -0.02409,0.164463 -0.119787,0.751152 -0.212676,1.303767 -0.09289,0.552613 -0.168885,1.133124 -0.168885,1.29004 0,0.156903 -0.02387,0.283994 -0.05302,0.282413 -0.02915,-0.0014 -0.374202,-0.248111 -0.766755,-0.547829 z m -2.901326,-6.146879 c 0.0241,-0.14579 0.04416,-0.398392 0.04459,-0.561327 7.07e-4,-0.162936 0.03258,-0.315898 0.07146,-0.339933 0.03888,-0.02399 0.07068,-0.170871 0.07068,-0.326314 0,-0.155429 0.02912,-0.415978 0.06468,-0.578981 0.03557,-0.163017 0.102214,-0.56677 0.148083,-0.897226 0.04587,-0.330455 0.09483,-0.680362 0.108797,-0.777561 0.01396,-0.09718 0.05765,-0.3802 0.09707,-0.6289 0.03942,-0.2487 0.05691,-0.476099 0.03884,-0.505322 -0.01806,-0.02922 -1.146253,0.317412 -2.507096,0.770282 -1.360846,0.452882 -2.473451,0.855214 -2.472461,0.894102 9.89e-4,0.03888 0.247496,0.250777 0.547788,0.470884 0.300293,0.220107 1.24308,0.927869 2.095084,1.572789 0.851998,0.64492 1.571498,1.172574 1.598875,1.172574 0.02739,0 0.0695,-0.119302 0.09359,-0.265067 z M 143.16368,73.104476 c -0.13325,-0.262426 -0.335,-0.652091 -0.44822,-0.865925 -0.11325,-0.21382 -0.46964,-0.897721 -0.79207,-1.519759 -0.32241,-0.622051 -0.76104,-1.464987 -0.97473,-1.873204 -0.2137,-0.408218 -0.64311,-1.235256 -0.95424,-1.837869 -0.31114,-0.6026 -0.65293,-1.254692 -0.75952,-1.449075 -0.10653,-0.194398 -0.5847,-1.116865 -1.06241,-2.049921 -0.47772,-0.93307 -0.91713,-1.752909 -0.97645,-1.821863 -0.0642,-0.07466 -0.0814,-0.148406 -0.0424,-0.182333 0.0361,-0.03137 1.11519,-0.624947 2.39816,-1.319143 1.28297,-0.694209 2.5733,-1.391475 2.86739,-1.549504 0.29407,-0.158016 1.27747,-0.68492 2.1853,-1.170898 1.39758,-0.748124 1.71925,-0.951114 2.09839,-1.324063 0.24627,-0.242279 0.44776,-0.488794 0.44776,-0.547828 0,-0.05898 0.0303,-0.107372 0.0674,-0.107372 0.037,0 0.23956,0.341944 0.45009,0.759894 0.21053,0.417935 0.53398,1.046165 0.71879,1.396059 0.18482,0.349906 0.63825,1.224651 1.00765,1.943888 0.36942,0.719249 0.69524,1.339517 0.72406,1.378405 0.0289,0.03888 0.45849,0.865912 0.95479,1.837856 0.49629,0.971943 0.92576,1.798982 0.95435,1.837855 0.0285,0.03888 0.37437,0.696314 0.76838,1.460966 0.39402,0.764651 0.71638,1.425375 0.71638,1.468272 0,0.0429 -0.0875,0.11595 -0.19438,0.162331 -0.10699,0.04638 -0.30573,0.151421 -0.4418,0.233392 -0.13607,0.08203 -0.52454,0.296742 -0.86323,0.477252 -0.39719,0.211663 -0.6326,0.301019 -0.6631,0.251689 -0.026,-0.04209 -0.17441,-0.31933 -0.32979,-0.616113 -0.15538,-0.296782 -0.49317,-0.953137 -0.75064,-1.458552 -0.25747,-0.505403 -0.49199,-0.929531 -0.52114,-0.94248 -0.0291,-0.01341 -0.053,-0.08191 -0.053,-0.153164 0,-0.07131 -0.0239,-0.140188 -0.053,-0.15315 -0.0291,-0.0134 -0.18497,-0.278043 -0.34628,-0.589062 -0.16129,-0.311019 -0.54702,-1.05854 -0.85715,-1.66114 -0.31013,-0.602613 -0.66766,-1.286502 -0.7945,-1.519772 -0.12681,-0.233272 -0.35345,-0.671636 -0.50356,-0.974156 -0.15012,-0.30252 -0.31848,-0.56752 -0.37413,-0.588874 -0.0556,-0.02132 -0.19086,0.02359 -0.30043,0.1 -0.10954,0.07641 -0.47631,0.286649 -0.81491,0.467318 -0.33862,0.180671 -0.63559,0.360725 -0.65995,0.400122 -0.0245,0.03941 -0.0134,0.11005 0.0248,0.15689 0.0379,0.04691 0.21126,0.355644 0.38512,0.686099 0.17386,0.330469 0.61157,1.173405 0.97272,1.873204 0.36113,0.699799 0.78432,1.510939 0.94043,1.802521 0.15608,0.291582 0.40146,0.760831 0.54525,1.042775 l 0.26146,0.512614 -0.22017,0.130965 c -0.12105,0.07198 -0.39514,0.22681 -0.60897,0.344008 -0.21382,0.117159 -0.60184,0.328271 -0.86222,0.469009 -0.35118,0.189799 -0.48762,0.233284 -0.52829,0.168337 -0.0301,-0.04813 -0.21765,-0.40567 -0.4167,-0.79445 -0.19905,-0.38878 -0.58531,-1.136287 -0.85838,-1.66114 -0.27307,-0.524853 -0.77487,-1.495027 -1.11511,-2.155953 -0.34025,-0.660925 -0.65853,-1.244208 -0.7073,-1.296206 -0.0735,-0.07829 -0.17242,-0.04933 -0.5748,0.167748 -0.26737,0.144236 -0.68493,0.371233 -0.92791,0.504437 -0.24299,0.133244 -0.4418,0.26685 -0.4418,0.297025 0,0.03016 0.17783,0.386461 0.39518,0.791768 0.21733,0.405296 0.73069,1.388996 1.1408,2.185994 0.4101,0.796983 0.90509,1.75126 1.09997,2.120603 0.19488,0.369344 0.6073,1.164572 0.9165,1.767172 0.30918,0.602601 0.70198,1.353352 0.87288,1.668325 0.17088,0.31496 0.31068,0.590041 0.31068,0.611301 0,0.02132 -0.48079,0.296353 -1.06841,0.61134 -0.58763,0.314987 -1.08027,0.572695 -1.09474,0.572695 -0.0145,0 -0.1354,-0.214706 -0.26869,-0.477132 z M 39.10209,72.667935 c -0.037,-0.03606 -0.353431,-0.214035 -0.703337,-0.395658 -0.349894,-0.181621 -0.986082,-0.51402 -1.413737,-0.738673 -0.427657,-0.224665 -1.111553,-0.583244 -1.51977,-0.796863 -0.408217,-0.213619 -1.21935,-0.637386 -1.802518,-0.941716 -0.583168,-0.30433 -1.410204,-0.737789 -1.837861,-0.963271 -0.427656,-0.225469 -1.079743,-0.557145 -1.449082,-0.737051 -0.369339,-0.179907 -0.726761,-0.354933 -0.794267,-0.388942 -0.06751,-0.03404 -0.3615,-0.06179 -0.65331,-0.06179 h -0.530561 l 0.830026,-1.654369 c 0.465225,-0.927279 0.873473,-1.657347 0.928882,-1.661141 0.05438,-0.0041 0.356561,0.13244 0.671527,0.302682 0.314967,0.170187 1.017992,0.540495 1.562281,0.822922 0.54429,0.282413 1.419041,0.74323 1.94389,1.024035 0.524852,0.280805 1.52684,0.805295 2.22664,1.165536 0.699801,0.360243 1.408985,0.734223 1.575983,0.83106 0.166983,0.09678 0.312305,0.164262 0.322935,0.149812 0.01078,-0.01448 0.815617,-1.616715 1.788875,-3.560604 0.973244,-1.943888 1.886863,-3.766743 2.030282,-4.050779 l 0.260724,-0.516421 0.721662,0.384933 c 0.396917,0.211716 0.888674,0.471301 1.092776,0.57685 0.204115,0.105494 0.371112,0.226568 0.371112,0.268928 0,0.04236 -0.823821,1.716958 -1.83071,3.721328 -1.006891,2.004371 -2.233474,4.439546 -2.725752,5.41149 -0.49228,0.971944 -0.918553,1.791033 -0.947293,1.820188 -0.02869,0.02909 -0.08244,0.02359 -0.119437,-0.01207 z m 4.141852,-17.341238 c -2.071208,-1.992481 -3.873836,-3.689291 -4.005847,-3.770672 -0.132037,-0.08137 -0.358954,-0.183203 -0.504329,-0.226247 -0.145375,-0.04303 -0.350912,-0.09612 -0.456742,-0.117962 l -0.192427,-0.03968 0.23882,-0.228874 c 0.131368,-0.125872 1.231689,-1.310403 2.445202,-2.63224 1.213498,-1.321849 2.687655,-2.927628 3.275886,-3.568406 0.58823,-0.640791 1.341434,-1.451916 1.673781,-1.80252 0.332345,-0.350603 0.837774,-0.901072 1.123163,-1.223244 0.285389,-0.322186 0.541837,-0.576649 0.569879,-0.565497 0.02802,0.01078 0.441555,0.393325 0.918902,0.849264 l 0.867922,0.828981 -0.274893,0.336702 c -0.151193,0.185188 -0.593391,0.670993 -0.982681,1.079572 -0.38929,0.40858 -0.848968,0.901904 -1.021529,1.096287 -0.172547,0.194397 -0.665174,0.73311 -1.094719,1.197159 -0.429557,0.464035 -1.003672,1.085536 -1.275817,1.381126 -0.272145,0.29559 -0.828794,0.89858 -1.237012,1.339987 -0.408217,0.441421 -0.742211,0.822213 -0.742211,0.84622 0,0.02399 0.469008,0.50067 1.042265,1.059236 l 1.042253,1.015577 0.477399,-0.521488 c 0.26256,-0.28681 0.716006,-0.777614 1.007655,-1.090657 0.291648,-0.313056 0.832453,-0.900644 1.201796,-1.305752 0.36933,-0.405107 0.849383,-0.928284 1.066756,-1.16264 0.217373,-0.234344 0.507601,-0.551622 0.644948,-0.70504 l 0.249717,-0.278969 0.891396,0.844465 c 0.490281,0.46445 0.891903,0.871648 0.892493,0.904906 7.1e-4,0.03324 -0.456984,0.558096 -1.016864,1.166327 -0.559879,0.608231 -1.577467,1.710256 -2.261314,2.448928 -0.683847,0.738687 -1.24366,1.380175 -1.244022,1.425551 -7.1e-4,0.04531 0.607065,0.668793 1.34984,1.385389 l 1.350536,1.302895 -0.166528,0.173754 c -0.09155,0.09557 -0.577654,0.625215 -1.080175,1.177011 -0.50252,0.551796 -0.934825,1.003257 -0.960684,1.003257 -0.02587,0 -1.741622,-1.630215 -3.812815,-3.622709 z m 91.112148,2.119196 c -0.21396,-0.203325 -0.72729,-0.687775 -1.14074,-1.076555 l -0.75173,-0.706878 0.62928,-0.848243 c 0.34609,-0.466529 0.89887,-1.214049 1.22839,-1.661141 0.32951,-0.44709 0.91722,-1.242319 1.306,-1.767172 0.38878,-0.524852 0.90135,-1.218672 1.13906,-1.54185 0.2377,-0.323163 0.41924,-0.600509 0.40342,-0.616327 -0.0158,-0.01582 -0.8223,0.158686 -1.79221,0.387776 -0.9699,0.229088 -2.86089,0.673672 -4.20217,0.987962 -1.34129,0.314289 -2.51027,0.571193 -2.59775,0.570898 -0.0875,0 -0.15893,-0.0244 -0.15879,-0.05348 0,-0.02909 0.0807,-0.705094 0.17902,-1.502091 0.0983,-0.796998 0.20799,-1.687655 0.24369,-1.979237 0.0357,-0.291582 0.0817,-0.625576 0.10235,-0.742212 0.0206,-0.116622 0.10212,-0.768726 0.18109,-1.449089 0.0789,-0.680362 0.19123,-1.602829 0.24938,-2.04992 0.0582,-0.447092 0.1193,-0.916274 0.13601,-1.042627 0.0166,-0.126409 -7.1e-4,-0.229733 -0.0385,-0.229733 -0.0378,0 -0.28231,0.215175 -0.54338,0.478191 -0.26108,0.263002 -1.2059,1.177507 -2.09958,2.032253 -0.8937,0.854731 -1.94352,1.861488 -2.33291,2.237239 l -0.70802,0.68319 -0.24716,-0.21618 c -0.13594,-0.118901 -0.66969,-0.613659 -1.18611,-1.099451 l -0.93894,-0.883283 0.87596,-0.856101 c 0.48176,-0.470843 2.22169,-2.160268 3.86653,-3.754263 2.46597,-2.389718 3.0187,-2.960158 3.15071,-3.251594 0.0881,-0.194383 0.18154,-0.471796 0.20776,-0.616474 l 0.0478,-0.263043 0.71706,0.647266 c 0.39438,0.355979 1.10901,1.024086 1.58808,1.484676 0.78141,0.751301 0.86689,0.857198 0.83083,1.029531 -0.0221,0.105633 -0.11997,0.875979 -0.21749,1.711851 -0.0975,0.835871 -0.19367,1.662909 -0.21367,1.837868 -0.0199,0.174947 -0.10003,0.874746 -0.17771,1.555109 -0.0778,0.680362 -0.17716,1.516045 -0.22095,1.857064 -0.0438,0.341033 -0.0622,0.637533 -0.0408,0.658887 0.0213,0.02132 0.62241,-0.09034 1.33563,-0.248216 0.71324,-0.157883 1.77394,-0.396865 2.3571,-0.531087 0.58316,-0.134196 1.58515,-0.357681 2.22664,-0.496622 0.64148,-0.138941 1.27231,-0.281742 1.40186,-0.31736 0.22584,-0.06206 0.25639,-0.04504 0.74221,0.413326 0.27869,0.262935 0.88045,0.820992 1.33727,1.240134 0.4568,0.419142 0.83056,0.790764 0.83056,0.825818 0,0.03512 -0.21586,0.341622 -0.47971,0.681246 -0.26384,0.339625 -0.77842,1.015108 -1.14351,1.501086 -0.36511,0.485966 -0.90765,1.201676 -1.20566,1.590457 -0.298,0.388781 -1.01225,1.327145 -1.58721,2.085255 -0.57496,0.758124 -1.43086,1.893929 -1.90201,2.524009 -0.47115,0.630094 -0.88843,1.146341 -0.9273,1.147239 -0.0388,9.25e-4 -0.24574,-0.164718 -0.4597,-0.368043 z M 56.221171,47.483571 c -0.02293,-0.633485 -0.05844,-2.424143 -0.07909,-3.979264 -0.02064,-1.555107 -0.05589,-3.734035 -0.07842,-4.842052 -0.02252,-1.108013 -0.07184,-2.136674 -0.109656,-2.285922 -0.04262,-0.168445 -0.190026,-0.392642 -0.388565,-0.591167 -0.175898,-0.175898 -0.29319,-0.343566 -0.260657,-0.372601 0.03257,-0.02908 0.234102,-0.144276 0.447936,-0.256099 0.21382,-0.1118 0.554249,-0.307145 0.756488,-0.434035 0.202239,-0.126944 0.383739,-0.230697 0.403338,-0.230697 0.01957,0 0.204021,-0.100139 0.409853,-0.222426 0.205817,-0.122387 0.549156,-0.318298 0.76299,-0.435483 0.213819,-0.117159 0.5489,-0.314464 0.744611,-0.438445 0.304946,-0.193164 0.375724,-0.212856 0.494812,-0.137627 0.07641,0.04825 0.425255,0.271876 0.775148,0.496876 0.349906,0.225013 0.905509,0.586287 1.234665,0.802842 0.329156,0.216541 0.657077,0.425537 0.7287,0.46441 0.07158,0.03888 0.788378,0.498727 1.592815,1.021891 0.804438,0.523163 1.812494,1.178713 2.240162,1.456782 0.427654,0.278071 1.599048,1.034905 2.60311,1.681876 1.004048,0.64697 1.861756,1.176313 1.90602,1.176313 0.04919,0 0.04021,0.03847 -0.02306,0.0988 -0.05697,0.05429 -0.687707,0.435643 -1.401716,0.84736 -0.714021,0.411715 -1.334303,0.727305 -1.378405,0.701327 -0.04411,-0.02601 -0.486769,-0.311864 -0.983726,-0.635295 -0.496958,-0.323432 -0.930979,-0.588071 -0.964491,-0.588071 -0.03351,0 -0.406247,0.202106 -0.828285,0.44913 -0.422025,0.246997 -1.451233,0.840442 -2.287105,1.318753 -0.835871,0.478312 -1.949196,1.117721 -2.474049,1.420926 -0.524839,0.303204 -0.989424,0.581461 -1.0324,0.618352 -0.05389,0.04625 -0.06756,0.436808 -0.04423,1.257868 l 0.03392,1.190778 -1.228137,0.701006 c -0.675496,0.385563 -1.296273,0.744812 -1.379544,0.798338 l -0.151381,0.09732 z m 4.814478,-6.985284 c 1.157105,-0.661916 2.112587,-1.24248 2.123297,-1.290107 0.01078,-0.04758 -0.164235,-0.196032 -0.388779,-0.329759 -0.224532,-0.13378 -0.964907,-0.606515 -1.645269,-1.05064 -0.680362,-0.444116 -1.47118,-0.964666 -1.757373,-1.156757 -0.286194,-0.192092 -0.53811,-0.331501 -0.559813,-0.309786 -0.02171,0.02171 -0.03418,0.444933 -0.02775,0.94051 0.0067,0.495576 0.02788,1.378175 0.04758,1.961351 0.01971,0.583164 0.0358,1.370444 0.03566,1.749492 0,0.379061 0.01528,0.689209 0.03418,0.689209 0.01891,0 0.981167,-0.541582 2.138285,-1.203513 z m 51.301961,1.027561 c -0.31104,-0.05027 -0.70865,-0.12882 -0.8836,-0.174598 -0.17494,-0.04584 -0.39761,-0.09947 -0.4948,-0.119168 -0.0971,-0.01971 -0.24034,-0.06086 -0.31809,-0.09142 -0.0778,-0.03057 -0.26862,-0.09477 -0.42413,-0.142816 -0.15551,-0.04799 -0.63642,-0.255268 -1.06871,-0.46063 -0.43228,-0.205362 -1.06363,-0.558151 -1.40303,-0.783982 -0.3394,-0.225831 -0.85796,-0.635281 -1.15235,-0.909893 -0.29441,-0.274611 -0.70478,-0.728203 -0.91197,-1.007999 -0.20717,-0.279799 -0.37667,-0.529358 -0.37667,-0.554585 0,-0.0252 -0.0585,-0.130295 -0.13016,-0.233485 -0.0715,-0.103222 -0.22794,-0.426207 -0.34748,-0.717789 -0.11958,-0.291581 -0.26775,-0.775335 -0.32935,-1.075001 -0.0615,-0.299651 -0.11197,-0.828378 -0.11197,-1.174933 0,-0.430804 0.0532,-0.839947 0.16829,-1.293552 0.0926,-0.364893 0.24114,-0.822253 0.3302,-1.016341 0.089,-0.194102 0.30601,-0.570898 0.48216,-0.837305 0.17614,-0.266422 0.52393,-0.668232 0.77288,-0.892909 0.24895,-0.224693 0.6825,-0.540042 0.96345,-0.700792 0.28096,-0.160737 0.69907,-0.35949 0.92917,-0.441675 0.23008,-0.08217 0.52968,-0.179478 0.66575,-0.216221 0.13607,-0.03673 0.39054,-0.09585 0.56548,-0.131367 0.17496,-0.03553 0.70566,-0.08499 1.17933,-0.110049 0.54392,-0.02869 1.07784,-0.01421 1.44909,0.03954 0.32331,0.04678 0.79694,0.129625 1.05252,0.184103 0.25558,0.05456 0.76452,0.196903 1.13099,0.316488 0.36648,0.119571 0.98441,0.369396 1.37318,0.555147 0.38878,0.185764 0.97725,0.512534 1.30772,0.726167 0.33045,0.213632 0.87767,0.650656 1.21603,0.971166 0.33837,0.32051 0.77202,0.795416 0.96368,1.055321 0.19165,0.259921 0.45972,0.695242 0.59571,0.967387 0.13599,0.272145 0.30048,0.652065 0.36552,0.844263 0.065,0.192199 0.16426,0.589813 0.22049,0.883579 0.0562,0.293781 0.10212,0.724987 0.10212,0.958259 -5e-5,0.23327 -0.0459,0.646782 -0.10189,0.918927 -0.056,0.272145 -0.13379,0.622051 -0.17291,0.77756 -0.0392,0.15551 -0.2012,0.537224 -0.36026,0.848243 -0.15905,0.311018 -0.44529,0.761125 -0.63608,1.000213 -0.19081,0.239103 -0.54312,0.585712 -0.78295,0.770256 -0.23982,0.184531 -0.69925,0.472078 -1.02098,0.638995 -0.32172,0.16693 -0.75669,0.353431 -0.96662,0.414464 -0.20993,0.06099 -0.6508,0.15831 -0.97974,0.216192 -0.33134,0.05832 -0.97638,0.102145 -1.44633,0.09839 -0.46652,-0.0041 -1.1027,-0.04799 -1.41373,-0.09812 z m 1.89881,-2.700698 c 0.0271,-0.02708 0.10386,-0.05683 0.17082,-0.06622 0.0669,-0.0094 0.2489,-0.05697 0.40441,-0.105761 0.15551,-0.04879 0.44179,-0.189195 0.63618,-0.311875 0.19439,-0.122656 0.49738,-0.378967 0.67331,-0.569543 0.17592,-0.190576 0.40266,-0.521462 0.50387,-0.735295 0.10119,-0.21382 0.21969,-0.477735 0.2633,-0.586488 0.0436,-0.108716 0.0794,-0.512815 0.0794,-0.897936 0,-0.385107 -0.0354,-0.789183 -0.0788,-0.897922 -0.0434,-0.108717 -0.17784,-0.399316 -0.29894,-0.645711 -0.14408,-0.293124 -0.39354,-0.619263 -0.72164,-0.943419 -0.28898,-0.285509 -0.75385,-0.642747 -1.09713,-0.843109 -0.32761,-0.191207 -0.84567,-0.444358 -1.15123,-0.562534 -0.30557,-0.118231 -0.84633,-0.276261 -1.20169,-0.351274 -0.35535,-0.07507 -0.90058,-0.136434 -1.2116,-0.136461 -0.31102,-4e-5 -0.76665,0.04732 -1.0125,0.105367 -0.24585,0.05804 -0.62757,0.190308 -0.84824,0.294101 -0.23392,0.11005 -0.56775,0.358111 -0.80056,0.594961 -0.22397,0.227841 -0.49535,0.602654 -0.618,0.853525 -0.12025,0.245992 -0.25995,0.669934 -0.31039,0.942079 -0.07,0.377412 -0.0737,0.61374 -0.0156,0.996059 0.0437,0.288043 0.1721,0.696501 0.30196,0.960308 0.12426,0.25248 0.41891,0.669598 0.65472,0.926917 0.23579,0.257332 0.64194,0.608753 0.90256,0.780952 0.26062,0.172185 0.66469,0.407786 0.89796,0.52355 0.23327,0.115822 0.59908,0.268767 0.81289,0.340014 0.21384,0.07118 0.62736,0.183271 0.91893,0.248954 0.30306,0.06823 0.86578,0.122923 1.31361,0.127748 0.43089,0.0041 0.80558,-0.0138 0.83261,-0.04088 z M 84.451245,36.45329 c 0,-0.398499 -0.01742,-2.744425 -0.03847,-5.213165 -0.02373,-2.802495 -0.06729,-4.64208 -0.115822,-4.89716 -0.04276,-0.224692 -0.170215,-0.554411 -0.283272,-0.732695 -0.113132,-0.178298 -0.196005,-0.332802 -0.184289,-0.343365 0.01207,-0.01078 2.422882,-0.04088 5.358152,-0.06743 3.819036,-0.03459 5.477609,-0.02573 5.831682,0.0311 0.272145,0.0437 0.637694,0.127614 0.81232,0.186622 0.174625,0.05898 0.505829,0.207654 0.735989,0.330322 0.230172,0.122654 0.612146,0.414691 0.848833,0.648901 0.236698,0.234209 0.535248,0.624009 0.663461,0.866207 0.128283,0.242212 0.276666,0.592118 0.329871,0.777561 0.0532,0.185455 0.120238,0.512131 0.148846,0.725965 0.02875,0.21382 0.05297,0.595535 0.05413,0.848244 0.0011,0.252694 -0.02144,0.634411 -0.05031,0.848244 -0.02875,0.21382 -0.09818,0.524907 -0.154132,0.6913 -0.05599,0.166395 -0.185151,0.466864 -0.286924,0.667709 -0.101773,0.200857 -0.359347,0.547908 -0.572364,0.771233 -0.244117,0.255939 -0.561202,0.492534 -0.857688,0.640001 -0.258734,0.128686 -0.480363,0.238592 -0.492511,0.244262 -0.01206,0.0053 0.478056,0.67366 1.089367,1.484438 0.6113,0.810751 1.219795,1.609289 1.352205,1.774517 l 0.240743,0.300416 h -0.90599 c -0.498295,0 -1.303601,0.01823 -1.789574,0.04008 l -0.883584,0.03982 -1.199003,-1.703111 c -1.186917,-1.685952 -1.201153,-1.702627 -1.413727,-1.656716 -0.118096,0.02547 -1.28929,0.05683 -2.602614,0.0697 -1.313311,0.0134 -2.415282,0.04035 -2.448822,0.06099 -0.03351,0.02077 -0.0437,0.769504 -0.02265,1.663967 l 0.03833,1.626289 h -1.600915 -1.60098 z m 9.896288,-5.299667 c 0.21683,-0.05657 0.420191,-0.185335 0.639792,-0.404933 0.220365,-0.220389 0.351685,-0.428204 0.416261,-0.65882 0.05645,-0.201408 0.07998,-0.514853 0.05888,-0.779398 -0.01959,-0.243378 -0.100382,-0.56882 -0.179807,-0.723177 -0.0794,-0.15437 -0.23467,-0.366461 -0.345148,-0.471313 -0.110467,-0.104822 -0.325674,-0.242776 -0.47823,-0.306502 -0.244454,-0.102144 -0.662965,-0.114883 -3.527591,-0.107233 -1.787628,0.0053 -3.277561,0.02561 -3.310952,0.04625 -0.03338,0.02064 -0.05858,0.784639 -0.05603,1.697775 0.0027,0.913124 0.0193,1.698259 0.037,1.744733 0.02467,0.06421 0.799879,0.07989 3.230229,0.06502 2.160805,-0.01341 3.300886,-0.04638 3.515663,-0.102411 z"
       id="path8" /></g></svg>
