<?xml version="1.0" encoding="UTF-8" standalone="no"?>
<!-- Created with Inkscape (http://www.inkscape.org/) -->

<svg
   width="139.62122"
   height="86.329659"
   viewBox="0 0 139.62122 86.329659"
   version="1.1"
   id="svg1"
   xml:space="preserve"
   inkscape:export-filename="peugeot.svg"
   inkscape:export-xdpi="84.26667"
   inkscape:export-ydpi="84.26667"
   xmlns:inkscape="http://www.inkscape.org/namespaces/inkscape"
   xmlns:sodipodi="http://sodipodi.sourceforge.net/DTD/sodipodi-0.dtd"
   xmlns="http://www.w3.org/2000/svg"
   xmlns:svg="http://www.w3.org/2000/svg"><sodipodi:namedview
     id="namedview1"
     pagecolor="#ffffff"
     bordercolor="#000000"
     borderopacity="0.25"
     inkscape:showpageshadow="2"
     inkscape:pageopacity="0.0"
     inkscape:pagecheckerboard="0"
     inkscape:deskcolor="#d1d1d1"
     inkscape:document-units="px"
     inkscape:export-bgcolor="#ffffff00"><inkscape:page
       x="0"
       y="0"
       width="139.62122"
       height="86.329659"
       id="page2"
       margin="0"
       bleed="0" /></sodipodi:namedview><defs
     id="defs1" /><g
     inkscape:label="Camada 1"
     inkscape:groupmode="layer"
     id="layer1"
     transform="translate(-20.476453,-40.849331)"><path
       style="fill:#000000;stroke-width:0.132083"
       d="m 82.737926,127.09018 c -0.55609,-0.0688 -1.59313,-0.27272 -2.30452,-0.45318 -0.7114,-0.18046 -1.80058,-0.57932 -2.42039,-0.88636 -0.8024,-0.3975 -1.37831,-0.80667 -1.99985,-1.42088 -0.56784,-0.56114 -1.01917,-1.16268 -1.29136,-1.72116 -0.23014,-0.4722 -0.50618,-1.2746 -0.61342,-1.78312 -0.15462,-0.73322 -0.19545,-2.12059 -0.19727,-6.7032 l -0.002,-5.77862 h 3.76436 3.76436 v 5.21077 c 0,3.34641 0.053,5.46119 0.14814,5.9107 0.0815,0.38496 0.23686,0.87825 0.34529,1.09618 0.10843,0.21794 0.35381,0.56515 0.54529,0.77157 0.19148,0.20643 0.55618,0.48069 0.81044,0.60947 0.25426,0.12877 0.78265,0.30956 1.1742,0.40175 0.43668,0.10282 1.10052,0.13888 1.71708,0.0933 0.55284,-0.0409 1.28419,-0.17216 1.62523,-0.2917 0.34103,-0.11954 0.88398,-0.44965 1.20656,-0.73359 0.32257,-0.28394 0.69735,-0.76983 0.83284,-1.07976 0.22569,-0.51626 0.24966,-1.04254 0.28588,-6.27609 l 0.0395,-5.71258 h 3.769252 3.76925 l -0.0556,6.04278 c -0.047,5.11557 -0.0891,6.15967 -0.27446,6.80448 -0.1204,0.41894 -0.36642,1.05279 -0.54671,1.40857 -0.18028,0.35578 -0.65612,1.00151 -1.05741,1.43495 -0.4013,0.43345 -1.10625,1.03347 -1.56657,1.33337 -0.46032,0.29991 -1.32399,0.72304 -1.91928,0.9403 -0.595282,0.21725 -1.600732,0.48871 -2.234332,0.60325 -0.69635,0.12588 -2.17069,0.22717 -3.7276,0.25607 -1.41659,0.0263 -3.03059,-0.008 -3.58668,-0.0772 z m 29.078654,0.0629 c -0.25426,-0.0299 -0.93779,-0.11711 -1.51895,-0.19385 -0.58117,-0.0768 -1.62132,-0.28105 -2.31145,-0.45399 -0.69013,-0.17294 -1.69889,-0.49841 -2.24169,-0.72327 -0.5428,-0.22486 -1.41558,-0.67601 -1.93952,-1.00257 -0.52394,-0.32656 -1.32801,-1.00105 -1.78683,-1.49888 -0.45883,-0.49782 -1.0316,-1.23398 -1.27284,-1.6359 -0.24124,-0.40192 -0.58833,-1.16125 -0.771312,-1.68741 -0.22,-0.63261 -0.3555,-1.36341 -0.40003,-2.15752 -0.0464,-0.8281 -0.002,-1.50694 0.14273,-2.18684 0.11553,-0.54229 0.409622,-1.40413 0.653542,-1.9152 0.24391,-0.51108 0.71778,-1.26433 1.05304,-1.6739 0.33527,-0.40956 0.98322,-1.02557 1.4399,-1.36891 0.45667,-0.34334 1.2761,-0.84772 1.82094,-1.12084 0.54484,-0.27313 1.42251,-0.65177 1.95038,-0.84142 0.52786,-0.18964 1.56802,-0.47299 2.31145,-0.62966 1.00887,-0.21261 1.85418,-0.2885 3.33293,-0.29925 1.55252,-0.0113 2.14453,0.0361 2.73582,0.21901 0.41502,0.12838 0.8608,0.27024 0.99062,0.31526 0.12982,0.045 -0.27507,-0.44637 -0.89977,-1.09195 -0.6247,-0.64559 -2.06605,-2.22294 -3.20301,-3.50522 -1.13695,-1.28229 -2.06719,-2.36702 -2.06719,-2.41051 0,-0.0435 1.97629,-0.0759 4.39175,-0.072 l 4.39175,0.007 3.43415,4.36608 c 1.88879,2.40135 3.72109,4.79053 4.07178,5.3093 0.35069,0.51877 0.86387,1.38899 1.14039,1.93383 0.27653,0.54485 0.63579,1.40669 0.79836,1.9152 0.23013,0.71983 0.29666,1.24634 0.3004,2.37749 0.003,0.95624 -0.0719,1.74641 -0.21955,2.31145 -0.1234,0.4722 -0.43871,1.29278 -0.70069,1.82351 -0.29816,0.60401 -0.81676,1.32949 -1.38639,1.93945 -0.50053,0.53596 -1.29331,1.21652 -1.76174,1.51236 -0.46842,0.29583 -1.18491,0.68525 -1.59219,0.86537 -0.40727,0.18012 -1.22423,0.4803 -1.81546,0.66707 -0.59123,0.18676 -1.75969,0.45969 -2.59659,0.60649 -1.00313,0.17596 -2.28676,0.28185 -3.76703,0.31073 -1.23498,0.0241 -2.45344,0.0194 -2.7077,-0.0105 z m 4.65375,-5.06383 c 0.54872,-0.14034 1.36808,-0.44213 1.82078,-0.67066 0.45271,-0.22852 1.09988,-0.69321 1.43817,-1.03264 0.33829,-0.33943 0.75942,-0.91433 0.93584,-1.27756 0.25568,-0.52641 0.32182,-0.87481 0.32599,-1.71707 0.004,-0.86065 -0.0548,-1.17918 -0.31845,-1.71708 -0.17802,-0.36323 -0.62457,-0.96225 -0.99234,-1.33117 -0.39975,-0.40098 -1.06828,-0.86824 -1.66228,-1.16181 -0.60336,-0.2982 -1.40677,-0.56468 -2.04556,-0.67849 -0.57858,-0.10308 -1.48538,-0.1895 -2.01512,-0.19203 -0.52975,-0.003 -1.42131,0.0885 -1.98125,0.20235 -0.55994,0.11383 -1.4399,0.41361 -1.95547,0.66617 -0.53524,0.26221 -1.23889,0.75423 -1.64016,1.14689 -0.39687,0.38836 -0.84815,1.00388 -1.03681,1.41413 -0.18373,0.39955 -0.35751,1.05336 -0.38619,1.45291 -0.0381,0.5307 0.0281,0.93988 0.24577,1.51844 0.20328,0.54044 0.52907,1.03433 1.02573,1.55503 0.44315,0.4646 1.0417,0.91666 1.53032,1.1558 0.44137,0.21601 1.24827,0.50855 1.79311,0.65008 0.67911,0.17641 1.45125,0.25962 2.45543,0.26461 1.03555,0.005 1.75716,-0.0675 2.46249,-0.2479 z m -79.470994,4.11859 c 0.12989,-0.19977 3.4614,-5.20051 7.40336,-11.11275 l 7.16721,-10.74953 -1.2133,-1.4377 c -0.66732,-0.79074 -1.23311,-1.49597 -1.25733,-1.56719 -0.0282,-0.083 1.64339,-0.12949 4.65557,-0.12949 h 4.6996 l 8.45516,12.6817 8.45517,12.68171 -4.44796,-0.0348 -4.44795,-0.0348 -1.10686,-1.78312 c -0.60877,-0.98072 -1.15032,-1.88764 -1.20343,-2.01538 -0.0905,-0.21758 -0.61158,-0.23428 -8.24322,-0.26417 l -8.14663,-0.0319 -0.14942,0.33021 c -0.0822,0.18161 -0.62876,1.11775 -1.21464,2.0803 l -1.06525,1.7501 h -4.28812 -4.28811 z m 23.76272,-9.08069 c -0.1638,-0.21794 -1.08639,-1.67415 -2.05021,-3.23603 -0.96382,-1.56188 -2.00475,-3.30926 -2.31319,-3.88307 l -0.5608,-1.0433 -0.34795,0.68664 c -0.19137,0.37765 -1.21689,2.12504 -2.27893,3.88308 -1.06205,1.75804 -2.0657,3.37474 -2.23035,3.59268 l -0.29935,0.39625 h 5.18929 5.1893 z m 69.678194,0.19812 v -9.24579 h 3.8304 3.8304 v 9.24579 9.2458 h -3.8304 -3.8304 z M 42.613386,89.57299 c -0.68564,-0.0609 -1.87439,-0.23738 -2.64166,-0.39225 -0.76728,-0.15487 -2.01913,-0.48356 -2.78191,-0.73042 -0.76278,-0.24687 -2.15955,-0.83158 -3.10394,-1.29936 -0.9444,-0.46779 -2.26862,-1.23109 -2.94272,-1.69624 -0.67409,-0.46515 -1.72508,-1.27448 -2.33551,-1.79851 -0.61043,-0.52404 -1.48861,-1.38007 -1.9515,-1.9023 -0.46288,-0.52224 -1.12134,-1.31729 -1.46323,-1.76679 -0.34189,-0.44949 -0.92873,-1.31133 -1.3041,-1.9152 -0.37535,-0.60386 -0.96324,-1.6923 -1.30641,-2.41876 -0.34317,-0.72645 -0.83318,-1.94672 -1.08891,-2.71171 -0.25574,-0.76499 -0.58637,-2.01998 -0.73475,-2.78886 -0.14838,-0.76888 -0.33248,-2.17423 -0.40911,-3.12301 -0.0941,-1.16502 -0.0974,-2.275 -0.0102,-3.41904 0.0711,-0.93169 0.25413,-2.34058 0.4068,-3.13085 0.15267,-0.79028 0.48412,-2.06737 0.73655,-2.83797 0.25243,-0.7706 0.75333,-2.01734 1.11312,-2.77053 0.3598,-0.75319 0.92652,-1.81804 1.25941,-2.36634 0.33288,-0.5483 0.97146,-1.47824 1.41906,-2.06653 0.4476,-0.58829 1.25648,-1.53319 1.79751,-2.09976 0.54103,-0.56657 1.5228,-1.46792 2.18172,-2.00301 0.65892,-0.53508 1.73298,-1.3099 2.38679,-1.72183 0.65381,-0.41192 1.78503,-1.03568 2.51384,-1.38612 0.72879,-0.35044 1.95579,-0.84818 2.72664,-1.10609 0.77086,-0.2579 2.00142,-0.59116 2.73458,-0.74057 0.73318,-0.14942 1.97283,-0.33734 2.7548,-0.41762 0.79577,-0.0817 2.2359,-0.11184 3.27091,-0.0685 1.01704,0.0426 2.35438,0.1627 2.97186,0.26683 0.61749,0.10413 1.62792,0.31904 2.24541,0.47757 0.61749,0.15854 1.68736,0.49891 2.37749,0.75638 0.69013,0.25746 1.72658,0.70468 2.30322,0.99381 0.57664,0.28914 1.52485,0.82118 2.10714,1.18233 0.58229,0.36115 1.29189,0.84132 1.5769,1.06705 0.47847,0.37895 0.54195,0.3959 0.82786,0.22099 0.1703,-0.10419 0.82305,-0.53757 1.45055,-0.96307 0.62749,-0.4255 1.92199,-1.14955 2.87665,-1.609 0.95466,-0.45945 2.2856,-1.01662 2.95764,-1.23815 0.67204,-0.22153 1.80983,-0.5226 2.52841,-0.66904 0.71859,-0.14644 1.8627,-0.32483 2.54247,-0.39643 0.67977,-0.0716 1.8178,-0.13122 2.52896,-0.13247 0.71116,-10e-4 1.87018,0.0608 2.57561,0.13793 0.70543,0.0771 1.87158,0.26098 2.59145,0.40857 0.71987,0.14758 1.98748,0.50234 2.81692,0.78834 0.82943,0.286 2.14756,0.84073 2.92917,1.23272 0.78161,0.39199 2.05494,1.13655 2.82963,1.65457 l 1.40851,0.94185 1.40851,-0.94185 c 0.774692,-0.51802 2.048022,-1.26258 2.829632,-1.65457 0.78161,-0.39199 2.09974,-0.94672 2.92917,-1.23272 0.82944,-0.286 2.09705,-0.64076 2.816922,-0.78834 0.71987,-0.14759 1.88602,-0.33145 2.59145,-0.40857 0.70543,-0.0771 1.85194,-0.14022 2.5478,-0.14022 0.69585,0 1.84236,0.0629 2.54779,0.13971 0.70544,0.0768 1.86206,0.25627 2.57028,0.39872 0.70823,0.14246 1.83754,0.44027 2.50958,0.6618 0.67204,0.22153 2.00298,0.7787 2.95764,1.23815 0.95466,0.45945 2.24916,1.1835 2.87665,1.609 0.6275,0.4255 1.28025,0.85888 1.45055,0.96307 0.28591,0.17491 0.34939,0.15796 0.82785,-0.22099 0.28502,-0.22573 1.02064,-0.72251 1.63472,-1.10395 0.61409,-0.38144 1.71089,-0.97744 2.43735,-1.32445 0.72646,-0.34701 1.95599,-0.84309 2.73231,-1.10239 0.77631,-0.2593 1.96505,-0.58561 2.64165,-0.72515 0.6766,-0.13953 1.80735,-0.31665 2.51278,-0.39361 0.70543,-0.077 1.86446,-0.13888 2.57561,-0.13762 0.71116,0.001 1.84919,0.0609 2.52896,0.13247 0.67977,0.0716 1.83027,0.2513 2.55667,0.39933 0.7264,0.14803 1.95142,0.48016 2.72227,0.73806 0.77085,0.25791 1.99784,0.75565 2.72665,1.10609 0.7288,0.35044 1.86002,0.9742 2.51383,1.38612 0.65381,0.41193 1.72786,1.18675 2.38678,1.72183 0.65893,0.53509 1.6407,1.43644 2.18173,2.00301 0.54103,0.56657 1.34991,1.51147 1.79751,2.09976 0.4476,0.58829 1.08618,1.51823 1.41906,2.06653 0.33288,0.5483 0.89961,1.61315 1.2594,2.36634 0.35979,0.75319 0.8607,1.99993 1.11313,2.77053 0.25243,0.7706 0.58388,2.04769 0.73655,2.83797 0.15268,0.79027 0.33573,2.19916 0.4068,3.13085 0.0873,1.14404 0.084,2.25402 -0.0101,3.41904 -0.0766,0.94878 -0.26074,2.35413 -0.40912,3.12301 -0.14838,0.76888 -0.47901,2.02387 -0.73474,2.78886 -0.25574,0.76499 -0.74575,1.98526 -1.08891,2.71171 -0.34317,0.72646 -0.93106,1.8149 -1.30642,2.41876 -0.37536,0.60387 -0.96281,1.46571 -1.30545,1.9152 -0.34264,0.4495 -0.95249,1.19587 -1.35522,1.6586 -0.40273,0.46273 -1.26718,1.31386 -1.92099,1.89141 -0.65381,0.57753 -1.806,1.46522 -2.56044,1.97264 -0.75443,0.50741 -2.09177,1.2741 -2.97186,1.70376 -0.88009,0.42965 -2.16401,0.96809 -2.85314,1.19652 -0.68914,0.22844 -1.91479,0.55551 -2.72366,0.72683 -0.80887,0.17132 -2.3025,0.37923 -3.31917,0.46201 -1.36425,0.11107 -2.30497,0.1123 -3.59095,0.005 -0.95834,-0.0802 -2.34107,-0.26784 -3.07274,-0.41695 -0.73167,-0.1491 -1.90211,-0.45387 -2.60099,-0.67726 -0.69888,-0.22339 -1.78676,-0.63811 -2.41751,-0.92159 -0.63076,-0.28349 -1.62025,-0.78167 -2.19888,-1.10707 -0.57862,-0.32539 -1.49908,-0.91236 -2.04546,-1.30437 l -0.99342,-0.71275 -0.90228,0.65297 c -0.49625,0.35914 -1.41303,0.9466 -2.0373,1.30547 -0.62427,0.35887 -1.59367,0.8615 -2.15424,1.11696 -0.56056,0.25546 -1.62488,0.66635 -2.36516,0.9131 -0.74027,0.24675 -1.97005,0.57321 -2.73282,0.72547 -0.76278,0.15226 -2.12984,0.34151 -3.03791,0.42055 -0.90807,0.079 -2.27512,0.10531 -3.0379,0.0583 -0.76278,-0.047 -1.95152,-0.17264 -2.64166,-0.2793 -0.69013,-0.10665 -1.849162,-0.34952 -2.575612,-0.53971 -0.72646,-0.19019 -1.97261,-0.60716 -2.76923,-0.92659 -0.79662,-0.31944 -1.98536,-0.8776 -2.64165,-1.24037 -0.65629,-0.36276 -1.683622,-1.01103 -2.282942,-1.44059 l -1.08968,-0.78102 -1.08969,0.78102 c -0.59932,0.42956 -1.62665,1.07783 -2.28294,1.44059 -0.65629,0.36277 -1.84503,0.92093 -2.64165,1.24037 -0.79662,0.31943 -2.04277,0.7364 -2.76923,0.92659 -0.72645,0.19019 -1.88548,0.43306 -2.57561,0.53971 -0.69013,0.10666 -1.87888,0.23234 -2.64166,0.2793 -0.76277,0.047 -2.12983,0.0207 -3.0379,-0.0583 -0.90807,-0.079 -2.27513,-0.26829 -3.0379,-0.42055 -0.76278,-0.15226 -1.99255,-0.47872 -2.73283,-0.72547 -0.74028,-0.24675 -1.8046,-0.65764 -2.36516,-0.9131 -0.56057,-0.25546 -1.52997,-0.75809 -2.15424,-1.11696 -0.62427,-0.35887 -1.54105,-0.94633 -2.0373,-1.30547 l -0.90228,-0.65297 -0.99342,0.71275 c -0.54638,0.39201 -1.46684,0.97898 -2.04546,1.30437 -0.57863,0.3254 -1.56812,0.82358 -2.19888,1.10707 -0.63075,0.28348 -1.71863,0.6982 -2.41751,0.92159 -0.69888,0.22339 -1.86081,0.52642 -2.58207,0.67341 -0.72126,0.14698 -1.99201,0.32748 -2.82388,0.40111 -0.83187,0.0736 -1.86911,0.1262 -2.30499,0.11683 -0.43587,-0.009 -1.35348,-0.0668 -2.0391,-0.1277 z m 5.08095,-5.72708 c 0.65597,-0.1064 1.72585,-0.34713 2.37749,-0.53497 0.65164,-0.18784 1.64658,-0.54027 2.21097,-0.78319 0.5644,-0.24291 1.46182,-0.69092 1.99427,-0.99556 0.53245,-0.30465 1.12276,-0.68219 1.31181,-0.83898 l 0.34371,-0.28507 -0.97328,-1.44462 c -0.5353,-0.79455 -1.30088,-2.10554 -1.70129,-2.91333 -0.40042,-0.80778 -0.96513,-2.17857 -1.25492,-3.04619 -0.28979,-0.86761 -0.65703,-2.23129 -0.81608,-3.03039 -0.20571,-1.03347 -0.30928,-2.15215 -0.35878,-3.87501 -0.0441,-1.53493 -0.01,-2.93792 0.0939,-3.8304 0.0899,-0.77457 0.36109,-2.18099 0.60264,-3.12538 0.24154,-0.94439 0.6559,-2.25137 0.9208,-2.9044 0.26489,-0.65303 0.72915,-1.66312 1.03169,-2.24464 0.30254,-0.58152 0.9824,-1.70439 1.5108,-2.49526 0.88587,-1.32591 0.94259,-1.45142 0.72798,-1.61084 -0.12801,-0.0951 -0.68266,-0.44161 -1.23256,-0.77002 -0.54989,-0.32842 -1.4849,-0.80475 -2.0778,-1.05852 -0.5929,-0.25378 -1.48033,-0.58633 -1.97206,-0.73902 -0.49173,-0.15268 -1.28416,-0.3603 -1.76096,-0.46136 -0.4768,-0.10107 -1.5076,-0.24893 -2.29066,-0.32858 -1.02942,-0.10471 -1.85666,-0.105 -2.98666,-0.001 -0.85959,0.0791 -2.15107,0.2862 -2.86994,0.46027 -0.71889,0.17407 -1.70507,0.4663 -2.19153,0.6494 -0.48645,0.1831 -1.36713,0.57629 -1.95705,0.87375 -0.58992,0.29746 -1.43587,0.78473 -1.87989,1.08282 -0.44401,0.29808 -1.28496,0.9442 -1.86876,1.4358 -0.58382,0.4916 -1.36693,1.245 -1.74026,1.67423 -0.37333,0.42922 -1.00014,1.22833 -1.39293,1.77579 -0.39279,0.54747 -0.99114,1.53165 -1.32965,2.18708 -0.33852,0.65543 -0.82027,1.80724 -1.07056,2.55957 -0.25029,0.75234 -0.5628,1.8731 -0.69446,2.49059 -0.18491,0.86716 -0.23815,1.69391 -0.23391,3.63228 0.005,2.23457 0.0434,2.67018 0.35143,3.97531 0.1903,0.80616 0.59131,2.09323 0.89117,2.86016 0.29985,0.76693 0.83406,1.87507 1.18713,2.46252 0.35307,0.58746 0.9415,1.47217 1.30761,1.96602 0.3661,0.49386 1.26075,1.47538 1.98808,2.18116 0.79708,0.77344 1.88083,1.64671 2.72801,2.19817 0.77307,0.50322 1.94989,1.15317 2.61517,1.44433 0.66529,0.29117 1.74455,0.68435 2.39836,0.87373 0.65381,0.18938 1.66424,0.42468 2.24541,0.52288 0.58116,0.0982 1.85906,0.18435 2.83978,0.19145 1.00216,0.007 2.30548,-0.0718 2.9758,-0.18053 z m 31.16759,-0.13139 c 0.50852,-0.11417 1.48923,-0.3919 2.17937,-0.61718 0.69013,-0.22527 1.94664,-0.76413 2.79225,-1.19746 0.8456,-0.43332 1.73433,-0.95221 1.97494,-1.15309 l 0.43749,-0.36523 -0.41282,-0.52122 c -0.22705,-0.28668 -0.72515,-1.02366 -1.10688,-1.63775 -0.38173,-0.61408 -1.00288,-1.77033 -1.38033,-2.56943 -0.37745,-0.7991 -0.87074,-2.01756 -1.09621,-2.70769 -0.22546,-0.69014 -0.50215,-1.65776 -0.61486,-2.15028 -0.11271,-0.49253 -0.29129,-1.50296 -0.39684,-2.24541 -0.10555,-0.74245 -0.19183,-2.21175 -0.19175,-3.26511 9e-5,-1.05336 0.0845,-2.54852 0.18752,-3.32258 0.10304,-0.77405 0.33541,-1.99252 0.51636,-2.70769 0.18096,-0.71518 0.48856,-1.74611 0.68355,-2.29095 0.195,-0.54484 0.6569,-1.61471 1.02645,-2.37749 0.36954,-0.76277 1.1413,-2.08936 1.71501,-2.94797 0.57371,-0.8586 1.02245,-1.57973 0.99721,-1.60251 -0.0252,-0.0228 -0.46197,-0.30825 -0.97049,-0.6344 -0.50852,-0.32615 -1.28512,-0.77424 -1.72578,-0.99575 -0.44066,-0.22152 -1.39325,-0.60884 -2.11687,-0.86071 -0.72362,-0.25188 -1.78957,-0.55416 -2.36878,-0.67174 -0.57922,-0.11758 -1.67134,-0.27225 -2.42694,-0.3437 -0.90625,-0.0857 -1.89524,-0.0851 -2.90582,0.002 -0.8426,0.0725 -2.15609,0.28665 -2.91887,0.47596 -0.76278,0.18932 -1.82003,0.51609 -2.34945,0.72618 -0.52942,0.21008 -1.33097,0.56793 -1.78122,0.79522 -0.45026,0.22729 -1.19098,0.6484 -1.64606,0.93581 -0.45507,0.2874 -0.82741,0.57284 -0.82741,0.6343 0,0.0615 0.35655,0.60592 0.79233,1.20992 0.43579,0.604 1.23443,1.98974 1.77477,3.07942 0.54034,1.08969 1.19214,2.64237 1.44844,3.4504 0.25631,0.80803 0.5902,2.14537 0.74199,2.97186 0.15263,0.83104 0.30988,2.38826 0.35181,3.48395 0.045,1.17562 0.0126,2.57203 -0.0796,3.43415 -0.0855,0.7991 -0.30727,2.13549 -0.49282,2.96974 -0.18555,0.83426 -0.54108,2.08244 -0.79008,2.77374 -0.24899,0.6913 -0.74225,1.85128 -1.09613,2.57774 -0.35388,0.72645 -1.09506,1.99619 -1.64705,2.82165 -0.552,0.82545 -1.00312,1.5387 -1.00248,1.58499 6.6e-4,0.0463 0.3424,0.30097 0.75947,0.56594 0.41708,0.26497 1.08523,0.66015 1.48478,0.87817 0.39955,0.21802 1.26467,0.60882 1.9225,0.86844 0.65782,0.25963 1.71202,0.5946 2.34266,0.74438 0.63065,0.14977 1.4892,0.32631 1.90791,0.39229 0.4187,0.066 1.80143,0.0968 3.07272,0.0684 1.43574,-0.032 2.66173,-0.13021 3.23603,-0.25915 z m 29.075754,0.18302 c 0.56501,-0.0786 1.58753,-0.28845 2.27226,-0.46636 0.68474,-0.17791 1.75728,-0.53304 2.38341,-0.78918 0.62614,-0.25614 1.74766,-0.83027 2.49228,-1.27583 0.74461,-0.44557 1.35385,-0.85341 1.35385,-0.90632 0,-0.0529 -0.44669,-0.75717 -0.99263,-1.56501 -0.54595,-0.80785 -1.31348,-2.13517 -1.70563,-2.94961 -0.39215,-0.81445 -0.8912,-1.9907 -1.10899,-2.6139 -0.2178,-0.6232 -0.54698,-1.81194 -0.73151,-2.64166 -0.18453,-0.82971 -0.40546,-2.16237 -0.49096,-2.96147 -0.0922,-0.86212 -0.12461,-2.25853 -0.0796,-3.43415 0.0421,-1.09933 0.19923,-2.65323 0.35305,-3.49088 0.15248,-0.8303 0.51996,-2.2557 0.81662,-3.16755 0.29665,-0.91186 0.94797,-2.46142 1.44735,-3.44347 0.49939,-0.98206 1.26446,-2.27973 1.70015,-2.88373 0.43569,-0.60401 0.79217,-1.14958 0.79217,-1.21239 0,-0.0628 -0.43093,-0.38278 -0.95763,-0.71106 -0.52669,-0.32827 -1.46283,-0.83353 -2.0803,-1.12279 -0.61747,-0.28927 -1.58392,-0.67643 -2.14765,-0.86037 -0.56374,-0.18393 -1.48502,-0.42946 -2.04729,-0.54561 -0.56227,-0.11616 -1.64614,-0.26601 -2.4086,-0.33301 -0.84625,-0.0744 -1.9268,-0.0744 -2.77374,-3e-5 -0.7631,0.067 -1.85093,0.21756 -2.41741,0.33459 -0.56647,0.11704 -1.632432,0.4225 -2.368782,0.67881 -0.73636,0.25631 -1.69937,0.64725 -2.14003,0.86877 -0.44066,0.22151 -1.21726,0.6696 -1.72577,0.99575 -0.50852,0.32615 -0.94688,0.61327 -0.97414,0.63806 -0.0273,0.0248 0.38028,0.67652 0.90563,1.44832 0.52535,0.7718 1.27204,2.0373 1.65929,2.81224 0.38726,0.77493 0.8854,1.90135 1.10697,2.50315 0.22158,0.6018 0.52771,1.58251 0.68031,2.17936 0.15259,0.59686 0.36596,1.56069 0.47414,2.14185 0.10819,0.58116 0.22966,2.03883 0.26995,3.23925 0.045,1.33942 0.0121,2.71712 -0.085,3.56624 -0.087,0.761 -0.27352,1.91858 -0.4144,2.57239 -0.14088,0.65381 -0.44164,1.75339 -0.66834,2.44353 -0.22671,0.69013 -0.72102,1.90859 -1.09847,2.70769 -0.37745,0.7991 -0.9986,1.95535 -1.38033,2.56943 -0.38173,0.61409 -0.87196,1.34114 -1.0894,1.61567 -0.21743,0.27454 -0.35752,0.56034 -0.3113,0.63511 0.0462,0.0748 0.40803,0.34323 0.80403,0.59655 0.396,0.25332 1.23905,0.72118 1.87343,1.03969 0.63439,0.31851 1.68837,0.75782 2.34218,0.97625 0.653812,0.21844 1.664242,0.49055 2.245412,0.60471 0.58116,0.11415 1.23497,0.23066 1.45291,0.25891 0.21794,0.0283 1.14977,0.0603 2.07074,0.0712 0.92098,0.0109 2.13678,-0.0445 2.70178,-0.12309 z m 30.6296,-0.0516 c 0.65597,-0.1064 1.72584,-0.3475 2.37749,-0.53579 0.65164,-0.18829 1.72913,-0.58057 2.39441,-0.87173 0.66529,-0.29117 1.84212,-0.94112 2.61518,-1.44434 0.84718,-0.55146 1.93093,-1.42472 2.728,-2.19817 0.72734,-0.70578 1.62198,-1.6873 1.98809,-2.18115 0.36611,-0.49386 0.95453,-1.37857 1.3076,-1.96602 0.35308,-0.58746 0.88729,-1.6956 1.18714,-2.46252 0.29986,-0.76693 0.70088,-2.05401 0.89116,-2.86017 0.30805,-1.30512 0.34657,-1.74074 0.35144,-3.97531 0.004,-1.93837 -0.049,-2.76511 -0.2339,-3.63228 -0.13166,-0.61748 -0.44417,-1.73825 -0.69447,-2.49058 -0.25029,-0.75234 -0.73205,-1.90415 -1.07056,-2.55958 -0.33852,-0.65543 -0.93686,-1.63961 -1.32965,-2.18708 -0.39278,-0.54746 -1.0196,-1.34657 -1.39293,-1.77579 -0.37333,-0.42923 -1.15644,-1.18263 -1.74025,-1.67423 -0.58381,-0.4916 -1.42476,-1.13771 -1.86877,-1.4358 -0.44402,-0.29809 -1.28997,-0.78536 -1.87989,-1.08282 -0.58993,-0.29746 -1.4706,-0.69065 -1.95705,-0.87375 -0.48645,-0.1831 -1.47264,-0.47533 -2.19152,-0.64939 -0.71888,-0.17407 -2.01036,-0.3812 -2.86995,-0.46028 -1.12999,-0.10395 -1.95724,-0.10366 -2.98665,0.001 -0.78308,0.0796 -1.81388,0.22752 -2.29068,0.32858 -0.47679,0.10107 -1.26922,0.30868 -1.76095,0.46137 -0.49173,0.15268 -1.37916,0.48524 -1.97206,0.73901 -0.5929,0.25377 -1.52791,0.73011 -2.07781,1.05852 -0.54989,0.32842 -1.10454,0.67492 -1.23255,0.77002 -0.21449,0.15933 -0.1538,0.29081 0.77374,1.67612 0.55357,0.82677 1.35028,2.21646 1.77046,3.08821 0.42018,0.87174 0.94743,2.14965 1.17167,2.83978 0.22424,0.69013 0.52407,1.76 0.66628,2.37749 0.14221,0.61748 0.32987,1.70816 0.41702,2.42371 0.1024,0.84075 0.13113,2.19584 0.0812,3.8304 -0.0534,1.74991 -0.15984,2.93643 -0.34525,3.85022 -0.14741,0.72645 -0.48416,1.99251 -0.74834,2.81345 -0.26418,0.82094 -0.88496,2.30687 -1.37951,3.30207 -0.49455,0.99519 -1.28894,2.3741 -1.76532,3.06423 l -0.86613,1.25479 0.34751,0.28507 c 0.19113,0.15679 0.78316,0.53433 1.31561,0.83897 0.53245,0.30465 1.42987,0.75265 1.99426,0.99557 0.5644,0.24291 1.56111,0.59624 2.21492,0.78518 0.65381,0.18893 1.66424,0.42386 2.24541,0.52205 0.58116,0.0982 1.85906,0.18436 2.83978,0.19146 1.00216,0.007 2.30547,-0.0718 2.9758,-0.18054 z M 60.986556,74.95662 c 0.37325,-0.61793 0.87327,-1.58502 1.11116,-2.14907 0.23789,-0.56406 0.58262,-1.5007 0.76607,-2.08143 0.18346,-0.58073 0.42189,-1.58198 0.52986,-2.22501 0.10796,-0.64302 0.23577,-1.67755 0.28402,-2.29896 0.0498,-0.6421 0.0191,-1.78244 -0.0713,-2.64165 -0.0875,-0.83151 -0.30162,-2.07543 -0.47592,-2.76426 -0.17431,-0.68884 -0.47424,-1.66956 -0.66651,-2.17937 -0.19228,-0.50981 -0.49497,-1.22412 -0.67266,-1.58735 -0.17768,-0.36322 -0.62862,-1.15077 -1.00209,-1.75009 -0.37347,-0.59933 -0.71879,-1.08968 -0.76737,-1.08968 -0.0486,0 -0.40326,0.49035 -0.78817,1.08968 -0.38491,0.59932 -0.95125,1.66022 -1.25853,2.35754 -0.30728,0.69733 -0.71081,1.7926 -0.89674,2.43395 -0.18594,0.64134 -0.4354,1.8242 -0.55437,2.62858 -0.16105,1.08893 -0.19608,1.93482 -0.13711,3.31165 0.0534,1.2472 0.18411,2.30063 0.40148,3.23603 0.17726,0.76278 0.48371,1.83265 0.68099,2.37749 0.19728,0.54484 0.59614,1.46612 0.88635,2.04728 0.2902,0.58117 0.76945,1.42609 1.06499,1.8776 0.42012,0.64184 0.57552,0.78927 0.71228,0.67576 0.0962,-0.0798 0.48032,-0.65076 0.85357,-1.26869 z m 30.05604,0.33335 c 0.37702,-0.59933 0.89784,-1.54997 1.15737,-2.11253 0.259532,-0.56257 0.640762,-1.54329 0.847172,-2.17937 0.20641,-0.63609 0.48493,-1.72117 0.61894,-2.4113 0.17916,-0.92265 0.24166,-1.83166 0.23615,-3.43416 -0.006,-1.70962 -0.0691,-2.46942 -0.29322,-3.52507 -0.15713,-0.74015 -0.4705,-1.86945 -0.69637,-2.50958 -0.22587,-0.64012 -0.648752,-1.63935 -0.939732,-2.22052 -0.29098,-0.58116 -0.77221,-1.42814 -1.06941,-1.88218 -0.29719,-0.45403 -0.57458,-0.82551 -0.61641,-0.82551 -0.0418,0 -0.31922,0.37148 -0.61641,0.82551 -0.2972,0.45404 -0.77844,1.30102 -1.06942,1.88218 -0.29098,0.58117 -0.71385,1.5804 -0.93972,2.22052 -0.22587,0.64013 -0.53142,1.75639 -0.679,2.48059 -0.14758,0.7242 -0.30467,1.95386 -0.34909,2.73258 -0.0466,0.81643 -0.014,2.00301 0.0768,2.80273 0.0867,0.76277 0.30008,1.95795 0.47426,2.65595 0.17418,0.698 0.49921,1.72855 0.72228,2.29011 0.22308,0.56156 0.52871,1.26837 0.67919,1.57069 0.15048,0.30232 0.57903,1.04003 0.95234,1.63936 0.37331,0.59932 0.71025,1.08968 0.74876,1.08968 0.0385,0 0.37849,-0.49036 0.75551,-1.08968 z M 122.10313,73.8814 c 0.35569,-0.69636 0.80729,-1.71189 1.00354,-2.25673 0.19626,-0.54484 0.50187,-1.61471 0.67913,-2.37749 0.21737,-0.9354 0.34807,-1.98883 0.40148,-3.23603 0.059,-1.37683 0.0239,-2.22272 -0.13711,-3.31165 -0.11897,-0.80438 -0.36843,-1.98724 -0.55437,-2.62858 -0.18593,-0.64135 -0.58947,-1.73662 -0.89675,-2.43395 -0.30728,-0.69732 -0.87361,-1.75822 -1.25852,-2.35754 -0.38492,-0.59933 -0.73959,-1.08968 -0.78817,-1.08968 -0.0486,0 -0.3939,0.49035 -0.76737,1.08968 -0.37347,0.59932 -0.82441,1.38687 -1.00209,1.75009 -0.17769,0.36323 -0.48038,1.07754 -0.67266,1.58735 -0.19228,0.50981 -0.4922,1.49053 -0.66651,2.17937 -0.1743,0.68883 -0.38847,1.93275 -0.47592,2.76426 -0.0904,0.85921 -0.12115,1.99955 -0.0713,2.64165 0.0482,0.62141 0.1769,1.66081 0.2859,2.30978 0.109,0.64898 0.37861,1.74323 0.59914,2.43169 0.22054,0.68845 0.5938,1.67312 0.82948,2.18815 0.23568,0.51504 0.68225,1.35249 0.99239,1.86101 0.31013,0.50852 0.65629,1.02935 0.76924,1.1574 0.19255,0.21831 0.23273,0.19431 0.64455,-0.38492 0.24156,-0.33976 0.73022,-1.1875 1.08592,-1.88386 z"
       id="path22" /></g></svg>
