<?xml version="1.0" encoding="UTF-8" standalone="no"?>
<!-- Created with Inkscape (http://www.inkscape.org/) -->

<svg
   width="158.81891"
   height="112.6884"
   viewBox="0 0 158.81891 112.6884"
   version="1.1"
   id="svg1"
   xml:space="preserve"
   inkscape:export-filename="bmw.svg"
   inkscape:export-xdpi="80"
   inkscape:export-ydpi="80"
   xmlns:inkscape="http://www.inkscape.org/namespaces/inkscape"
   xmlns:sodipodi="http://sodipodi.sourceforge.net/DTD/sodipodi-0.dtd"
   xmlns="http://www.w3.org/2000/svg"
   xmlns:svg="http://www.w3.org/2000/svg"><sodipodi:namedview
     id="namedview1"
     pagecolor="#ffffff"
     bordercolor="#000000"
     borderopacity="0.25"
     inkscape:showpageshadow="2"
     inkscape:pageopacity="0.0"
     inkscape:pagecheckerboard="0"
     inkscape:deskcolor="#d1d1d1"
     inkscape:document-units="px"><inkscape:page
       x="0"
       y="0"
       width="158.81891"
       height="112.6884"
       id="page2"
       margin="0"
       bleed="0" /></sodipodi:namedview><defs
     id="defs1" /><g
     inkscape:label="Camada 1"
     inkscape:groupmode="layer"
     id="layer1"
     transform="translate(-11.818512,-40.741642)"><path
       style="fill:#000000"
       d="m 17.867808,153.11483 c -0.64322,-0.16851 -1.5385,-0.50654 -1.9895,-0.75119 -0.451,-0.24465 -1.18472,-0.77911 -1.6305,-1.1877 -0.44577,-0.40859 -1.04415,-1.13153 -1.32973,-1.60652 -0.28558,-0.47499 -0.66869,-1.45465 -0.85136,-2.17701 -0.28893,-1.14254 -0.30812,-1.43308 -0.14753,-2.23348 0.10153,-0.50606 0.46407,-1.50452 0.80563,-2.2188 0.46282,-0.96787 0.85204,-1.50984 1.52789,-2.12753 0.49878,-0.45586 1.16736,-0.96106 1.48574,-1.12268 0.31838,-0.16161 0.91793,-0.40837 1.33235,-0.54836 0.41441,-0.13998 1.21558,-0.32833 1.78037,-0.41856 0.5648,-0.0902 3.21373,-0.17083 5.88652,-0.17913 3.94897,-0.0123 5.06642,0.0333 5.96314,0.24308 0.60694,0.142 1.52165,0.48104 2.0327,0.75343 0.51105,0.27238 1.23203,0.75448 1.60219,1.07132 0.37016,0.31684 0.98545,1.00048 1.36731,1.5192 0.38186,0.51872 0.69429,1.04321 0.69429,1.16553 0,0.17994 -0.45623,0.2224 -2.38959,0.2224 -1.31427,0 -2.59227,-0.076 -2.84,-0.16881 -0.24773,-0.0928 -0.84641,-0.55763 -1.33041,-1.03285 -0.484,-0.47522 -1.24,-1.02758 -1.68,-1.22746 -0.67998,-0.30891 -1.13381,-0.37238 -3.02495,-0.42306 -1.3316,-0.0357 -2.61487,0.0171 -3.19607,0.13142 -0.53411,0.10508 -1.24587,0.33122 -1.58169,0.50254 -0.33581,0.17132 -0.90269,0.60362 -1.25973,0.96066 -0.35704,0.35704 -0.87005,1.12119 -1.14003,1.69812 -0.40407,0.86348 -0.49087,1.25098 -0.49087,2.19157 0,0.88532 0.0919,1.34344 0.4083,2.03444 0.22456,0.49051 0.67631,1.18849 1.00388,1.55108 0.32977,0.36502 1.06859,0.89203 1.65537,1.1808 l 1.05977,0.52155 2.88301,-0.008 c 2.65462,-0.007 2.94909,-0.037 3.71716,-0.37719 0.55936,-0.24773 1.17498,-0.73273 1.86875,-1.47224 l 1.03459,-1.10281 h 2.73125 c 1.50219,0 2.73126,0.0608 2.73126,0.13519 0,0.0744 -0.27623,0.56036 -0.61384,1.08 -0.33761,0.51965 -0.95423,1.25655 -1.37027,1.63757 -0.41604,0.38103 -1.27382,0.93793 -1.90617,1.23757 -0.63235,0.29965 -1.53755,0.6179 -2.01156,0.70724 -0.4821,0.0909 -3.23157,0.15855 -6.24,0.15362 -4.76651,-0.008 -5.51117,-0.0436 -6.54767,-0.31519 z m 89.469642,0.1492 c -1.4613,-0.0686 -2.56382,-0.20558 -3.12,-0.38759 -0.47307,-0.15481 -1.11728,-0.41051 -1.43157,-0.56822 -0.31429,-0.15771 -0.96652,-0.60859 -1.4494,-1.00194 -0.48289,-0.39335 -1.14224,-1.10045 -1.465232,-1.57132 -0.32299,-0.47087 -0.73276,-1.2814 -0.9106,-1.80118 -0.20006,-0.58474 -0.32333,-1.35974 -0.32333,-2.03272 0,-0.74422 0.11992,-1.41807 0.37978,-2.13397 0.20889,-0.57547 0.6754,-1.42947 1.036712,-1.89779 0.36131,-0.46833 0.96441,-1.07129 1.34022,-1.33991 0.37581,-0.26863 1.04636,-0.67155 1.49012,-0.89538 0.44376,-0.22383 1.23576,-0.53931 1.76,-0.70107 0.84594,-0.26103 1.56514,-0.29411 6.39317,-0.29411 4.79268,0 5.56375,0.0349 6.48,0.29363 0.572,0.16149 1.54149,0.55656 2.15443,0.87791 0.61294,0.32136 1.48758,0.95742 1.94363,1.41348 0.45605,0.45605 1.05737,1.29269 1.33626,1.85919 0.27889,0.5665 0.56227,1.4368 0.62974,1.93399 0.0675,0.4972 0.0626,1.34302 -0.0107,1.8796 -0.083,0.60693 -0.35294,1.39336 -0.71433,2.08108 -0.36752,0.6994 -0.92449,1.42356 -1.51629,1.97147 -0.51447,0.4763 -1.38703,1.08611 -1.93904,1.35514 -0.55201,0.26903 -1.43565,0.59244 -1.96365,0.7187 -0.62529,0.14953 -2.15939,0.25006 -4.4,0.28834 -1.892,0.0323 -4.45694,0.011 -5.69987,-0.0473 z m 7.25933,-2.25696 c 0.48539,-0.17973 1.20788,-0.64754 1.71293,-1.10912 0.5207,-0.4759 1.05401,-1.16597 1.32053,-1.70871 0.37652,-0.76673 0.44708,-1.11279 0.44708,-2.19276 0,-1.12485 -0.0643,-1.41301 -0.52329,-2.34631 -0.28781,-0.58518 -0.78852,-1.29684 -1.1127,-1.58147 -0.32417,-0.28464 -0.9887,-0.7048 -1.47671,-0.93369 -0.85551,-0.40127 -0.99337,-0.41618 -3.8473,-0.41618 -2.8567,0 -2.99108,0.0146 -3.85065,0.41771 -0.48986,0.22974 -1.16597,0.69774 -1.50246,1.04 -0.33649,0.34226 -0.83292,1.09029 -1.10318,1.66229 -0.40064,0.84793 -0.49203,1.24684 -0.4949,2.16 -0.003,0.90108 0.0869,1.31704 0.45931,2.12808 0.29935,0.652 0.73471,1.25251 1.23255,1.70012 0.42334,0.38062 1.11388,0.85449 1.53452,1.05304 0.46023,0.21723 1.24269,0.40214 1.96481,0.46431 0.66,0.0568 1.92,0.0741 2.8,0.0384 1.04842,-0.0425 1.88939,-0.17205 2.43946,-0.37573 z m -23.676582,2.16903 c -0.16699,-0.048 -0.37291,-0.40218 -0.51814,-0.89121 -0.13256,-0.44637 -0.41787,-1.11336 -0.63402,-1.48221 -0.21616,-0.36884 -0.69436,-0.94286 -1.06267,-1.27561 -0.36831,-0.33274 -1.07429,-0.79472 -1.56885,-1.02661 -0.86889,-0.40742 -1.01369,-0.42336 -4.29508,-0.47297 l -3.39588,-0.0513 -0.0441,2.53134 -0.0441,2.53134 -2.48,0.0398 c -1.38898,0.0223 -2.58559,-0.0279 -2.72,-0.114 -0.202,-0.12943 -0.24745,-0.86004 -0.287,-4.61377 -0.0258,-2.45299 0.0177,-5.23256 0.0968,-6.17681 0.1092,-1.30351 0.22044,-1.82014 0.46205,-2.14601 0.17501,-0.23606 0.59944,-0.59002 0.94317,-0.78657 0.62283,-0.35615 0.65113,-0.35737 8.30496,-0.3581 6.21964,-5.9e-4 7.84655,0.0436 8.55587,0.23235 0.48173,0.12819 1.27106,0.50534 1.75406,0.8381 0.51843,0.35717 1.0756,0.92492 1.36008,1.38592 0.38004,0.61586 0.49468,1.0073 0.54241,1.85204 0.0478,0.84603 -0.014,1.24437 -0.29407,1.89543 -0.20108,0.46742 -0.66361,1.10912 -1.06837,1.48221 -0.39257,0.36187 -1.01442,0.78581 -1.38188,0.94211 -0.36745,0.1563 -0.80832,0.33307 -0.97969,0.39284 -0.25727,0.0897 -0.12878,0.21815 0.73696,0.73664 0.57671,0.34538 1.31653,0.90019 1.64404,1.2329 0.32752,0.33271 0.76399,0.93291 0.96994,1.33377 0.20595,0.40086 0.42436,0.99486 0.48536,1.32 l 0.1109,0.59116 -1.89781,0.002 c -1.04379,9.7e-4 -2.1498,0.0318 -2.4578,0.0684 -0.308,0.0367 -0.68471,0.0309 -0.83712,-0.0129 z m -1.38654,-7.94324 c 0.29901,-0.20129 0.64348,-0.57358 0.76548,-0.82731 0.122,-0.25373 0.22181,-0.73066 0.22181,-1.05984 0,-0.32981 -0.15169,-0.84395 -0.33788,-1.14522 -0.18584,-0.30069 -0.52305,-0.63108 -0.74935,-0.73419 -0.28245,-0.12869 -1.78309,-0.18747 -4.78621,-0.18747 -4.06767,0 -4.40125,0.0215 -4.75247,0.30563 -0.34392,0.27828 -0.38266,0.45054 -0.43288,1.92512 -0.0303,0.89072 -0.0146,1.72519 0.035,1.85437 0.0764,0.19913 0.80566,0.23488 4.79149,0.23488 4.6331,0 4.70926,-0.005 5.24503,-0.36597 z m -49.42434,7.69397 c -0.14327,-0.14327 -0.192,-1.90498 -0.192,-6.94041 0,-5.55341 0.0392,-6.78097 0.22153,-6.93227 0.15111,-0.1254 1.00312,-0.16978 2.68,-0.13959 l 2.45847,0.0443 0.08,6.77014 c 0.044,3.72358 0.0283,6.90958 -0.0349,7.08 -0.10674,0.28801 -0.28781,0.30986 -2.568,0.30986 -1.69467,0 -2.51252,-0.0594 -2.64515,-0.192 z m 16.968,0.0881 c -0.15242,-0.0631 -0.2,-1.02929 -0.2,-4.06153 0,-2.28913 -0.0747,-4.32723 -0.17597,-4.79928 -0.10804,-0.50377 -0.36425,-1.03494 -0.66375,-1.37605 -0.26828,-0.30556 -0.7111,-0.67716 -0.98403,-0.82578 -0.39067,-0.21273 -1.08187,-0.28758 -3.24863,-0.35183 -1.84755,-0.0548 -2.81616,-0.1455 -2.94637,-0.27597 -0.1067,-0.1069 -0.22556,-0.57502 -0.26414,-1.04026 -0.0573,-0.69084 -0.0133,-0.89736 0.24023,-1.12677 0.29044,-0.26284 0.99814,-0.27824 11.01652,-0.23974 l 10.70614,0.0411 0.0465,1.32 0.0465,1.32 h -3.90688 c -3.43719,0 -3.93328,0.0318 -4.12647,0.26431 -0.17298,0.2082 -0.23657,1.4223 -0.29959,5.72 l -0.08,5.45569 -2.48,0.0294 c -1.364,0.0162 -2.57,-0.008 -2.68,-0.0533 z m 71.485842,-0.0839 c -0.30478,-0.0874 -0.74504,-0.29492 -0.97835,-0.46105 -0.23331,-0.16613 -0.57884,-0.66153 -0.76785,-1.10089 -0.33341,-0.77503 -0.34239,-0.97178 -0.30164,-6.60452 l 0.042,-5.80568 9.79001,-0.0412 9.79001,-0.0412 0.10579,0.70542 c 0.0582,0.38798 0.053,0.87454 -0.0116,1.08123 -0.0645,0.20669 -0.19766,0.4287 -0.2958,0.49335 -0.0981,0.0647 -3.13962,0.11865 -6.75884,0.12 -5.89975,0.002 -6.60292,0.0296 -6.79801,0.26464 -0.12465,0.1502 -0.24306,0.76634 -0.2772,1.44239 -0.0394,0.78052 0.007,1.26066 0.1376,1.41781 0.1674,0.2017 1.02748,0.23761 5.69198,0.23761 5.40754,0 5.49762,0.005 5.6735,0.33395 0.10976,0.20507 0.13702,0.63723 0.0706,1.11982 -0.0594,0.43223 -0.16367,0.82023 -0.23161,0.86222 -0.0679,0.042 -2.54875,0.0817 -5.51291,0.0882 -2.96416,0.007 -5.49383,0.052 -5.62148,0.10095 -0.17965,0.0689 -0.23155,0.41969 -0.22965,1.55195 0.001,0.80458 0.0707,1.57088 0.15405,1.70288 0.12958,0.20514 1.14604,0.25162 6.99755,0.32 l 6.84595,0.08 0.0484,0.9335 c 0.0285,0.55057 -0.0287,1.02641 -0.1396,1.16 -0.15799,0.19038 -1.51811,0.2242 -8.52838,0.21207 -5.0001,-0.009 -8.56235,-0.0781 -8.89457,-0.17343 z m 21.04559,-0.0636 c -0.2204,-0.22039 -0.25143,-1.06104 -0.25143,-6.81052 0,-4.21537 0.0592,-6.66967 0.16563,-6.86857 0.1599,-0.29879 0.40927,-0.30948 7.2169,-0.30948 5.8941,0 7.21261,0.0413 8.03437,0.25199 0.54071,0.13859 1.4151,0.49334 1.9431,0.78834 0.528,0.29499 1.3449,0.91959 1.81534,1.38801 0.47043,0.46841 1.03927,1.21166 1.26408,1.65166 0.22481,0.44 0.50505,1.16 0.62276,1.6 0.15052,0.56262 0.21458,1.95126 0.21592,4.68 l 0.002,3.88 h -2.48396 -2.48396 l -0.15604,-0.41042 c -0.0858,-0.22573 -0.15604,-2.1209 -0.15604,-4.2115 0,-2.98987 -0.0522,-3.95419 -0.24447,-4.51854 -0.13445,-0.3946 -0.45992,-0.97885 -0.72326,-1.29833 -0.26334,-0.31948 -0.89133,-0.78345 -1.39554,-1.03104 l -0.91673,-0.45017 h -3.40562 c -2.85302,0 -3.43026,0.0389 -3.55755,0.24 -0.0882,0.13936 -0.15296,2.55809 -0.15438,5.768 -0.002,4.0834 -0.0526,5.57817 -0.19445,5.72 -0.13195,0.13195 -0.92902,0.192 -2.54857,0.192 -1.92901,0 -2.40219,-0.0456 -2.608,-0.25143 z M 131.60208,136.0655 c -0.30538,-0.13245 -0.68338,-0.3568 -0.84,-0.49853 -0.15662,-0.14174 -0.28476,-0.46809 -0.28476,-0.72522 0,-0.29836 0.1616,-0.6291 0.44664,-0.91415 0.25483,-0.25482 0.84019,-0.56105 1.36303,-0.71304 0.74578,-0.21681 1.04242,-0.23296 1.59336,-0.0868 0.37233,0.0988 1.03697,0.40193 1.47697,0.67362 0.44,0.27169 1.02066,0.49566 1.29036,0.49771 0.2697,0.002 0.71494,-0.15619 0.98943,-0.35164 0.27449,-0.19545 0.80088,-0.46185 1.16975,-0.592 0.36888,-0.13015 1.00638,-0.23663 1.41667,-0.23663 0.45586,0 1.02305,0.14001 1.4584,0.36 0.39182,0.198 0.82108,0.558 0.9539,0.8 0.21565,0.39291 0.21529,0.48683 -0.003,0.87759 -0.13463,0.24068 -0.53063,0.59949 -0.88,0.79737 -0.46292,0.26219 -0.89808,0.36049 -1.60439,0.36241 -0.79222,0.002 -1.17198,-0.0995 -2.08,-0.55688 -0.61095,-0.30773 -1.27179,-0.55973 -1.46852,-0.56 -0.19674,-2.7e-4 -0.83272,0.25151 -1.41329,0.55951 -0.88471,0.46934 -1.21532,0.55898 -2.0423,0.55374 -0.54269,-0.003 -1.23657,-0.11464 -1.54195,-0.2471 z m 3.47244,-11.47214 c -0.40651,-0.28902 -1.04919,-0.81372 -1.42816,-1.16599 -0.37897,-0.35228 -1.80504,-1.57521 -3.16904,-2.71762 -1.364,-1.14242 -3.596,-2.94451 -4.96,-4.00464 -1.364,-1.06014 -3.2,-2.46896 -4.08,-3.13072 -0.88,-0.66175 -3.328,-2.45767 -5.44,-3.99092 -2.112,-1.53325 -4.452,-3.19076 -5.2,-3.68334 -0.748,-0.49259 -1.864,-1.21598 -2.48,-1.60754 -0.616,-0.39156 -2.0305,-1.23093 -3.14333,-1.86528 -1.11283,-0.63435 -3.05683,-1.6476 -4.32,-2.25166 -1.263172,-0.604056 -3.500162,-1.578926 -4.971092,-2.166376 -2.03455,-0.81255 -2.93426,-1.08988 -3.76043,-1.15914 -0.70882,-0.0594 -1.51405,-0.003 -2.31843,0.16382 -0.67783,0.14018 -2.08164,0.57366 -3.11957,0.96329 -1.03794,0.38962 -2.84616,1.14558 -4.01829,1.6799 -1.17213,0.534316 -3.00387,1.451476 -4.07055,2.038116 -1.06668,0.58664 -2.69966,1.53434 -3.62886,2.106 -0.9292,0.57166 -2.48145,1.58347 -3.44945,2.24849 -0.968,0.66501 -3.344,2.39743 -5.28,3.84983 -1.936,1.45239 -6.256,4.76236 -9.6,7.35548 -3.344,2.59313 -6.836,5.30408 -7.76,6.02435 -0.924,0.72027 -1.83727,1.3928 -2.02948,1.49451 -0.19222,0.10172 -0.56382,0.18494 -0.82578,0.18494 -0.33544,0 -0.5988,-0.14559 -0.89052,-0.49228 -0.22782,-0.27075 -0.41706,-0.64875 -0.42053,-0.84 -0.003,-0.19125 -0.10492,-1.53572 -0.22545,-2.98772 -0.21368,-2.57421 -0.2098,-2.68984 0.15569,-4.64 0.20617,-1.1 0.45522,-2.35672 0.55346,-2.79271 0.0982,-0.43599 0.3607,-1.15599 0.58323,-1.6 0.22254,-0.44401 0.58754,-1.04777 0.81112,-1.34169 0.22358,-0.29392 2.24691,-2.45392 4.49629,-4.8 2.24937,-2.34608 6.29077,-6.467046 8.98087,-9.157696 2.6901,-2.69065 5.98963,-5.90757 7.33229,-7.14871 1.34265,-1.24113 3.71865,-3.32666 5.28,-4.6345 1.56134,-1.30784 3.63081,-2.99329 4.59881,-3.74543 0.968,-0.75214 2.444,-1.83555 3.28,-2.40757 0.836,-0.57202 2.1488,-1.41576 2.91733,-1.87499 0.76854,-0.45923 1.99254,-1.11359 2.72001,-1.45413 0.72746,-0.34055 1.87535,-0.80444 2.55087,-1.03087 0.93102,-0.31208 1.55046,-0.41124 2.56,-0.4098 0.73248,0.001 1.69638,0.099 2.142,0.21766 0.44562,0.11867 1.27362,0.42085 1.84,0.67153 0.56638,0.25067 1.71379,0.8474 2.54979,1.32605 0.836,0.47865 2.420002,1.46875 3.520002,2.20022 1.1,0.73147 2.324,1.56359 2.72,1.84917 0.396,0.28557 1.548,1.16559 2.56,1.95558 1.012,0.79 2.956,2.38543 4.32,3.5454 1.364,1.15998 3.704,3.24422 5.2,4.63165 1.496,1.38743 5.96269,5.77121 9.92597,9.74172 4.31231,4.320166 7.80024,7.957996 8.68585,9.059116 0.9539,1.18603 1.72821,2.3518 2.1786,3.28 0.38429,0.792 0.79566,1.836 0.91415,2.32 0.14988,0.61222 0.21142,1.9511 0.20226,4.4 -0.007,1.936 -0.068,3.94625 -0.13492,4.46722 -0.0937,0.7292 -0.22596,1.05144 -0.57452,1.4 -0.31952,0.31952 -0.61292,0.45278 -0.99692,0.45278 -0.35838,0 -0.79647,-0.1794 -1.28327,-0.5255 z m 1.7133,-0.88458 c 0.0506,-0.15955 0.16163,-1.00555 0.24666,-1.88 0.085,-0.87446 0.15644,-2.51171 0.15871,-3.63834 0.003,-1.29295 -0.0894,-2.47312 -0.24937,-3.2 -0.13942,-0.63337 -0.56761,-1.80644 -0.95152,-2.60683 -0.51456,-1.07274 -1.06357,-1.87178 -2.08874,-3.04 -0.76489,-0.87161 -4.75118,-4.93275 -8.85842,-9.02475 -4.10724,-4.091996 -8.86724,-8.747256 -10.57777,-10.345026 -1.71053,-1.59777 -4.09288,-3.72552 -5.2941,-4.72835 -1.20123,-1.00283 -3.03545,-2.46757 -4.07605,-3.25497 -1.04059,-0.78741 -3.22577,-2.32026 -4.85594,-3.40633 -1.630182,-1.08608 -3.611962,-2.2893 -4.403962,-2.67384 -0.792,-0.38454 -1.86913,-0.80993 -2.39362,-0.94532 -0.52449,-0.13539 -1.48609,-0.24616 -2.1369,-0.24616 -0.65081,0 -1.62568,0.11324 -2.16639,0.25165 -0.5407,0.1384 -1.48709,0.49467 -2.10309,0.7917 -0.616,0.29703 -1.93174,1.02979 -2.92387,1.62835 -0.99213,0.59856 -2.64813,1.67768 -3.68,2.39804 -1.03187,0.72036 -2.45213,1.78665 -3.15613,2.36953 -0.704,0.58288 -1.63902,1.3615 -2.07782,1.73025 -0.4388,0.36876 -1.7348,1.48828 -2.88,2.48782 -1.1452,0.99954 -2.83818,2.51154 -3.76218,3.36 -0.924,0.84846 -2.868,2.67005 -4.32,4.04798 -1.452,1.37793 -4.08413,3.96993 -5.84918,5.76 -1.76505,1.790066 -4.96997,5.102646 -7.12204,7.361276 -3.30763,3.47139 -4.01578,4.30048 -4.57818,5.36 -0.36592,0.68937 -0.7876,1.7214 -0.93706,2.2934 -0.23269,0.89052 -0.25975,1.60037 -0.18823,4.9387 0.0686,3.20285 0.1271,3.94228 0.32773,4.14291 0.21895,0.21895 0.29181,0.21288 0.70433,-0.0587 0.25307,-0.1666 3.66019,-2.97098 7.57138,-6.23196 3.91118,-3.26097 8.06831,-6.69937 9.23806,-7.64087 1.16975,-0.94151 3.11375,-2.45468 4.32,-3.3626 1.20625,-0.90791 3.12919,-2.30137 4.27319,-3.09657 1.144,-0.7952 2.944,-1.98276 4,-2.63903 1.056,-0.656256 2.7905,-1.676256 3.85444,-2.266666 1.06394,-0.5904 2.82794,-1.47527 3.92,-1.96639 1.09206,-0.49111 2.15271,-1.04665 2.357,-1.23452 l 0.37144,-0.34158 -0.49396,-0.44136 c -0.4181,-0.37357 -0.63489,-0.44116 -1.41145,-0.44005 -0.50461,7.2e-4 -1.56547,0.0736 -2.35747,0.16201 -0.792,0.0884 -2.016,0.27563 -2.72,0.41612 -0.704,0.14049 -2.02034,0.49736 -2.92521,0.79304 -0.90486,0.29567 -2.48886,0.91033 -3.52,1.36591 -1.03113,0.45557 -3.81879,1.77566 -6.19479,2.93354 -2.376,1.157866 -4.77899,2.374366 -5.33998,2.703326 -0.56099,0.32896 -1.05798,0.56011 -1.10443,0.51366 -0.0464,-0.0464 0.12229,-0.24745 0.37496,-0.44668 0.25267,-0.19923 1.82966,-1.36305 3.50443,-2.586266 1.67476,-1.22321 3.83702,-2.74598 4.80502,-3.38394 0.968,-0.63795 2.552,-1.63905 3.52,-2.22466 0.968,-0.5856 2.732,-1.55749 3.92,-2.15975 1.188,-0.60225 2.87352,-1.39922 3.74559,-1.77104 0.87208,-0.37181 2.39659,-0.95133 3.38779,-1.28782 0.9912,-0.33649 2.40168,-0.72842 3.1344,-0.87097 0.73272,-0.14254 2.16022,-0.30008 3.17222,-0.3501 1.05248,-0.052 2.54611,-0.009 3.48979,0.10095 0.90738,0.10553 2.45538,0.39854 3.44,0.65114 0.98461,0.25259 2.43821,0.68592 3.230212,0.96295 0.792,0.27702 2.34,0.90452 3.44,1.39444 1.1,0.48991 2.612,1.2309 3.36,1.64664 0.748,0.41574 1.936,1.11066 2.64,1.54427 0.704,0.43361 1.676,1.03336 2.16,1.33278 0.484,0.29941 2.68,1.75128 4.88,3.22638 2.2,1.475086 4.36,3.001546 4.8,3.392126 0.44,0.39057 0.76041,0.75058 0.71203,0.80002 -0.0484,0.0494 -0.87639,-0.3839 -1.84,-0.96298 -0.96362,-0.57908 -2.68803,-1.54432 -3.83203,-2.144996 -1.144,-0.60067 -2.99338,-1.48941 -4.10972,-1.97498 -1.11635,-0.48557 -3.09635,-1.23786 -4.4,-1.67176 -1.30366,-0.43389 -3.19828,-0.97191 -4.21028,-1.19561 -1.012,-0.22369 -2.43874,-0.49271 -3.17054,-0.59783 -0.731802,-0.10512 -1.897792,-0.15829 -2.591102,-0.11815 -0.69332,0.0401 -1.37257,0.16592 -1.50947,0.27953 -0.13689,0.11362 -0.24889,0.30485 -0.24889,0.42497 0,0.12012 0.306,0.41195 0.68,0.64851 0.374,0.23656 2.192,1.21653 4.040002,2.1777 1.848,0.96118 4.008,2.11189 4.8,2.557146 0.792,0.44525 2.592,1.56659 4,2.49188 1.408,0.92528 3.604,2.43849 4.88,3.36268 1.276,0.9242 3.292,2.43815 4.48,3.36434 1.188,0.9262 3.204,2.54813 4.48,3.60431 1.276,1.05617 3.32598,2.78781 4.55551,3.84808 1.22954,1.06027 3.17462,2.79177 4.32241,3.84777 1.14779,1.056 2.4262,2.226 2.84091,2.6 0.41471,0.374 0.89478,0.68 1.06681,0.68 0.17204,0 0.35422,-0.13054 0.40486,-0.29008 z m -3.1905,-11.99587 c -0.44,-0.4191 -2.168,-1.9862 -3.84,-3.48243 -1.672,-1.49624 -3.904,-3.47759 -4.96,-4.40301 -1.056,-0.92542 -2.532,-2.19032 -3.28,-2.81088 -0.748,-0.62056 -2.22729,-1.780176 -3.28731,-2.576936 -1.06002,-0.79675 -3.00402,-2.15566 -4.32,-3.01978 -1.31598,-0.86413 -3.43669,-2.17211 -4.71269,-2.90661 -1.276,-0.73451 -3.904,-2.11767 -5.84,-3.0737 -1.936,-0.95603 -4.708002,-2.21489 -6.160002,-2.79748 -1.452,-0.58258 -2.98597,-1.28963 -3.40883,-1.57123 -0.43132,-0.28724 -1.03915,-0.91374 -1.38461,-1.42718 -0.45048,-0.6695 -0.666,-1.20639 -0.80284,-2 -0.10289,-0.59665 -0.16381,-2.01996 -0.13539,-3.16293 l 0.0517,-2.07811 0.46933,-0.22468 c 0.37786,-0.18088 0.6544,-0.19025 1.41904,-0.048 0.52235,0.0971 1.39115,0.38518 1.93067,0.64009 0.53953,0.25491 1.87472,1.05634 2.96709,1.78097 1.09238,0.72463 2.856382,1.97141 3.920002,2.77061 1.06363,0.79921 3.33787,2.60796 5.05387,4.01946 1.716,1.41149 4.31481,3.58684 5.77513,4.8341 1.46032,1.24726 3.36832,2.93794 4.24,3.75707 0.87168,0.81912 3.02992,2.93322 4.79609,4.69799 1.76618,1.764766 4.32779,4.396666 5.69247,5.848666 1.36467,1.452 3.16006,3.396 3.98973,4.32 0.82968,0.924 1.85007,2.06578 2.26754,2.5373 0.41747,0.47152 0.75904,0.92152 0.75904,1 0,0.0785 -0.09,0.14181 -0.2,0.14073 -0.11,-0.001 -0.56,-0.34488 -1,-0.76398 z m 2.24,-19.575096 c -0.264,-0.0707 -1.74,-1.14937 -3.28,-2.39706 -1.54,-1.24769 -4.72388,-3.80456 -7.07529,-5.68192 -2.35141,-1.87736 -5.48341,-4.33426 -6.96,-5.45978 -1.47659,-1.12552 -3.54871,-2.66599 -4.60471,-3.42325 -1.056,-0.75727 -2.964,-2.06115 -4.24,-2.89751 -1.276,-0.83636 -3.292,-2.0799 -4.48,-2.76342 -1.188,-0.68352 -3.42339,-1.86631 -4.96753,-2.62842 -1.544142,-0.7621 -3.488142,-1.61051 -4.320002,-1.88535 -0.83186,-0.27484 -2.11769,-0.62157 -2.8574,-0.77052 -0.9049,-0.1822 -1.66871,-0.23763 -2.33459,-0.16941 -0.54431,0.0558 -1.5591,0.2691 -2.25507,0.47408 -0.69598,0.20498 -2.04482,0.67973 -2.99744,1.05499 -0.95261,0.37526 -2.89661,1.27531 -4.32,2.00011 -1.42338,0.7248 -3.66797,1.95092 -4.98797,2.72472 -1.32,0.7738 -3.47327,2.1238 -4.78505,3 -1.31178,0.87621 -3.32778,2.28148 -4.48,3.12284 -1.15222,0.84135 -3.39784,2.51641 -4.99026,3.72234 -1.59242,1.20593 -3.93242,3.01666 -5.2,4.02385 -1.26758,1.00718 -3.91804,3.11395 -5.88992,4.68171 -1.97187,1.56775 -3.82918,2.95239 -4.12734,3.07697 -0.44756,0.187 -0.61757,0.19071 -0.97477,0.0213 -0.23797,-0.11287 -0.56322,-0.47235 -0.7228,-0.79885 -0.1909,-0.39059 -0.3401,-1.23882 -0.43621,-2.48 -0.0803,-1.0375 -0.14778,-2.69003 -0.14986,-3.67229 -0.002,-0.98226 0.10404,-2.35026 0.23583,-3.04 0.13282,-0.69508 0.51424,-1.82674 0.85571,-2.53881 0.36973,-0.77101 1.10918,-1.87719 1.8492,-2.76632 0.67822,-0.81487 1.93115,-2.21551 2.78429,-3.11253 0.85315,-0.89702 3.17923,-3.32418 5.16908,-5.39368 1.98985,-2.0695 5.51785,-5.5729 7.84,-7.78532 2.32215,-2.21243 5.17032,-4.86201 6.32925,-5.88797 1.15893,-1.02595 2.67093,-2.33737 3.36,-2.91426 0.68907,-0.57689 2.33285,-1.85616 3.65285,-2.84281 1.32,-0.98665 3.6707,-2.67011 5.22378,-3.74102 1.55308,-1.07091 3.35308,-2.22954 4,-2.57473 0.64692,-0.3452 1.89622,-0.86005 2.77622,-1.14413 1.22545,-0.3956 1.89964,-0.51948 2.88,-0.52918 0.90885,-0.009 1.62795,0.0938 2.48,0.35442 0.66,0.2019 1.93271,0.75259 2.82824,1.22377 0.89554,0.47118 2.35719,1.3116 3.24811,1.86759 0.890922,0.556 2.462212,1.61449 3.491752,2.35221 1.02955,0.73772 2.69772,1.99772 3.70706,2.8 1.00934,0.80228 2.91168,2.37925 4.22742,3.50436 1.31573,1.12512 3.50633,3.06912 4.86798,4.32 1.36165,1.25089 6.00425,5.83834 10.31689,10.19434 4.31265,4.356 8.22424,8.38159 8.69244,8.94577 0.46819,0.56417 1.13407,1.57217 1.47971,2.24 0.34565,0.66782 0.79714,1.71823 1.00332,2.33423 0.36134,1.07958 0.37334,1.2759 0.33258,5.44 -0.0235,2.40022 -0.11552,4.54539 -0.20708,4.8272 -0.0906,0.27896 -0.26213,0.58798 -0.3811,0.68672 -0.11897,0.0987 -0.42129,0.23668 -0.67181,0.30654 -0.25053,0.0699 -0.67151,0.0692 -0.93551,-0.002 z m 0.8724,-1.24476 c 0.09,-0.1682 0.2459,-1.87949 0.34641,-3.80288 0.17537,-3.35598 0.16911,-3.55182 -0.15524,-4.85419 -0.18589,-0.74642 -0.69527,-2.07712 -1.13196,-2.95712 -0.43668,-0.88 -1.09417,-1.96 -1.46109,-2.4 -0.36691,-0.44 -3.73688,-3.89825 -7.48882,-7.685 -3.75193,-3.78674 -7.90525,-7.92674 -9.22959,-9.2 -1.32433,-1.27325 -3.37633,-3.18257 -4.56,-4.24293 -1.18366,-1.06035 -2.98011,-2.61699 -3.99211,-3.45918 -1.012,-0.84219 -2.848,-2.30651 -4.08,-3.25405 -1.232,-0.94753 -3.25641,-2.39592 -4.49868,-3.21865 -1.242282,-0.82273 -3.150282,-1.9588 -4.240002,-2.5246 -1.08973,-0.56581 -2.37239,-1.14278 -2.85036,-1.28217 -0.47797,-0.13938 -1.4207,-0.25342 -2.09495,-0.25342 -0.78801,0 -1.53492,0.10768 -2.09096,0.30145 -0.47578,0.16579 -1.80105,0.80399 -2.94505,1.41821 -1.144,0.61421 -2.63808,1.44709 -3.32017,1.85083 -0.6821,0.40374 -1.8701,1.18104 -2.64,1.72733 -0.76991,0.5463 -2.33583,1.7185 -3.47983,2.6049 -1.144,0.8864 -2.908,2.31989 -3.92,3.18553 -1.012,0.86564 -3.03949,2.66691 -4.50553,4.00282 -1.46604,1.33591 -4.8165,4.58893 -7.44546,7.22893 -2.62897,2.64 -6.49876,6.6 -8.59952,8.8 -2.10077,2.2 -4.19643,4.504 -4.65702,5.12 -0.4606,0.616 -1.02002,1.48514 -1.24317,1.93142 -0.22315,0.44628 -0.53616,1.27428 -0.69557,1.84 -0.24627,0.87394 -0.28354,1.54576 -0.24794,4.46858 0.0231,1.892 0.0967,3.692 0.16375,4 0.0948,0.43558 0.20945,0.57003 0.51615,0.60517 0.30055,0.0344 0.83181,-0.32806 2.23431,-1.52447 1.012,-0.8633 4.144,-3.47859 6.96,-5.81175 2.816,-2.33315 6.56,-5.39676 8.32,-6.80802 1.76,-1.41125 3.956,-3.12855 4.88,-3.81621 0.924,-0.68767 3.012,-2.13115 4.64,-3.20774 1.628,-1.07659 3.6806,-2.38928 4.56133,-2.91709 0.88073,-0.52782 3.04073,-1.68111 4.8,-2.56287 1.75927,-0.88177 3.36543,-1.78253 3.56925,-2.00169 l 0.37057,-0.39848 -0.51622,-0.36758 c -0.51442,-0.3663 -0.52402,-0.36689 -2.74775,-0.16793 -1.22734,0.10981 -2.81631,0.30246 -3.53104,0.42813 -0.71473,0.12566 -2.02101,0.44893 -2.90283,0.71838 -0.88182,0.26944 -2.39531,0.78236 -3.36331,1.13982 -0.968,0.35745 -2.768,1.14014 -4,1.73932 -1.232,0.59917 -3.73693,1.89578 -5.56651,2.88137 -1.82957,0.98558 -3.36226,1.7562 -3.40597,1.71249 -0.0437,-0.0437 0.73321,-0.68958 1.7265,-1.43527 0.99329,-0.7457 2.88598,-2.06314 4.20598,-2.92766 1.32,-0.86452 3.192,-2.08723 4.16,-2.71715 0.968,-0.62991 2.64046,-1.66597 3.71659,-2.30236 1.07613,-0.63639 2.65907,-1.48534 3.51765,-1.88656 0.85858,-0.40121 2.86431,-1.21848 4.45718,-1.81614 1.59286,-0.59766 3.35792,-1.229 3.92235,-1.40299 0.56442,-0.17399 1.71023,-0.40528 2.54623,-0.51398 0.93803,-0.12197 2.1326,-0.15684 3.12,-0.0911 0.88,0.0586 2.48423,0.28424 3.56495,0.50138 1.08073,0.21714 2.91673,0.7083 4.08,1.09147 1.163282,0.38317 3.043692,1.11534 4.178692,1.62705 1.135,0.51172 3.08734,1.51807 4.33852,2.23635 1.25119,0.71828 3.16655,1.8692 4.25636,2.55761 1.08981,0.68841 3.02548,1.94275 4.30148,2.78742 1.276,0.84466 3.16972,2.20897 4.20826,3.0318 1.03855,0.82283 1.8544,1.52992 1.81301,1.57131 -0.0414,0.0414 -1.03511,-0.49473 -2.20827,-1.19139 -1.17315,-0.69666 -3.033,-1.74104 -4.133,-2.32086 -1.1,-0.57981 -3.008,-1.48378 -4.24,-2.00881 -1.232,-0.52503 -3.05165,-1.21155 -4.04367,-1.5256 -0.99202,-0.31405 -2.61202,-0.74928 -3.6,-0.96718 -0.98798,-0.2179 -2.79052,-0.55863 -4.00565,-0.75717 -2.180222,-0.35623 -2.220782,-0.35709 -3.080002,-0.065 -0.47887,0.16277 -0.87068,0.34127 -0.87068,0.39665 0,0.0554 0.306,0.39467 0.68,0.75397 0.45416,0.43631 1.66305,1.14554 3.640002,2.13549 1.628,0.81522 3.536,1.80716 4.24,2.20431 0.704,0.39715 1.82,1.04747 2.48,1.44516 0.66,0.39768 2.28,1.48007 3.6,2.4053 1.32,0.92522 3.372,2.39945 4.56,3.27606 1.188,0.8766 3.132,2.35341 4.32,3.28178 1.188,0.92838 3.24,2.58723 4.56,3.68635 1.32,1.09911 3.552,3.02011 4.96,4.26889 1.408,1.24878 3.316,2.97136 4.24,3.82796 0.924,0.85659 1.896,1.69321 2.16,1.85915 0.264,0.16594 0.53147,0.30198 0.59437,0.30231 0.0629,3.3e-4 0.18802,-0.13702 0.27803,-0.30521 z m -4.63331,-13.48132 c -1.3635,-1.23912 -3.84709,-3.4537 -5.51909,-4.92128 -1.672,-1.46758 -3.868,-3.3542 -4.88,-4.1925 -1.012,-0.83829 -2.7374,-2.19275 -3.83422,-3.00992 -1.09682,-0.81716 -2.70096,-1.94878 -3.56476,-2.51471 -0.86379,-0.56593 -2.41439,-1.53921 -3.44578,-2.16284 -1.03138,-0.62363 -2.51376,-1.48901 -3.29417,-1.92305 -0.78041,-0.43404 -2.61641,-1.38868 -4.08,-2.12142 -1.46359,-0.73273 -3.885072,-1.8168 -5.381072,-2.40903 -1.496,-0.59224 -3.044,-1.2417 -3.44,-1.44324 -0.396,-0.20155 -1.02298,-0.62787 -1.39328,-0.94738 -0.40355,-0.3482 -0.8843,-1.00954 -1.2,-1.65075 -0.50648,-1.02871 -0.53007,-1.16218 -0.61389,-3.47329 -0.0642,-1.76942 -0.0322,-2.54649 0.12109,-2.94562 0.20491,-0.53343 0.22065,-0.54069 0.97771,-0.45103 0.4232,0.0501 1.55671,0.40004 2.51891,0.7776 1.34175,0.52649 2.37778,1.10705 4.44556,2.49113 1.482862,0.99257 3.744742,2.61378 5.026412,3.60271 1.28166,0.98892 3.34441,2.66954 4.58389,3.7347 1.23948,1.06517 3.3696,2.969 4.7336,4.23075 1.364,1.26174 5.74442,5.53908 9.73426,9.50519 3.98984,3.96611 8.05359,8.11111 9.03056,9.21111 0.97696,1.1 1.88324,2.1277 2.01395,2.28378 0.1469,0.1754 0.18071,0.34073 0.0885,0.43291 -0.0922,0.0922 -1.09595,-0.71131 -2.62822,-2.10382 z"
       id="path8" /></g></svg>
