<?xml version="1.0" encoding="UTF-8" standalone="no"?>
<!-- Created with Inkscape (http://www.inkscape.org/) -->

<svg
   width="142.70964"
   height="108.09929"
   viewBox="0 0 142.70964 108.09929"
   version="1.1"
   id="svg1"
   xml:space="preserve"
   inkscape:export-filename="bmw.svg"
   inkscape:export-xdpi="80"
   inkscape:export-ydpi="80"
   xmlns:inkscape="http://www.inkscape.org/namespaces/inkscape"
   xmlns:sodipodi="http://sodipodi.sourceforge.net/DTD/sodipodi-0.dtd"
   xmlns="http://www.w3.org/2000/svg"
   xmlns:svg="http://www.w3.org/2000/svg"><sodipodi:namedview
     id="namedview1"
     pagecolor="#ffffff"
     bordercolor="#000000"
     borderopacity="0.25"
     inkscape:showpageshadow="2"
     inkscape:pageopacity="0.0"
     inkscape:pagecheckerboard="0"
     inkscape:deskcolor="#d1d1d1"
     inkscape:document-units="px"><inkscape:page
       x="0"
       y="0"
       width="142.70964"
       height="108.09929"
       id="page2"
       margin="0"
       bleed="0" /></sodipodi:namedview><defs
     id="defs1" /><g
     inkscape:label="Camada 1"
     inkscape:groupmode="layer"
     id="layer1"
     transform="translate(-20.932568,-37.271503)"><path
       style="fill:#000000;stroke-width:0.0520456"
       d="m 20.932567,91.320905 v -54.0494 h 15.847892 15.84792 v 6.51884 6.51883 h -8.327328 -8.3273 v 16.58967 16.58968 h 6.375589 6.375618 v 6.42763 6.42764 H 42.34934 35.973751 v 24.513495 24.5135 h -7.520594 -7.52059 z m 37.42083,0 v -54.0494 h 7.728775 7.728774 v 54.0494 54.049395 h -7.728774 -7.728775 z m 23.576666,0 v -54.0494 h 15.839226 15.839201 l 0.70654,1.44426 c 0.38863,0.79435 0.87257,1.81258 1.07543,2.26273 0.20283,0.45016 0.51208,1.15278 0.68721,1.56137 0.17512,0.4086 0.50129,1.19961 0.72482,1.75779 0.22353,0.55819 0.54624,1.38962 0.71714,1.84762 0.17089,0.458 0.51368,1.42996 0.76175,2.1599 0.24805,0.72994 0.62701,1.88925 0.84208,2.57626 0.2151,0.687 0.57824,1.90487 0.80697,2.70637 0.22877,0.8015 0.58942,2.13647 0.80145,2.9666 0.21202,0.83013 0.49058,1.96603 0.61901,2.52422 0.1284,0.55819 0.33824,1.50672 0.46628,2.10785 0.12805,0.60112 0.35072,1.69018 0.49482,2.42012 0.1441,0.72994 0.33244,1.7136 0.41856,2.18592 0.0861,0.47231 0.27315,1.56136 0.41571,2.42012 0.14253,0.85875 0.34158,2.11175 0.44233,2.78444 0.10072,0.67269 0.27605,1.91398 0.3896,2.75842 0.11354,0.84444 0.28936,2.22625 0.39069,3.07069 0.10133,0.84444 0.25469,2.20283 0.34081,3.01865 0.0861,0.81582 0.21484,2.10395 0.28607,2.86251 0.0712,0.75857 0.18831,2.08183 0.2602,2.94058 0.0719,0.85875 0.18938,2.36938 0.26109,3.35695 0.0717,0.98756 0.17739,2.55674 0.23486,3.48705 0.0575,0.93032 0.15084,2.58147 0.20751,3.66922 0.0567,1.08776 0.13773,2.79745 0.18015,3.79934 0.0424,1.001865 0.0903,2.219735 0.10644,2.706365 0.0161,0.48662 0.0401,1.07214 0.0533,1.30114 0.0132,0.229 0.0369,1.01359 0.0526,1.74353 0.0158,0.72994 0.0386,1.42084 0.0508,1.53534 0.0122,0.11451 0.0368,1.06304 0.0547,2.10785 0.0179,1.04482 0.0399,1.9479 0.0488,2.00684 0.009,0.0589 0.0324,1.26511 0.0521,2.68035 0.0196,1.41525 0.0434,2.62308 0.0527,2.68408 0.009,0.061 0.0314,2.0049 0.0489,4.31978 0.0175,2.3149 0.0424,4.56021 0.0552,4.98958 0.0128,0.42938 0.0277,4.94954 0.033,10.04481 l 0.01,9.26413 -7.00841,0.0132 -7.00841,0.0132 -0.003,-2.84969 c -0.003,-1.56733 -0.0127,-3.78651 -0.0245,-4.93151 -0.0118,-1.14501 -0.0349,-5.67688 -0.0512,-10.07083 -0.0163,-4.39396 -0.0378,-8.07099 -0.0479,-8.17117 -0.01,-0.10019 -0.0347,-1.57335 -0.0549,-3.27368 -0.0201,-1.70034 -0.0442,-3.14071 -0.0534,-3.20081 -0.009,-0.0601 -0.0317,-1.0344 -0.05,-2.16509 -0.0183,-1.13069 -0.0426,-2.14949 -0.054,-2.26399 -0.0115,-0.1145 -0.0342,-0.82882 -0.0507,-1.58739 -0.0166,-0.75856 -0.0405,-1.57828 -0.0534,-1.82159 -0.013,-0.24332 -0.036,-0.84054 -0.0512,-1.32717 -0.0154,-0.48663 -0.0398,-1.17753 -0.0547,-1.53535 -0.0148,-0.35781 -0.061,-1.42344 -0.10273,-2.368065 -0.0417,-0.94463 -0.0886,-1.98685 -0.10433,-2.31604 -0.0157,-0.32918 -0.0411,-0.72148 -0.0565,-0.87176 l -0.0281,-0.27324 h -8.24547 -8.245509 v 24.513495 24.5135 h -6.739908 -6.739907 z m 29.008097,-7.87303 c 0.0136,-0.0221 -0.0538,-0.78105 -0.14984,-1.68658 -0.0961,-0.90555 -0.24786,-2.26343 -0.33732,-3.01753 -0.0895,-0.7541 -0.25555,-2.062 -0.36905,-2.90644 -0.11352,-0.84444 -0.28882,-2.08574 -0.38957,-2.75842 -0.10075,-0.67269 -0.30036,-1.92569 -0.44354,-2.78445 -0.14319,-0.85875 -0.37512,-2.1703 -0.5154,-2.91455 -0.14026,-0.74426 -0.35956,-1.85726 -0.48728,-2.47335 -0.12775,-0.61609 -0.36541,-1.70515 -0.52817,-2.42012 -0.16279,-0.71498 -0.43565,-1.85035 -0.60636,-2.52304 -0.17075,-0.67269 -0.45055,-1.72661 -0.6218,-2.34205 -0.17128,-0.61544 -0.42896,-1.50542 -0.57265,-1.97774 -0.14369,-0.47231 -0.41465,-1.32716 -0.60213,-1.89966 -0.18749,-0.5725 -0.52797,-1.55617 -0.75662,-2.18592 -0.22864,-0.62975 -0.43476,-1.16849 -0.45806,-1.19721 -0.0278,-0.0342 -1.53321,-0.0521 -4.353377,-0.052 H 95.4359 l -0.01301,16.58947 -0.01301,16.58947 h 7.75181 c 4.26348,0 7.76299,-0.0181 7.77662,-0.0402 z m 25.83504,14.39174 -0.013,-47.53068 h -5.98525 -5.98525 l -0.0132,-6.51872 -0.0132,-6.51871 h 19.43945 19.43946 l -0.0132,6.51871 -0.0132,6.51872 h -5.89417 -5.89418 v 47.5308 47.530795 h -7.52056 -7.52056 z"
       id="path8" /></g></svg>
