<?xml version="1.0" encoding="UTF-8" standalone="no"?>
<!-- Created with Inkscape (http://www.inkscape.org/) -->

<svg
   width="141.27174"
   height="89.329285"
   viewBox="0 0 141.27174 89.329285"
   version="1.1"
   id="svg1"
   xml:space="preserve"
   inkscape:export-filename="bmw.svg"
   inkscape:export-xdpi="80"
   inkscape:export-ydpi="80"
   xmlns:inkscape="http://www.inkscape.org/namespaces/inkscape"
   xmlns:sodipodi="http://sodipodi.sourceforge.net/DTD/sodipodi-0.dtd"
   xmlns="http://www.w3.org/2000/svg"
   xmlns:svg="http://www.w3.org/2000/svg"><sodipodi:namedview
     id="namedview1"
     pagecolor="#ffffff"
     bordercolor="#000000"
     borderopacity="0.25"
     inkscape:showpageshadow="2"
     inkscape:pageopacity="0.0"
     inkscape:pagecheckerboard="0"
     inkscape:deskcolor="#d1d1d1"
     inkscape:document-units="px"><inkscape:page
       x="0"
       y="0"
       width="141.27174"
       height="89.329285"
       id="page2"
       margin="0"
       bleed="0" /></sodipodi:namedview><defs
     id="defs1" /><g
     inkscape:label="Camada 1"
     inkscape:groupmode="layer"
     id="layer1"
     transform="translate(-19.561091,-42.642517)"><path
       style="fill:#000000;stroke-width:0.137894"
       d="m 60.170732,131.9005 c -0.303367,-0.0257 -1.057681,-0.10995 -1.676257,-0.18708 -0.618576,-0.0771 -1.611407,-0.26577 -2.206298,-0.41919 -0.594884,-0.15344 -1.711612,-0.58442 -2.481612,-0.95775 -1.071442,-0.51948 -1.605424,-0.88201 -2.275241,-1.54471 -0.481381,-0.47626 -1.074968,-1.24329 -1.319082,-1.70452 -0.24412,-0.46122 -0.538868,-1.20337 -0.654993,-1.64921 -0.116132,-0.44585 -0.211147,-1.34302 -0.211147,-1.99373 0,-0.6507 0.09241,-1.53785 0.205336,-1.97143 0.112937,-0.43359 0.399831,-1.17363 0.637548,-1.64454 0.252781,-0.50076 0.783202,-1.20161 1.277682,-1.68824 0.465012,-0.45762 1.210796,-1.04663 1.657313,-1.30891 0.44651,-0.26229 1.501093,-0.70537 2.34352,-0.98463 0.842421,-0.27927 2.090153,-0.59212 2.772723,-0.69523 0.767254,-0.11589 2.399171,-0.18608 4.274691,-0.18385 1.879751,0.002 3.427032,0.0728 4.067851,0.18543 0.568811,0.1 1.59267,0.3362 2.27524,0.5249 0.68257,0.18869 1.735697,0.60022 2.34027,0.9145 0.658961,0.34256 1.476656,0.92747 2.041555,1.46037 0.735232,0.69359 1.058964,1.13371 1.47306,2.00267 0.291917,0.61254 0.598742,1.52214 0.681838,2.02133 0.08311,0.49918 0.150031,1.15072 0.148706,1.44787 -0.0014,0.29716 -0.09399,0.97464 -0.205944,1.50553 -0.111957,0.53089 -0.393205,1.35147 -0.625001,1.8235 -0.231788,0.47203 -0.733045,1.19918 -1.11389,1.61588 -0.380846,0.41671 -1.075838,1.00879 -1.544425,1.31573 -0.468587,0.30695 -1.344713,0.7486 -1.94694,0.98147 -0.60222,0.23285 -1.626079,0.5382 -2.275234,0.67854 -0.649161,0.14034 -1.893884,0.32095 -2.766062,0.40137 -0.872172,0.0804 -2.206292,0.13596 -2.964705,0.12348 -0.758414,-0.0125 -1.627142,-0.0438 -1.930502,-0.0695 z m 4.909471,-3.34544 c 0.598791,-0.18615 1.122276,-0.46943 1.52887,-0.82732 0.391025,-0.3442 0.765929,-0.86399 1.019932,-1.41411 0.383047,-0.82959 0.401645,-0.95925 0.401645,-2.80037 0,-1.50517 -0.05479,-2.08759 -0.248758,-2.64349 -0.136815,-0.39213 -0.501167,-0.99974 -0.809682,-1.35022 -0.308508,-0.35049 -0.79962,-0.75902 -1.091358,-0.90786 -0.291746,-0.14883 -0.920218,-0.3625 -1.396617,-0.47482 -0.476392,-0.11232 -1.393614,-0.20295 -2.038269,-0.20141 -0.644649,10e-4 -1.552085,0.0844 -2.016524,0.18408 -0.464439,0.0997 -1.12877,0.31892 -1.47629,0.48715 -0.347527,0.16823 -0.829702,0.5312 -1.071504,0.80661 -0.241802,0.27539 -0.55236,0.75552 -0.690113,1.06695 -0.13776,0.31143 -0.322373,1.02818 -0.410245,1.59278 -0.09017,0.57938 -0.121887,1.48328 -0.07281,2.07506 0.04782,0.57669 0.194854,1.36354 0.326728,1.74856 0.131873,0.38502 0.435281,0.97667 0.67424,1.31477 0.312601,0.44229 0.680065,0.73474 1.309986,1.04256 0.481534,0.23532 1.216801,0.48745 1.633926,0.5603 0.417125,0.0728 1.378935,0.10803 2.137349,0.0782 0.861813,-0.034 1.720403,-0.16046 2.289498,-0.33739 z m -45.519049,1.79686 v -1.09021 l 0.723929,-0.0876 c 0.398195,-0.0482 0.966572,-0.12321 1.263183,-0.16669 0.297093,-0.0435 0.684109,-0.22393 0.861813,-0.40166 l 0.322628,-0.32261 v -4.82484 c 0,-4.8083 0,-4.82609 -0.311034,-5.18644 -0.262174,-0.30477 -0.484322,-0.3824 -1.413421,-0.49392 -0.606333,-0.0728 -1.179955,-0.15978 -1.274708,-0.19334 -0.11725,-0.0415 -0.17239,-0.39319 -0.17239,-1.09954 v -1.03853 h 6.417844 6.417831 l -0.0403,1.06867 -0.0403,1.06868 -0.827356,0.10946 c -0.455047,0.0602 -1.02931,0.14063 -1.276095,0.17871 -0.246784,0.0381 -0.572518,0.20221 -0.723928,0.36469 -0.242851,0.26067 -0.275218,0.48712 -0.275218,1.92416 v 1.62872 h 4.895214 4.895213 v -1.57808 c 0,-1.43889 -0.02747,-1.60998 -0.311034,-1.93968 -0.262146,-0.30477 -0.484307,-0.3824 -1.413406,-0.49392 -0.606306,-0.0728 -1.179942,-0.15978 -1.274743,-0.19334 -0.117229,-0.0415 -0.172362,-0.39319 -0.172362,-1.09954 v -1.03853 h 6.412033 6.412041 v 1.08457 1.08456 l -1.270002,0.14179 c -1.113069,0.12427 -1.30902,0.18716 -1.585776,0.5089 l -0.315768,0.36711 v 4.81088 c 0,4.79356 0.0014,4.81215 0.310261,5.16047 0.263092,0.29644 0.504169,0.37372 1.585769,0.50836 l 1.275516,0.15877 v 1.08511 1.0851 h -6.41204 -6.412033 v -1.0851 -1.08511 l 1.275508,-0.15877 c 1.081607,-0.13464 1.322685,-0.21192 1.585776,-0.50836 0.283313,-0.31922 0.310261,-0.48664 0.310261,-1.92767 v -1.57808 h -4.895213 -4.895214 v 1.57808 c 0,1.43956 0.02691,1.60921 0.310275,1.93262 0.25341,0.28963 0.499573,0.37862 1.344444,0.48607 0.568812,0.0723 1.142792,0.13343 1.275515,0.13578 0.20936,0.003 0.241312,0.15033 0.241312,1.1074 v 1.10314 h -6.412041 -6.412047 z m 56.674147,0.006 v -1.08477 l 1.171791,-0.15126 c 0.644496,-0.0832 1.299007,-0.21934 1.454482,-0.30255 0.155476,-0.0832 0.341765,-0.30669 0.413985,-0.49662 0.07375,-0.19397 0.131287,-2.39286 0.131287,-5.01703 0,-4.67009 -1.1e-4,-4.67183 -0.315775,-5.03881 -0.276756,-0.32174 -0.4727,-0.38462 -1.585776,-0.5089 l -1.269994,-0.14179 v -1.08878 -1.08878 l 5.984004,0.0387 c 5.582276,0.0361 6.002783,0.0557 6.263777,0.29198 0.15386,0.13931 2.068427,2.61585 4.254567,5.50341 2.186131,2.88756 4.114583,5.41079 4.285434,5.60717 l 0.31062,0.35706 -0.03485,-4.37449 c -0.03402,-4.26667 -0.04217,-4.38176 -0.330778,-4.67021 -0.230643,-0.23049 -0.572897,-0.32666 -1.551305,-0.43589 l -1.255361,-0.14016 v -1.08456 -1.08457 h 5.107855 5.107846 l -0.0403,1.06867 -0.0403,1.06868 -0.89631,0.11025 c -0.49297,0.0607 -1.12799,0.17142 -1.41116,0.24618 -0.28558,0.0754 -0.59261,0.27192 -0.68947,0.44131 -0.13258,0.2319 -0.1823,1.83206 -0.20657,6.64849 l -0.032,6.3431 h -4.335156 -4.33517 l -0.359397,-0.33776 c -0.197669,-0.18576 -2.234807,-2.81373 -4.526976,-5.83992 l -4.167593,-5.50215 -0.03651,4.24078 c -0.03092,3.59545 -0.0048,4.2892 0.172004,4.55899 0.114676,0.17501 0.441355,0.37776 0.725957,0.45056 0.28461,0.0728 0.905298,0.17441 1.379302,0.22579 l 0.861834,0.0934 v 1.0896 1.08961 h -5.102047 -5.102054 z m 29.095479,-0.0184 c 0,-0.95706 0.0319,-1.1037 0.24132,-1.1074 0.13272,-0.002 0.7067,-0.0634 1.27551,-0.13578 0.84485,-0.10744 1.091,-0.19643 1.34446,-0.48605 0.30921,-0.35334 0.31026,-0.37106 0.31026,-5.22679 0,-4.54461 -0.0173,-4.89355 -0.2565,-5.189 -0.21114,-0.26076 -0.47315,-0.34268 -1.48235,-0.46343 l -1.22586,-0.14667 -0.002,-1.07649 -0.002,-1.07648 9.30966,0.0478 9.30967,0.0478 1.31961,0.35952 c 0.72579,0.19774 1.76206,0.58234 2.30281,0.85465 0.55221,0.27809 1.38104,0.8673 1.8908,1.34416 0.67014,0.62688 1.02927,1.10541 1.37248,1.82884 0.25567,0.53889 0.53292,1.30862 0.61611,1.71052 0.0832,0.4019 0.15127,1.22103 0.15127,1.8203 0,0.59926 -0.0686,1.41839 -0.15238,1.82029 -0.0838,0.40191 -0.33367,1.11535 -0.55522,1.58544 -0.22156,0.47009 -0.71954,1.20123 -1.10663,1.62476 -0.38707,0.42353 -1.12832,1.02227 -1.6472,1.33053 -0.51887,0.30826 -1.42409,0.71312 -2.01158,0.89968 -0.5875,0.18656 -1.65963,0.42837 -2.38254,0.53735 -1.03556,0.15611 -3.14974,0.19831 -9.96716,0.19895 l -8.65281,6.9e-4 z m 16.0813,-2.08143 c 0.48676,-0.0848 1.12642,-0.31583 1.45919,-0.52711 0.37816,-0.24012 0.72926,-0.628 0.9706,-1.0723 0.23922,-0.4404 0.43465,-1.09523 0.53203,-1.7826 0.0846,-0.59757 0.11641,-1.59053 0.0706,-2.2066 -0.0458,-0.61606 -0.18465,-1.4338 -0.30848,-1.81721 -0.12381,-0.38341 -0.40147,-0.91104 -0.617,-1.17252 -0.21554,-0.26147 -0.68845,-0.62106 -1.05092,-0.79906 -0.62863,-0.30873 -0.81969,-0.32599 -4.14085,-0.374 l -3.4818,-0.0503 v 4.97633 4.97634 h 2.84999 c 1.56749,0 3.24,-0.0679 3.71667,-0.15093 z m 9.15318,2.08143 c 0,-0.95706 0.032,-1.1037 0.24131,-1.1074 0.13272,-0.002 0.70238,-0.0641 1.26593,-0.13724 0.73337,-0.0952 1.11515,-0.21805 1.34317,-0.43226 0.17522,-0.1646 1.62876,-2.43064 3.23009,-5.03563 2.35996,-3.8391 2.89541,-4.80055 2.82646,-5.07523 -0.0468,-0.18639 -0.19674,-0.39866 -0.33324,-0.47172 -0.13652,-0.0731 -0.91142,-0.20745 -1.72204,-0.29867 l -1.47384,-0.16584 v -1.08817 -1.08818 l 6.47843,0.0384 6.47843,0.0384 0.39541,0.41367 c 0.21747,0.22753 2.20746,3.18659 4.42219,6.5757 3.88937,5.95177 4.04653,6.16898 4.60577,6.36635 0.31845,0.11238 1.01336,0.25592 1.54425,0.31897 l 0.96526,0.11464 v 1.03419 1.03421 l -6.92915,0.0358 -6.92913,0.0357 v -1.08298 -1.08297 l 1.1774,-0.14277 c 0.77391,-0.0939 1.27009,-0.22666 1.44788,-0.38756 0.14876,-0.13462 0.27048,-0.3756 0.27048,-0.5355 0,-0.1599 -0.21936,-0.61645 -0.48745,-1.01456 l -0.48747,-0.72384 -4.9163,0.0362 -4.91628,0.0362 -0.45615,0.75841 c -0.25088,0.41712 -0.4564,0.89043 -0.45672,1.05179 0,0.16135 0.0913,0.36957 0.20345,0.46269 0.1122,0.0931 0.7017,0.23285 1.30998,0.3105 l 1.10598,0.14119 v 1.08532 1.0853 h -5.10205 -5.10205 z m 16.37254,-6.79124 c -0.0364,-0.0948 -0.72838,-1.1827 -1.53761,-2.41755 -0.80923,-1.23485 -1.52395,-2.21265 -1.58828,-2.1729 -0.0643,0.0397 -0.74418,1.09223 -1.5108,2.33884 -0.76662,1.2466 -1.39386,2.30197 -1.39386,2.34526 0,0.0433 1.37178,0.0787 3.04841,0.0787 2.38213,0 3.03392,-0.0377 2.98214,-0.17237 z M 79.337897,104.81517 c -1.06178,-0.0613 -2.923339,-0.17648 -4.1368,-0.25585 -1.21346,-0.0794 -3.043992,-0.24056 -4.06785,-0.35819 -1.023859,-0.11763 -2.668233,-0.37222 -3.654169,-0.56576 -0.985937,-0.19355 -2.428287,-0.55997 -3.205224,-0.81426 -0.776936,-0.25429 -1.862842,-0.68811 -2.413132,-0.96403 -0.550289,-0.27592 -1.372835,-0.76973 -1.827888,-1.09735 -0.455047,-0.32761 -1.212508,-0.988804 -1.683255,-1.469314 -0.47074,-0.4805 -1.166671,-1.39188 -1.546509,-2.0253 -0.379838,-0.63341 -0.940831,-1.79945 -1.246648,-2.59121 -0.305823,-0.79175 -0.739573,-2.13507 -0.963887,-2.98514 -0.224315,-0.85008 -0.563761,-2.38329 -0.754335,-3.40715 -0.190568,-1.02385 -0.501554,-3.00952 -0.691079,-4.412584 -0.189519,-1.403062 -0.469974,-3.823088 -0.623228,-5.377837 -0.153253,-1.554749 -0.351088,-3.943747 -0.439629,-5.308895 -0.08855,-1.36514 -0.162701,-4.653894 -0.164786,-7.308345 -0.0021,-2.654444 0.07251,-5.781084 0.165779,-6.948086 0.09327,-1.167001 0.264203,-2.620635 0.379852,-3.230301 0.11565,-0.60966 0.366851,-1.609482 0.558226,-2.221819 0.191375,-0.612331 0.636788,-1.665105 0.989808,-2.339497 0.353021,-0.674386 0.983142,-1.631759 1.400267,-2.127501 0.417125,-0.495736 1.192778,-1.233577 1.723668,-1.639647 0.53089,-0.406069 1.219713,-0.881861 1.530719,-1.057315 0.311013,-0.175448 1.086659,-0.541332 1.723668,-0.813071 0.637009,-0.271732 1.74769,-0.648209 2.468182,-0.83661 0.720492,-0.188401 1.837433,-0.439084 2.482081,-0.557073 0.644649,-0.117989 1.885693,-0.306893 2.757865,-0.419789 0.872178,-0.112888 2.70271,-0.303505 4.067857,-0.423591 1.36514,-0.12008 4.343634,-0.307521 6.618874,-0.416539 2.4375,-0.116787 7.138902,-0.19918 11.445145,-0.200581 4.487057,-0.0014 8.940612,0.07633 11.536601,0.201499 2.32554,0.112137 5.33507,0.300648 6.68783,0.41892 1.35276,0.118264 3.17316,0.307404 4.04533,0.420292 0.87218,0.112896 2.11322,0.301704 2.75787,0.419568 0.64465,0.117872 1.61088,0.330468 2.14718,0.472438 0.5363,0.14197 1.43604,0.423715 1.99945,0.626112 0.5634,0.202382 1.43398,0.573491 1.93462,0.824671 0.50063,0.251187 1.36936,0.802015 1.93051,1.224074 0.56113,0.42206 1.34984,1.155042 1.75269,1.628853 0.40284,0.473811 0.94727,1.213288 1.20982,1.643277 0.26256,0.429989 0.66511,1.236662 0.89458,1.79261 0.22946,0.555948 0.53939,1.476207 0.68872,2.045019 0.14934,0.568805 0.3765,1.809849 0.50481,2.757864 0.19225,1.420487 0.23426,2.936376 0.23881,8.618332 0.003,4.499371 -0.0565,7.637205 -0.17308,9.032013 -0.0982,1.175538 -0.33327,3.595564 -0.52234,5.377837 -0.18904,1.782272 -0.49706,4.213837 -0.68446,5.403482 -0.18739,1.18964 -0.46796,2.80299 -0.62351,3.58523 -0.15554,0.78223 -0.40824,1.91865 -0.56157,2.52538 -0.15332,0.60673 -0.49866,1.69264 -0.7674,2.41313 -0.26875,0.7205 -0.70649,1.74435 -0.97275,2.27524 -0.26628,0.53089 -0.71823,1.30654 -1.00437,1.72367 -0.28614,0.41712 -0.85169,1.07698 -1.25679,1.46634 -0.40511,0.38936 -1.04257,0.937294 -1.41659,1.217624 -0.37402,0.28033 -1.14966,0.74528 -1.72367,1.03322 -0.574,0.28794 -1.61642,0.71972 -2.3165,0.95951 -0.70007,0.23978 -2.12726,0.61335 -3.17154,0.83013 -1.04427,0.21679 -2.82947,0.49531 -3.96708,0.61894 -1.13763,0.12362 -2.37866,0.2555 -2.75787,0.29305 -0.37921,0.0376 -2.4536,0.15999 -4.60977,0.27207 -2.711718,0.14096 -6.516497,0.19762 -12.341449,0.18377 -4.631631,-0.011 -9.289874,-0.0702 -10.351654,-0.13153 z m 20.890833,-2.61279 c 1.93396,-0.0791 4.54014,-0.23481 5.79152,-0.34602 1.25138,-0.11121 3.11294,-0.33001 4.1368,-0.48621 1.02385,-0.15621 2.5131,-0.46853 3.30944,-0.69405 0.79633,-0.22552 1.9443,-0.65823 2.55102,-0.961584 0.60674,-0.30336 1.50547,-0.87668 1.9972,-1.27406 0.49172,-0.39739 1.17429,-1.07044 1.51682,-1.49567 0.34253,-0.42524 0.88082,-1.26083 1.1962,-1.85688 0.31537,-0.59604 0.7694,-1.64218 1.00895,-2.32475 0.23955,-0.68258 0.58386,-1.83054 0.76513,-2.55103 0.18128,-0.72049 0.42313,-1.77538 0.53745,-2.34419 0.11435,-0.56881 0.33255,-1.90293 0.48492,-2.9647 0.15237,-1.061781 0.36834,-2.737189 0.47995,-3.723126 0.1116,-0.985937 0.31374,-3.002627 0.44921,-4.481532 0.19698,-2.15053 0.24554,-4.027983 0.24252,-9.376745 -0.003,-5.388458 -0.0497,-7.094362 -0.23995,-8.780274 -0.1299,-1.150853 -0.39271,-2.694933 -0.58404,-3.431297 -0.19132,-0.736364 -0.55369,-1.780423 -0.80528,-2.320132 -0.25158,-0.53971 -0.75407,-1.372787 -1.11663,-1.851284 -0.36257,-0.478497 -1.039,-1.177553 -1.50322,-1.553458 -0.4642,-0.375898 -1.30939,-0.923723 -1.8782,-1.217387 -0.56881,-0.293657 -1.52416,-0.696697 -2.12299,-0.895636 -0.59885,-0.198945 -1.68492,-0.483196 -2.41351,-0.631674 -0.72858,-0.148478 -1.78992,-0.336119 -2.35854,-0.416987 -0.5686,-0.08086 -1.90255,-0.240035 -2.96433,-0.35371 -1.06178,-0.113683 -3.26462,-0.297184 -4.89522,-0.407781 -1.63058,-0.110605 -5.367143,-0.272609 -8.303457,-0.360012 -4.03437,-0.120079 -6.611694,-0.119969 -10.548837,4.15e-4 -2.86555,0.08767 -6.544197,0.249676 -8.174782,0.360031 -1.630593,0.110356 -3.616255,0.26617 -4.41259,0.346258 -0.796328,0.08009 -1.94429,0.211292 -2.551024,0.291559 -0.606733,0.08027 -1.785715,0.268709 -2.619972,0.418753 -0.834257,0.150045 -1.951191,0.399479 -2.482082,0.554292 -0.53089,0.15482 -1.392461,0.462197 -1.914608,0.683054 -0.522146,0.220863 -1.372469,0.682853 -1.889605,1.026639 -0.517136,0.343794 -1.310256,1.028876 -1.762487,1.52241 -0.452231,0.493535 -1.067915,1.374933 -1.36819,1.958665 -0.300268,0.583732 -0.680452,1.457133 -0.84485,1.940895 -0.164399,0.483762 -0.417684,1.600696 -0.562857,2.482081 -0.145172,0.881385 -0.33331,2.533295 -0.418091,3.670912 -0.08479,1.137623 -0.153246,4.364323 -0.152149,7.170453 0.0014,3.399152 0.07522,6.022534 0.221354,7.859919 0.120645,1.516827 0.311116,3.657619 0.423267,4.757321 0.112157,1.099696 0.331309,2.930227 0.487012,4.067851 0.155704,1.137617 0.408016,2.719947 0.560683,3.516277 0.152674,0.79634 0.433149,2.03737 0.623275,2.75786 0.19012,0.7205 0.581973,1.93902 0.870785,2.70783 0.288812,0.76881 0.781967,1.83763 1.0959,2.37516 0.313939,0.53754 0.921404,1.35603 1.34993,1.81889 0.428518,0.46285 1.165345,1.11716 1.637389,1.454 0.472045,0.33684 1.277269,0.80243 1.789395,1.03464 0.512119,0.232204 1.309261,0.533894 1.771423,0.670414 0.462162,0.13652 1.119529,0.31743 1.460811,0.40202 0.341288,0.0846 1.396174,0.27635 2.344189,0.42612 0.948016,0.14976 2.778547,0.36455 4.067851,0.47731 1.289304,0.11275 3.895488,0.27304 5.791518,0.3562 1.896031,0.0832 4.812476,0.16334 6.480983,0.17819 1.668514,0.0148 4.584952,0.0114 6.480989,-0.008 1.896028,-0.0191 5.029652,-0.0995 6.963607,-0.17856 z m -24.955564,-1.94083 c -1.097977,-0.0628 -2.513178,-0.17093 -3.144887,-0.24034 -0.631702,-0.0694 -1.17079,-0.148554 -1.197974,-0.175864 -0.02719,-0.0273 -0.179346,-1.66299 -0.338141,-3.63486 -0.158789,-1.97188 -0.350557,-4.36088 -0.426152,-5.3089 -0.07559,-0.94801 -0.168346,-2.127 -0.206137,-2.61997 -0.03782,-0.49297 -0.252837,-3.47146 -0.477882,-6.618875 -0.225046,-3.147413 -0.537316,-7.646184 -0.693937,-9.997268 -0.156621,-2.351077 -0.345084,-5.236495 -0.418815,-6.412033 -0.07373,-1.175545 -0.289855,-4.588403 -0.480285,-7.584135 -0.190423,-2.995733 -0.399748,-6.315514 -0.465163,-7.377295 -0.07402,-1.201342 -0.06965,-1.961701 0.01159,-2.013101 0.07178,-0.04541 0.982949,-0.154019 2.02482,-0.241312 1.04187,-0.0873 2.174525,-0.158719 2.517008,-0.158719 H 72.5999 l 0.505342,2.24077 c 0.277936,1.232417 0.972141,4.363688 1.542692,6.958368 0.570544,2.59468 1.600331,6.969348 2.288422,9.721477 0.688084,2.75213 1.501065,5.779524 1.806633,6.72754 0.305575,0.948022 0.831372,2.302168 1.168472,3.009217 0.488441,1.024542 0.814395,1.487601 1.605451,2.280727 0.574305,0.575823 1.343229,1.178464 1.824756,1.430135 0.457703,0.239227 1.326431,0.577887 1.930501,0.752568 1.029773,0.297791 1.339247,0.317631 4.959318,0.31797 3.300673,2.76e-4 4.001103,-0.0363 4.826268,-0.252278 0.530884,-0.138947 1.423745,-0.471195 1.984117,-0.738331 0.720533,-0.343476 1.286571,-0.754025 1.933068,-1.402082 0.619736,-0.621212 1.09621,-1.271734 1.47922,-2.01954 0.31077,-0.606727 0.72566,-1.53751 0.92196,-2.0684 0.1963,-0.53089 0.57435,-1.709872 0.84009,-2.619973 0.26575,-0.910093 0.92299,-3.423202 1.46053,-5.584677 0.53755,-2.161476 1.6884,-7.125638 2.5574,-11.031464 0.86902,-3.905826 1.61195,-7.241122 1.65096,-7.411766 0.0625,-0.273188 0.15711,-0.310247 0.79225,-0.310144 0.39672,6.3e-5 1.40388,0.06149 2.23813,0.136581 0.83426,0.07506 1.71646,0.170506 1.96046,0.21212 0.39298,0.06701 0.43646,0.118327 0.38083,0.44947 -0.0345,0.205592 -0.12754,1.521769 -0.2067,2.924831 -0.0792,1.403068 -0.26464,4.474637 -0.4122,6.825721 -0.14755,2.351084 -0.33233,5.205475 -0.41061,6.343091 -0.0783,1.137624 -0.23481,3.526623 -0.34785,5.308895 -0.11305,1.782272 -0.26804,4.109216 -0.34444,5.170996 -0.0764,1.061781 -0.29617,4.164377 -0.48834,6.894664 -0.19217,2.730292 -0.53556,7.322132 -0.76308,10.204112 -0.22753,2.88196 -0.45117,5.74891 -0.49695,6.371 -0.0796,1.08079 -0.0992,1.13424 -0.44244,1.20261 -0.19755,0.0393 -1.22791,0.132754 -2.28969,0.207544 -1.06178,0.0748 -2.62345,0.17268 -3.47039,0.21749 -1.40365,0.0743 -1.54636,0.0596 -1.61313,-0.16652 -0.0403,-0.1364 -0.26765,-0.992624 -0.50525,-1.902714 -0.23762,-0.9101 -0.61626,-2.33729 -0.84146,-3.17155 -0.22518,-0.83426 -0.656648,-2.26145 -0.958807,-3.17155 -0.30218,-0.91009 -0.800283,-2.16319 -1.106914,-2.78466 -0.357064,-0.72367 -0.780449,-1.33543 -1.177553,-1.70148 -0.341027,-0.31434 -0.888321,-0.69021 -1.216221,-0.83525 -0.32788,-0.14504 -1.114436,-0.36906 -1.747877,-0.4978 -0.872535,-0.17735 -1.870424,-0.23399 -4.116432,-0.23363 -2.303701,4.2e-4 -3.241171,0.0559 -4.204672,0.24891 -0.681991,0.13664 -1.519691,0.39178 -1.861559,0.56696 -0.341875,0.17519 -0.882434,0.58747 -1.201225,0.91618 -0.336644,0.34711 -0.808171,1.08902 -1.124774,1.76975 -0.299833,0.64465 -0.790441,1.91671 -1.090247,2.82681 -0.299827,0.9101 -0.937733,3.12845 -1.417575,4.92969 l -0.872448,3.274974 -0.629211,-0.0203 c -0.346057,-0.0112 -1.527551,-0.0716 -2.625541,-0.13442 z"
       id="path8" /></g></svg>
