<?xml version="1.0" encoding="UTF-8" standalone="no"?>
<!-- Created with Inkscape (http://www.inkscape.org/) -->

<svg
   width="147.2"
   height="90.856026"
   viewBox="0 0 147.2 90.856026"
   version="1.1"
   id="svg1"
   xml:space="preserve"
   inkscape:export-filename="bmw.svg"
   inkscape:export-xdpi="80"
   inkscape:export-ydpi="80"
   xmlns:inkscape="http://www.inkscape.org/namespaces/inkscape"
   xmlns:sodipodi="http://sodipodi.sourceforge.net/DTD/sodipodi-0.dtd"
   xmlns="http://www.w3.org/2000/svg"
   xmlns:svg="http://www.w3.org/2000/svg"><sodipodi:namedview
     id="namedview1"
     pagecolor="#ffffff"
     bordercolor="#000000"
     borderopacity="0.25"
     inkscape:showpageshadow="2"
     inkscape:pageopacity="0.0"
     inkscape:pagecheckerboard="0"
     inkscape:deskcolor="#d1d1d1"
     inkscape:document-units="px"><inkscape:page
       x="0"
       y="0"
       width="147.2"
       height="90.856026"
       id="page2"
       margin="0"
       bleed="0" /></sodipodi:namedview><defs
     id="defs1" /><g
     inkscape:label="Camada 1"
     inkscape:groupmode="layer"
     id="layer1"
     transform="translate(-13.479134,-57.491402)"><path
       style="fill:#000000"
       d="m 13.585794,148.24075 c -0.0587,-0.0587 -0.10666,-4.84666 -0.10666,-10.64 v -10.53333 h 2.56 2.56 v 4 4 h 4.48 4.48 v -4 -4 h 2.64 2.64 v 10.64 10.64 h -2.56 -2.56 v -4.24 -4.24 h -4.48 -4.48 v 3.98691 c 0,2.19281 -0.0437,4.10081 -0.0971,4.24 -0.0827,0.21545 -0.45942,0.25309 -2.53334,0.25309 -1.33991,0 -2.48421,-0.048 -2.54288,-0.10667 z m 30.04277,-0.10316 c -0.0461,-0.12002 -0.10288,-1.6879 -0.12628,-3.48419 -0.0298,-2.28551 -0.10784,-3.43202 -0.26004,-3.81906 -0.11961,-0.3042 -0.62864,-1.2042 -1.13116,-2 -0.50252,-0.79581 -2.28993,-3.65412 -3.97203,-6.3518 -1.6821,-2.69769 -3.10304,-5.02131 -3.15764,-5.1636 -0.0896,-0.23358 0.19403,-0.25448 2.91922,-0.21512 l 3.0185,0.0436 0.98269,1.52 c 0.54048,0.836 1.69248,2.61751 2.56,3.9589 0.86752,1.3414 1.62298,2.4394 1.67881,2.44 0.0558,6.1e-4 1.19874,-1.72548 2.53981,-3.83575 1.34106,-2.11026 2.52872,-3.91188 2.63923,-4.0036 0.12781,-0.10607 1.27965,-0.15089 3.16525,-0.12315 l 2.96433,0.0436 -1.71461,2.72 c -0.94303,1.496 -2.8983,4.628 -4.34506,6.96 l -2.63045,4.24 -0.08,3.6 -0.08,3.6 -2.44342,0.0442 c -1.94657,0.0352 -2.46044,-1.9e-4 -2.52715,-0.17402 z m 15.84088,0.0342 c -0.0597,-0.0966 -0.0978,-4.82305 -0.0846,-10.50317 0.0132,-5.68012 0.0621,-10.38907 0.10858,-10.46433 0.0465,-0.0752 1.18861,-0.13683 2.538,-0.13683 2.09687,0 2.46766,0.037 2.55124,0.25487 0.0538,0.14018 0.0795,3.84821 0.0571,8.24005 l -0.0407,7.98518 4.2,-5e-5 c 3.98663,-5e-5 4.21625,-0.0163 4.52,-0.32005 0.31138,-0.31138 0.32,-0.53333 0.32,-8.24 v -7.92 l 2.36,0.002 c 1.298,10e-4 2.468,0.0707 2.6,0.15419 0.20865,0.13191 0.24,1.31759 0.24,9.07755 v 8.92622 l -0.3672,0.74538 c -0.20195,0.40995 -0.56195,0.94229 -0.8,1.18298 -0.23804,0.24068 -0.7928,0.60656 -1.2328,0.81306 l -0.8,0.37545 -8.03056,0.002 c -5.66034,10e-4 -8.0626,-0.0503 -8.13913,-0.17411 z m 23.92969,-10.46437 v -10.64 h 8.0515 c 6.8414,0 8.16053,0.0371 8.776986,0.2472 0.39902,0.13596 0.95762,0.47415 1.24133,0.75154 0.28372,0.27738 0.67207,0.79614 0.86301,1.1528 0.34312,0.6409 0.34769,0.75617 0.39214,9.88846 l 0.045,9.24 h -2.56497 -2.564966 V 140.458 c 0,-6.06025 -0.0464,-7.95229 -0.2,-8.16058 -0.11,-0.14914 -0.42754,-0.33602 -0.70564,-0.41529 -0.27809,-0.0793 -2.2221,-0.13301 -4.32,-0.11942 l -3.81436,0.0247 -0.0251,8.04591 c -0.0138,4.42525 -0.0656,8.15125 -0.11498,8.28 -0.0735,0.19155 -0.54144,0.23409 -2.57485,0.23409 h -2.48502 z m 23.999996,0 v -10.64 h 8.16532 8.16532 l 0.75468,0.38571 c 0.41507,0.21215 0.98503,0.62615 1.26657,0.92 0.28154,0.29386 0.64081,0.82229 0.79837,1.17429 0.25867,0.57785 0.29166,1.33519 0.33975,7.79903 0.0454,6.09693 0.0165,7.28531 -0.19419,8.01021 -0.13609,0.46815 -0.45873,1.14286 -0.71698,1.49936 -0.28513,0.39361 -0.80181,0.81376 -1.3156,1.06979 l -0.84607,0.42161 h -8.20859 -8.20858 z m 13.888,5.648 c 0.14171,-0.14172 0.192,-1.60031 0.192,-5.56942 0,-4.3894 -0.0417,-5.43448 -0.22691,-5.688 -0.21154,-0.28954 -0.48361,-0.31417 -4.01701,-0.36366 -2.08455,-0.0292 -3.9607,-0.0102 -4.16922,0.0421 l -0.37913,0.0952 -0.0439,5.83798 -0.0439,5.83799 4.248,-6e-5 c 3.09059,-5e-5 4.30031,-0.0524 4.44,-0.19207 z m 9.952,-4.14382 c 0,-7.87633 0.0338,-9.20707 0.24526,-9.65266 0.13489,-0.28427 0.51289,-0.77413 0.84,-1.08859 0.3271,-0.31446 0.87479,-0.75876 1.21707,-0.98734 l 0.62232,-0.41559 h 8.29768 8.29767 v 10.38691 c 0,5.71281 -0.0437,10.50081 -0.0971,10.64 -0.0827,0.21558 -0.46128,0.25309 -2.55437,0.25309 -2.26566,0 -2.47017,-0.0241 -2.62288,-0.30948 -0.0966,-0.18057 -0.16563,-1.51347 -0.16563,-3.2 v -2.89052 h -4.4 -4.4 v 3.2 3.2 h -2.64 -2.64 z m 14.08,-4.78113 c 0,-2.51912 -0.005,-2.55829 -0.36043,-2.64741 -0.19823,-0.0498 -1.98023,-0.0566 -3.96,-0.0153 -1.97976,0.0414 -3.68443,0.0807 -3.78814,0.0874 -0.10372,0.007 -0.30172,0.12535 -0.44,0.26364 -0.20534,0.20534 -0.25143,0.67463 -0.25143,2.56 v 2.30862 h 4.4 4.4 z m 10.18667,13.81028 c -0.0587,-0.0587 -0.10667,-4.84666 -0.10667,-10.64 v -10.53333 h 2.64 2.64 v 10.33052 c 0,6.81511 -0.0564,10.43583 -0.16563,10.64 -0.1523,0.28457 -0.35621,0.30948 -2.53333,0.30948 -1.30224,0 -2.41571,-0.048 -2.47437,-0.10667 z M 82.839134,115.69608 c -1.672,-0.0653 -4.84,-0.30768 -7.04,-0.53867 -2.2,-0.231 -4.648,-0.529 -5.44,-0.66222 -0.792,-0.13322 -2.304,-0.4218 -3.36,-0.64129 -1.056,-0.21949 -3.09261,-0.68288 -4.52579,-1.02976 -1.43318,-0.34689 -3.37718,-0.85482 -4.32,-1.12874 -0.94282,-0.27393 -2.47021,-0.78887 -3.39421,-1.14433 -0.924,-0.35545 -2.796,-1.11498 -4.16,-1.68783 -1.364,-0.57286 -3.1917,-1.3968 -4.06156,-1.83097 -0.86985,-0.43417 -2.23785,-1.19528 -3.04,-1.69134 -0.80214,-0.49607 -2.29654,-1.53273 -3.32089,-2.3037 -1.02435,-0.77097 -2.45005,-1.95454 -3.16823,-2.63015 -0.71817,-0.675611 -1.77436,-1.811421 -2.34709,-2.524023 -0.57272,-0.712602 -1.40057,-1.887534 -1.83968,-2.610959 -0.43911,-0.723425 -1.00749,-1.776506 -1.26307,-2.34018 -0.25558,-0.563673 -0.61899,-1.59178 -0.80757,-2.284681 -0.2268,-0.833311 -0.37196,-1.951684 -0.42877,-3.303443 -0.0534,-1.269753 -0.0117,-2.503362 0.10997,-3.257693 0.10772,-0.667739 0.33762,-1.656108 0.5109,-2.196377 0.17327,-0.540269 0.60341,-1.558307 0.95587,-2.262307 0.35246,-0.704 1.11952,-2 1.70458,-2.88 0.6573,-0.98867 1.70789,-2.245471 2.74964,-3.289353 0.92724,-0.929144 2.2979,-2.161513 3.0459,-2.738598 0.748,-0.577086 2.27932,-1.663744 3.40295,-2.414797 1.12362,-0.751052 2.92362,-1.798863 4,-2.328469 1.07637,-0.529605 3.00105,-1.406454 4.27705,-1.948552 1.276,-0.542099 3.26532,-1.302039 4.42071,-1.688757 1.1554,-0.386718 3.3514,-1.023579 4.88,-1.415248 1.52861,-0.391668 3.93129,-0.965481 5.33929,-1.275139 1.408,-0.309657 3.46,-0.716571 4.56,-0.904252 1.1,-0.187681 3.584,-0.523206 5.52,-0.745612 2.84761,-0.327131 4.5683,-0.419994 9.0079,-0.486146 3.34926,-0.04991 6.62274,-0.0096 8.4,0.103427 1.60165,0.101859 3.8841,0.294298 5.0721,0.427641 1.188,0.133342 3.563996,0.459033 5.279996,0.723757 1.716,0.264723 4.056,0.66086 5.2,0.880303 1.144,0.219444 3.07676,0.647908 4.29502,0.952144 1.21827,0.304235 3.17265,0.873094 4.34308,1.264131 1.17043,0.391036 2.90966,1.028264 3.86497,1.416062 0.95531,0.387797 2.82657,1.186416 4.15836,1.774708 1.33178,0.588292 3.05978,1.433802 3.84,1.878911 0.78021,0.44511 1.95857,1.173834 2.61857,1.619389 0.66,0.445554 1.92,1.353569 2.8,2.01781 0.88,0.66424 2.20245,1.785719 2.93877,2.492175 0.73633,0.706455 1.82427,1.932465 2.41764,2.724465 0.59338,0.792 1.41137,2.016 1.81776,2.72 0.4064,0.704 0.91662,1.719111 1.13383,2.255802 0.2172,0.536691 0.53657,1.516601 0.70969,2.177578 0.17313,0.660977 0.36387,1.841866 0.42386,2.624198 0.0654,0.853149 0.0338,1.966012 -0.0791,2.780671 -0.1035,0.747038 -0.39604,2.007038 -0.65009,2.8 -0.25404,0.792963 -0.78352,2.071994 -1.17662,2.842292 -0.3931,0.770298 -1.154,2.009027 -1.69089,2.752733 -0.53688,0.743705 -1.5235,1.934023 -2.19248,2.64515 -0.66898,0.711129 -1.85561,1.829329 -2.63696,2.484899 -0.78135,0.65556 -2.04946,1.61219 -2.81802,2.12583 -0.76857,0.51364 -2.53863,1.56671 -3.93347,2.34014 -1.39485,0.77343 -3.15885,1.69526 -3.92,2.04851 -0.76116,0.35325 -2.24792,0.98448 -3.30392,1.40273 -1.056,0.41825 -3.036,1.12277 -4.4,1.5656 -1.364,0.44282 -3.02,0.95406 -3.68,1.13608 -0.66,0.18202 -2.064,0.50962 -3.12,0.728 -1.056,0.21839 -3.432,0.65114 -5.28,0.96167 -1.848,0.31054 -4.89394,0.7472 -6.768756,0.97035 -1.87482,0.22316 -5.00682,0.47472 -6.96,0.55902 -1.95318,0.0843 -4.01924,0.14266 -4.59124,0.12969 -0.572,-0.013 -2.408,-0.077 -4.08,-0.14228 z m 6.8,-5.0476 c 0.572,-0.12459 1.49101,-0.4463 2.04224,-0.71492 0.61564,-0.30001 1.38711,-0.87528 2,-1.49137 0.54877,-0.55163 1.35558,-1.60862 1.79292,-2.34887 0.43734,-0.74025 1.09497,-1.9579 1.46139,-2.7059 0.36642,-0.748 0.88366,-1.97608 1.14942,-2.72907 0.26575,-0.752987 0.63413,-2.065731 0.81861,-2.917209 0.18965,-0.875344 0.33542,-2.126736 0.33542,-2.879518 0,-1.11729 -0.0677,-1.467293 -0.42121,-2.176625 -0.27437,-0.550602 -0.67874,-1.032819 -1.16,-1.383324 -0.44272,-0.32244 -1.22406,-0.669557 -1.94969,-0.866166 -0.71997,-0.195075 -1.69298,-0.326965 -2.4,-0.325313 -0.65401,0.0015 -1.67478,0.1057 -2.26838,0.231492 -0.5936,0.125793 -1.9976,0.490738 -3.12,0.81099 -1.1224,0.320251 -3.91272,1.19739 -6.20072,1.949197 -2.288,0.751808 -5.312,1.830645 -6.72,2.397417 -1.408,0.566772 -4.144,1.804056 -6.08,2.74952 -1.936,0.945465 -4.20409,2.122089 -5.0402,2.614719 -0.8361,0.49264 -2.3121,1.44778 -3.28,2.12254 -0.96789,0.67476 -2.06885,1.52708 -2.44657,1.89405 -0.49579,0.48166 -0.67377,0.77407 -0.64,1.05143 0.0257,0.21132 0.22677,0.51734 0.44677,0.68004 0.22,0.1627 1.732,0.65523 3.36,1.0945 1.628,0.43928 3.824,0.97716 4.88,1.1953 1.056,0.21813 2.892,0.50454 4.08,0.63646 1.188,0.13191 3.456,0.41653 5.04,0.63247 1.584,0.21594 3.37546,0.44353 3.98103,0.50575 0.60556,0.0622 2.47756,0.16422 4.16,0.22667 1.68243,0.0625 3.52697,0.0817 4.09897,0.0429 0.572,-0.0388 1.508,-0.17257 2.08,-0.29716 z m 21.346446,-2.53331 c 2.20745,-0.56773 4.91355,-1.29392 6.01355,-1.61374 1.1,-0.31982 2.828,-0.90603 3.84,-1.30269 1.012,-0.39666 3.01486,-1.32511 4.4508,-2.06322 1.43594,-0.73811 3.23275,-1.74743 3.99292,-2.24293 0.76017,-0.4955 1.92531,-1.31663 2.5892,-1.824727 0.66389,-0.508097 1.78979,-1.526055 2.502,-2.262129 0.71221,-0.736074 1.63809,-1.806317 2.0575,-2.378317 0.41942,-0.572 1.04223,-1.595447 1.38401,-2.274327 0.34179,-0.67888 0.78262,-1.79488 0.97962,-2.48 0.28426,-0.988564 0.35879,-1.658478 0.36107,-3.245673 0.003,-1.783681 -0.0468,-2.147097 -0.45617,-3.36 -0.25247,-0.748 -0.60264,-1.648 -0.77815,-2 -0.17552,-0.352 -0.69957,-1.216 -1.16456,-1.92 -0.47934,-0.72572 -1.52807,-1.940808 -2.42184,-2.806005 -0.86702,-0.839303 -2.53159,-2.19139 -3.69905,-3.004637 -1.16746,-0.813248 -2.29615,-1.557684 -2.5082,-1.654302 -0.21206,-0.09662 -0.55286,-0.131982 -0.75735,-0.07859 -0.20449,0.0534 -0.51861,0.332534 -0.69805,0.620306 -0.17944,0.287773 -0.96263,1.927224 -1.74043,3.643224 -0.77779,1.716 -2.55141,5.424 -3.94136,8.24 -1.38995,2.816 -3.04022,6.006741 -3.66726,7.090535 -0.62704,1.083795 -2.18674,3.639795 -3.46599,5.68 -1.27926,2.040206 -2.83418,4.421442 -3.4554,5.291642 -0.62121,0.87019 -1.8306,2.46107 -2.68753,3.53527 -0.85694,1.07421 -1.64409,2.11386 -1.74924,2.31033 -0.10515,0.19648 -0.15123,0.46133 -0.10241,0.58857 0.0488,0.12724 0.25237,0.29705 0.45232,0.37735 0.19995,0.0803 0.42945,0.15058 0.51,0.15616 0.0806,0.006 1.95255,-0.45437 4.16,-1.0221 z m -63.522506,-6.84775 c 0.12722,-0.198 0.71013,-1.440003 1.29534,-2.760003 0.58522,-1.32 2.47322,-5.208 4.19556,-8.64 1.72235,-3.432 3.49047,-6.888 3.92916,-7.68 0.4387,-0.792 1.34066,-2.34 2.00436,-3.44 0.66371,-1.1 1.63904,-2.648 2.1674,-3.44 0.52836,-0.792 1.42944,-2.088 2.00241,-2.88 0.57296,-0.792001 2.07226,-2.822204 3.33179,-4.511563 1.25952,-1.689359 2.29004,-3.143277 2.29004,-3.230927 0,-0.08765 -0.16002,-0.271448 -0.3556,-0.408438 -0.19558,-0.13699 -0.52079,-0.249073 -0.72267,-0.249073 -0.20189,0 -1.75187,0.363566 -3.4444,0.807923 -1.69253,0.444358 -4.32523,1.167201 -5.85044,1.606319 -1.52522,0.439118 -3.46922,1.057471 -4.32,1.374118 -0.85079,0.316648 -2.41089,0.984467 -3.46689,1.484043 -1.056,0.499575 -2.64,1.330119 -3.52,1.845653 -0.88,0.515534 -2.176,1.331773 -2.88,1.813866 -0.704,0.482092 -1.604,1.132777 -2,1.445965 -0.396,0.313189 -1.25238,1.076287 -1.90305,1.695774 -0.65068,0.619487 -1.61192,1.700342 -2.1361,2.401901 -0.52417,0.701559 -1.22544,1.817559 -1.55838,2.48 -0.33293,0.662441 -0.7646,1.708439 -0.95927,2.324439 -0.23654,0.748515 -0.38093,1.703761 -0.43533,2.88 -0.0599,1.294759 -0.0137,2.04744 0.17478,2.847382 0.14089,0.598061 0.47531,1.602366 0.74315,2.231789 0.26785,0.629424 0.88711,1.745752 1.37615,2.480729 0.48904,0.734977 1.5011,1.979366 2.24903,2.765309 0.74792,0.785943 2.01892,1.92956 2.82444,2.541372 0.80552,0.611812 2.00458,1.439542 2.66458,1.839402 0.66,0.39985 1.39634,0.72859 1.63631,0.73051 0.27986,0.002 0.51925,-0.12558 0.66763,-0.35649 z m 37.69606,-18.922379 c 1.188,-0.318571 3.024,-0.832028 4.08,-1.141015 1.056,-0.308988 2.84255,-0.848657 3.97012,-1.199265 1.12757,-0.350608 2.89157,-0.984875 3.92,-1.409482 1.02843,-0.424606 3.032466,-1.278461 4.453406,-1.897455 1.42094,-0.618994 3.61694,-1.628218 4.88,-2.242719 1.26306,-0.614502 2.95727,-1.518159 3.76493,-2.008128 0.80765,-0.489968 2.65643,-1.727275 4.10839,-2.749571 1.45197,-1.022296 2.68279,-1.970399 2.73517,-2.106895 0.0524,-0.136497 0.0525,-0.382822 2.7e-4,-0.54739 -0.0522,-0.164568 -0.28832,-0.399199 -0.52463,-0.521402 -0.23632,-0.122204 -1.18522,-0.441812 -2.10867,-0.71024 -0.92344,-0.268428 -2.68699,-0.739718 -3.91899,-1.047312 -1.232,-0.307593 -2.888,-0.669473 -3.68,-0.804176 -0.792,-0.134704 -2.412,-0.353488 -3.6,-0.486187 -1.188,-0.132699 -3.563996,-0.42606 -5.279996,-0.651913 -2.7073,-0.356323 -3.78668,-0.414836 -8.16,-0.442348 -4.9706,-0.03127 -5.05322,-0.02646 -6,0.349397 -0.528,0.209607 -1.41639,0.703707 -1.97419,1.097999 -0.59894,0.423366 -1.33574,1.151638 -1.79953,1.778686 -0.43194,0.583985 -1.43106,2.364265 -2.22028,3.956176 -0.78922,1.591912 -1.66992,3.571912 -1.95713,4.4 -0.49198,1.41853 -0.52238,1.635178 -0.52553,3.745616 -0.003,2.146716 0.0146,2.270507 0.42732,2.972559 0.23687,0.402908 0.70641,0.915041 1.04344,1.138073 0.33702,0.223032 1.04322,0.556289 1.56933,0.740569 0.52611,0.184281 1.10057,0.370601 1.27657,0.414045 0.176,0.04344 1.004,0.05033 1.84,0.01529 1.08313,-0.04539 2.14081,-0.230173 3.68,-0.642916 z"
       id="path8" /></g></svg>
