<?xml version="1.0" encoding="UTF-8" standalone="no"?>
<!-- Created with Inkscape (http://www.inkscape.org/) -->

<svg
   width="144.42206"
   height="144.40051"
   viewBox="0 0 144.42206 144.40051"
   version="1.1"
   id="svg1"
   xml:space="preserve"
   xmlns:inkscape="http://www.inkscape.org/namespaces/inkscape"
   xmlns:sodipodi="http://sodipodi.sourceforge.net/DTD/sodipodi-0.dtd"
   xmlns="http://www.w3.org/2000/svg"
   xmlns:svg="http://www.w3.org/2000/svg"><sodipodi:namedview
     id="namedview1"
     pagecolor="#ffffff"
     bordercolor="#000000"
     borderopacity="0.25"
     inkscape:showpageshadow="2"
     inkscape:pageopacity="0.0"
     inkscape:pagecheckerboard="0"
     inkscape:deskcolor="#d1d1d1"
     inkscape:document-units="px"><inkscape:page
       x="0"
       y="0"
       width="144.42206"
       height="144.40051"
       id="page2"
       margin="0"
       bleed="0" /></sodipodi:namedview><defs
     id="defs1" /><g
     inkscape:label="Camada 1"
     inkscape:groupmode="layer"
     id="layer1"
     transform="translate(-17.524149,-11.552753)"><path
       style="fill:#000000;stroke-width:0.240166"
       d="M 82.882528,155.78092 C 65.394825,153.95219 49.91765,146.422 37.666691,133.78183 27.325052,123.11162 20.639593,109.67211 18.205818,94.660483 17.558868,90.670068 17.3071,81.065605 17.738757,76.843026 20.778193,47.110455 41.475432,22.429219 70.249971,14.223947 c 13.684891,-3.902353 28.742738,-3.518231 42.402769,1.081688 10.49641,3.534586 20.06851,9.506079 28.06204,17.506327 5.87355,5.878501 10.09986,11.792571 13.80423,19.316917 5.54247,11.257961 8.00751,23.209232 7.31242,35.453058 -0.83864,14.772233 -5.59593,27.726633 -14.62389,39.821773 -2.68969,3.60348 -9.04301,10.10048 -12.68835,12.97529 -9.98493,7.87438 -21.80989,13.02215 -34.29784,14.93093 -3.754296,0.57385 -13.75694,0.84557 -17.338822,0.47099 z m 14.360621,-2.99106 c 13.487571,-1.57776 25.539211,-6.63273 36.023391,-15.10976 2.51299,-2.03187 7.16182,-6.59482 9.26001,-9.08893 8.58374,-10.20345 13.88297,-22.0076 15.87942,-35.371683 0.60585,-4.055405 0.61499,-14.245197 0.0161,-18.02227 -2.21417,-13.966203 -8.8406,-27.013442 -18.786,-36.988947 -2.67277,-2.680859 -6.32212,-5.758224 -6.55377,-5.526565 -0.0691,0.06909 1.54199,1.836728 3.58015,3.928093 2.0382,2.091364 4.60284,4.926297 5.69921,6.29985 9.78202,12.255058 14.62331,26.938892 14.12544,42.843043 -0.22264,7.111876 -1.14495,12.259181 -3.40359,18.994759 -1.2918,3.85238 -3.22245,8.45857 -4.36256,10.40828 -0.57928,0.99065 -0.60623,1.28709 -0.20551,2.26046 0.14142,0.3435 0.0456,0.42029 -0.52414,0.42029 -0.62131,0 -0.88313,0.28297 -2.40586,2.59997 -9.97637,15.18035 -26.77929,26.14229 -44.7709,29.20778 -5.820011,0.99165 -15.480708,1.11549 -20.744831,0.26595 -9.87819,-1.59421 -18.01196,-4.6702 -26.515705,-10.02761 -7.613403,-4.79648 -15.294772,-12.48602 -20.283306,-20.30488 -0.979828,-1.53572 -1.197034,-1.74121 -1.840654,-1.74121 -0.718264,0 -0.724364,-0.0107 -0.386811,-0.65454 0.323191,-0.61679 0.277103,-0.78642 -0.799057,-2.94203 -2.405934,-4.81914 -5.286363,-13.03868 -5.893478,-16.817521 -0.233945,-1.456143 -0.582858,-2.058079 -0.592561,-1.022276 -0.02377,2.536943 2.08668,10.653977 3.958677,15.225377 9.506414,23.21467 30.159864,38.70791 54.994719,41.25447 3.28619,0.33697 11.30581,0.28723 14.531524,-0.0901 z m 1.799755,-4.32167 c 14.754476,-2.3751 27.729266,-9.04107 37.710816,-19.37442 4.17608,-4.32325 9.40604,-11.37371 8.71956,-11.75473 -0.30717,-0.17048 -41.53865,-15.68001 -50.18789,-18.878541 l -4.23787,-1.567185 -0.165908,-4.358653 c -0.09126,-2.397261 -0.129569,-4.915014 -0.08514,-5.595007 l 0.08078,-1.236351 15.610788,8.763545 c 8.58593,4.819952 21.27062,11.941842 28.18818,15.826422 6.9176,3.88458 12.67256,7.06288 12.78883,7.06288 0.4433,0 0.18111,-0.47852 -0.56912,-1.03867 -1.75648,-1.31147 -47.19256,-34.681625 -47.913082,-35.189367 -0.429296,-0.302523 -0.77953,-0.623738 -0.778306,-0.713812 0.0024,-0.09008 0.73073,-0.578091 1.62112,-1.084481 1.302828,-0.740955 1.701558,-0.869131 2.042258,-0.656515 0.43912,0.274044 3.46364,2.739656 21.67189,17.667076 12.24677,10.040089 22.67624,18.575859 23.104,18.908939 0.52905,0.41198 3.52175,-6.10681 5.31741,-11.58262 1.99917,-6.096436 2.90464,-11.489201 3.0848,-18.372686 0.14707,-5.617014 -0.20178,-9.745241 -1.2581,-14.890283 C 149.97532,51.833458 137.94389,35.6714 121.10185,26.49591 112.68432,21.910078 102.58182,18.969807 93.57966,18.485765 l -2.85053,-0.153272 0.134996,0.578036 c 0.156588,0.6704 9.187854,55.729574 9.302804,56.714456 0.0725,0.621052 -0.186685,0.812794 -4.603261,3.405515 -2.574026,1.511075 -4.70425,2.723219 -4.733814,2.693654 -0.02957,-0.02957 -0.220017,-14.514105 -0.423196,-32.18787 C 90.20348,31.862518 89.97088,17.294796 89.889775,17.163567 c -0.0811,-0.131236 -0.237548,-0.148129 -0.347664,-0.03755 -0.165114,0.165794 -6.950568,59.422438 -6.950568,60.698451 0,0.322347 -0.341348,0.211181 -1.741202,-0.567055 -1.410807,-0.784332 -1.73335,-1.070688 -1.699895,-1.509187 0.02281,-0.297651 2.157194,-13.206647 4.743277,-28.686656 2.586081,-15.48001 4.701967,-28.276086 4.701967,-28.435721 0,-0.219339 -0.657286,-0.250329 -2.690435,-0.126848 -29.694276,1.803504 -54.56266,23.44707 -60.328226,52.505135 -0.949976,4.787796 -1.198908,7.467317 -1.19372,12.848874 0.0067,6.927601 0.803498,12.186378 2.89299,19.09319 1.605341,5.30655 4.882596,12.72912 5.433129,12.30543 0.158317,-0.12185 10.194848,-8.3377 22.303364,-18.257433 12.108514,-9.919726 22.213494,-18.159444 22.455508,-18.310482 0.362411,-0.226182 0.725517,-0.112232 2.058726,0.646097 0.890271,0.50639 1.591268,1.006243 1.557765,1.110781 -0.03353,0.104542 -11.12924,8.318212 -24.657135,18.252607 -13.527919,9.9344 -24.645558,18.21402 -24.705887,18.39917 -0.07659,0.23504 0.03211,0.29954 0.3602,0.21374 0.392455,-0.10258 15.126679,-8.35709 50.74974,-28.431234 l 5.643897,-3.180422 0.07854,1.961267 c 0.04318,1.078698 0.0055,3.593742 -0.0837,5.588984 l -0.162208,3.627715 -27.106105,10.1621 c -14.90837,5.58915 -27.229719,10.23849 -27.380808,10.33187 -0.340146,0.21022 2.341065,4.26587 5.02893,7.60683 2.566508,3.19012 7.741939,8.16352 11.217091,10.7792 9.805421,7.38036 21.374787,11.87771 33.845112,13.15655 2.315775,0.23749 12.817483,-0.0685 15.130448,-0.44078 z m 35.544546,-39.42885 c -1.88693,-1.13978 -33.14325,-19.637131 -38.466571,-22.764332 -2.267574,-1.332094 -4.050807,-2.48683 -3.962737,-2.566081 0.08808,-0.07926 0.756186,-0.477943 1.484681,-0.885985 l 1.324588,-0.741893 8.882459,5.970088 c 4.88538,3.283548 14.15113,9.507482 20.59058,13.830963 6.43944,4.32349 11.70808,7.89868 11.70808,7.9449 0,0.14631 -0.0899,0.10106 -1.56108,-0.78766 z M 74.30582,91.462361 c 0.132092,-0.127627 2.455696,-2.040999 5.163566,-4.251933 2.707871,-2.210934 5.108184,-4.180845 5.334037,-4.377582 0.368006,-0.320569 0.526034,-0.290073 1.522267,0.293757 1.019047,0.597201 1.074862,0.676681 0.67011,0.954299 -0.868176,0.595493 -12.925295,7.608841 -12.68998,7.381459 z M 87.514944,81.195406 c -0.528366,-0.320107 -1.046932,-0.611363 -1.15239,-0.647232 -0.150223,-0.05109 2.137717,-39.545608 2.55635,-44.127915 0.139461,-1.526408 -0.117781,33.058391 -0.295956,39.7904 l -0.147334,5.566763 z M 43.41583,136.86963 c -0.180221,-0.23116 -0.940514,-1.06875 -1.689568,-1.86129 -17.912698,-18.9532 -24.722139,-46.802962 -17.371917,-71.049078 2.476158,-8.168088 7.009673,-16.61297 12.527652,-23.336101 2.890708,-3.522052 8.213288,-8.654467 11.659454,-11.242875 24.318595,-18.265646 57.090119,-18.44245 81.843089,-0.441542 11.56585,8.410911 20.50781,19.964215 25.77292,33.299346 1.06077,2.686664 2.80682,7.943953 2.80682,8.451212 0,0.05666 0.0952,0.04417 0.21164,-0.02776 0.31017,-0.191699 -0.81302,-4.770687 -2.17674,-8.874099 C 152.16333,47.236532 142.76133,34.677776 130.00724,25.732878 121.25791,19.596654 111.34814,15.608794 100.34302,13.7955 95.920652,13.066831 84.026149,12.999603 79.709552,13.678879 66.273954,15.793162 54.503544,21.077517 44.383529,29.538598 30.86332,40.842495 22.30047,56.104671 19.502307,73.886135 c -0.625142,3.972582 -0.625142,15.721019 0,19.693601 2.050657,13.031274 7.077366,24.498424 15.212746,34.703974 2.250833,2.82357 8.247175,9.00622 8.734856,9.00622 0.218359,0 0.209617,-0.10763 -0.03408,-0.4203 z"
       id="path1"
       sodipodi:nodetypes="ssssssssssssssssscssssssssscssssssssssssssssscsscssssscssssssssscssssssssscssssssssssssssscsscsssssssssscsssssssssssssscsscsssssssssssssssss" /></g></svg>
