<?xml version="1.0" encoding="UTF-8" standalone="no"?>
<!-- Created with Inkscape (http://www.inkscape.org/) -->

<svg
   width="110.47133"
   height="92.459656"
   viewBox="0 0 110.47133 92.459656"
   version="1.1"
   id="svg1"
   xml:space="preserve"
   xmlns:inkscape="http://www.inkscape.org/namespaces/inkscape"
   xmlns:sodipodi="http://sodipodi.sourceforge.net/DTD/sodipodi-0.dtd"
   xmlns="http://www.w3.org/2000/svg"
   xmlns:svg="http://www.w3.org/2000/svg"><sodipodi:namedview
     id="namedview1"
     pagecolor="#ffffff"
     bordercolor="#000000"
     borderopacity="0.25"
     inkscape:showpageshadow="2"
     inkscape:pageopacity="0.0"
     inkscape:pagecheckerboard="0"
     inkscape:deskcolor="#d1d1d1"
     inkscape:document-units="px"><inkscape:page
       x="0"
       y="0"
       width="110.47133"
       height="92.459656"
       id="page2"
       margin="0"
       bleed="0" /></sodipodi:namedview><defs
     id="defs1" /><g
     inkscape:label="Camada 1"
     inkscape:groupmode="layer"
     id="layer1"
     transform="translate(-29.786638,-42.769672)"><path
       style="fill:#000000;stroke-width:0.0909211"
       d="m 82.021058,135.12854 c -13.97156,-0.95784 -26.77132,-8.16816 -34.84582,-19.62924 -1.1419,-1.62083 -2.3849,-3.74166 -3.53919,-6.03872 -0.58007,-1.1543 -1.19199,-2.31405 -1.35984,-2.57722 -0.69512,-1.08994 -1.69795,-1.73347 -3.15263,-2.02309 -0.45959,-0.0915 -2.0119,-0.2998 -3.44958,-0.46289 l -2.61399,-0.29653 v -0.75618 -0.75618 h 6.25503 6.25503 l 0.52835,1.38655 c 2.17147,5.69834 5.48337,10.74696 9.79655,14.93381 1.5883,1.54176 2.46665,2.29008 4.25105,3.62168 10.36308,7.73342 23.91582,10.18458 36.45445,6.5932 9.201042,-2.6354 17.239422,-8.37484 22.681162,-16.19444 1.96416,-2.82244 3.5233,-5.80208 4.79248,-9.15883 l 0.42972,-1.13651 6.28501,-0.0233 6.28501,-0.0234 v 0.77345 c 0,0.4969 -0.0354,0.77345 -0.099,0.77345 -0.37362,0 -5.62182,0.66485 -6.1522,0.77936 -1.01347,0.21883 -1.82803,0.67069 -2.46795,1.36905 -0.45306,0.49443 -0.71642,0.93892 -1.56596,2.64295 -1.21715,2.44137 -1.99341,3.81451 -3.12521,5.52819 -4.2227,6.3937 -9.92414,11.58577 -16.7786,15.27959 -7.496862,4.03999 -16.412632,5.97464 -24.863912,5.39525 z M 29.786818,88.95031 v -6.455407 h 1.81103 1.81098 l 4.71259,4.773129 c 2.59193,2.625223 4.74293,4.773237 4.77997,4.773362 0.0373,9.2e-5 0.078,-2.137551 0.0909,-4.750396 l 0.0234,-4.750634 1.38655,-0.02511 1.38655,-0.02511 v 6.457771 6.457771 h -1.81048 -1.81048 l -4.7074,-4.773363 c -2.58909,-2.625349 -4.74068,-4.773362 -4.78131,-4.773362 -0.0406,0 -0.0739,2.148013 -0.0739,4.773362 v 4.773363 h -1.40927 -1.40931 z m 22.29783,0.02272 0.0234,-6.432674 h 1.40927 1.40928 l 0.0234,6.432674 0.0234,6.432674 h -1.45598 -1.45597 z m 49.411762,6.309302 c 0.04,-0.06785 1.84875,-2.972785 4.01946,-6.455402 l 3.94676,-6.332035 h 1.43025 c 1.23115,0 1.45597,0.02214 1.61501,0.159115 0.14915,0.128447 3.14457,4.88597 7.44192,11.819754 l 0.5776,0.93194 h -1.71977 -1.71976 l -0.70399,-1.136515 -0.70399,-1.136515 -4.69144,9.2e-5 -4.69144,9.2e-5 -0.71147,1.136394 -0.71148,1.136397 h -1.72519 c -1.42774,0 -1.71264,-0.02126 -1.65247,-0.123371 z m 12.57956,-4.776677 c -0.0507,-0.09468 -0.56963,-0.943661 -1.15323,-1.886615 -0.58359,-0.942958 -1.24219,-2.011095 -1.46353,-2.373643 -0.22135,-0.362552 -0.43007,-0.658806 -0.46383,-0.65835 -0.0492,8.37e-4 -2.05926,3.179106 -2.99874,4.741888 l -0.20973,0.348867 h 3.1906 c 3.10254,0 3.18805,-0.0048 3.09846,-0.172147 z m 10.20011,-1.532625 0.0234,-6.432674 1.78553,-0.02461 1.78553,-0.02461 4.21916,4.252454 c 2.32054,2.338849 4.47235,4.518396 4.78181,4.843443 l 0.56265,0.590985 0.002,-4.846912 0.002,-4.846913 1.38655,0.02808 1.38655,0.02808 0.0234,6.432674 0.0233,6.432674 -1.7963,0.0029 -1.7963,0.0029 -4.74638,-4.798933 -4.74638,-4.798932 -0.004,4.796091 -0.004,4.796095 h -1.45535 -1.45535 z m -63.464902,5.04845 0.0252,-1.297948 6.09577,-0.04546 c 6.79572,-0.05068 6.39926,-0.01017 6.72029,-0.686695 0.28566,-0.601971 0.0538,-1.339198 -0.51982,-1.652636 -0.26811,-0.146502 -0.72869,-0.165275 -5.11347,-0.208434 -5.29061,-0.05208 -5.12977,-0.0352 -5.99261,-0.628847 -0.50007,-0.344059 -0.89449,-0.837992 -1.21435,-1.520753 -0.22565,-0.481671 -0.24858,-0.627034 -0.24858,-1.576199 0,-0.949164 0.0229,-1.094527 0.24858,-1.576198 0.48699,-1.039505 1.14455,-1.617329 2.27466,-1.998838 0.55128,-0.186103 0.74758,-0.192716 6.63708,-0.223504 l 6.06898,-0.03172 v 1.32415 1.324145 h -5.77801 c -6.37639,0 -6.13804,-0.02101 -6.50003,0.572673 -0.3271,0.536464 -0.13988,1.326861 0.38523,1.626363 0.16299,0.09296 1.29839,0.129536 5.11919,0.164915 l 4.90974,0.04546 0.59099,0.28136 c 0.77634,0.369608 1.31546,0.923013 1.71882,1.764366 0.31946,0.666372 0.3269,0.706874 0.3269,1.777677 0,1.083442 -0.004,1.103555 -0.34179,1.787337 -0.41527,0.840247 -1.09991,1.507357 -1.86335,1.815647 l -0.52249,0.210995 -6.52611,0.02507 -6.5261,0.02507 z m 21.45742,-0.0025 0.0252,-1.295626 6.10853,-0.04546 6.10852,-0.04546 0.28014,-0.268433 c 0.61818,-0.59235 0.51387,-1.634637 -0.20279,-2.026387 -0.26587,-0.145334 -0.73597,-0.164267 -5.11162,-0.205861 l -4.81883,-0.04581 -0.54485,-0.219013 c -0.67991,-0.273296 -1.46229,-1.030992 -1.7967,-1.740014 -0.91872,-1.947894 -0.16583,-4.224527 1.68321,-5.089763 0.8879,-0.415483 1.71537,-0.461345 7.79566,-0.432088 l 5.40981,0.02603 0.0252,1.295629 0.0252,1.295626 h -5.78051 c -6.28777,0 -6.07615,-0.01666 -6.49082,0.510513 -0.21662,0.27538 -0.25295,0.861721 -0.0749,1.208224 0.0618,0.120195 0.22777,0.30431 0.36886,0.409146 0.2512,0.186627 0.35939,0.191557 5.18251,0.236067 l 4.92596,0.04546 0.5199,0.243675 c 1.42481,0.667813 2.24001,2.1153 2.13856,3.797302 -0.10321,1.711121 -1.01103,2.96493 -2.50126,3.454536 -0.55377,0.181944 -0.75316,0.18733 -6.93524,0.18733 h -6.36506 z M 33.060008,74.648702 v -0.754155 l 2.92635,-0.346269 c 3.25921,-0.385652 3.65586,-0.465195 4.5878,-0.920112 1.06975,-0.522186 1.47987,-1.047941 2.67709,-3.432105 2.04253,-4.06761 3.7822,-6.784592 6.30094,-9.840787 1.24668,-1.512756 4.56403,-4.790852 6.14718,-6.074517 10.71692,-8.689474 24.29817,-12.201774 37.68684,-9.746337 4.13645,0.758609 7.977212,2.032351 11.910682,3.950031 4.86553,2.37209 8.69812,5.103372 12.50518,8.911772 3.79788,3.799219 6.14658,7.096235 8.83043,12.395817 1.99023,3.929939 2.2314,4.089845 7.0237,4.657165 1.45465,0.172205 2.8187,0.336957 3.03123,0.366117 l 0.38642,0.05302 v 0.767882 0.767882 l -6.28431,-0.02335 -6.28431,-0.02335 -0.38543,-1.045594 c -1.18728,-3.220959 -2.97777,-6.650176 -4.88966,-9.364882 -6.46026,-9.172958 -16.19517,-15.308988 -27.253212,-17.178018 -2.46232,-0.416182 -3.64096,-0.501286 -6.95547,-0.502228 -3.39918,-8.37e-4 -4.38566,0.07456 -7.13731,0.546442 -14.5727,2.499082 -26.88134,12.727036 -31.91668,26.521419 l -0.38999,1.068321 h -6.25876 -6.25871 z"
       id="path2" /></g></svg>
