<?xml version="1.0" encoding="UTF-8" standalone="no"?>
<!-- Created with Inkscape (http://www.inkscape.org/) -->

<svg
   width="139.03781"
   height="111.19923"
   viewBox="0 0 139.03781 111.19923"
   version="1.1"
   id="svg1"
   xml:space="preserve"
   xmlns:inkscape="http://www.inkscape.org/namespaces/inkscape"
   xmlns:sodipodi="http://sodipodi.sourceforge.net/DTD/sodipodi-0.dtd"
   xmlns="http://www.w3.org/2000/svg"
   xmlns:svg="http://www.w3.org/2000/svg"><sodipodi:namedview
     id="namedview1"
     pagecolor="#ffffff"
     bordercolor="#000000"
     borderopacity="0.25"
     inkscape:showpageshadow="2"
     inkscape:pageopacity="0.0"
     inkscape:pagecheckerboard="0"
     inkscape:deskcolor="#d1d1d1"
     inkscape:document-units="px"><inkscape:page
       x="0"
       y="0"
       width="139.03781"
       height="111.19923"
       id="page2"
       margin="0"
       bleed="0" /></sodipodi:namedview><defs
     id="defs1" /><g
     inkscape:label="Camada 1"
     inkscape:groupmode="layer"
     id="layer1"
     transform="translate(-21.783661,-31.639604)"><path
       style="fill:#000000;stroke-width:0.362162"
       d="m 86.654767,142.68561 c -7.841816,-0.58902 -15.937644,-3.10421 -22.888621,-7.11096 -4.800982,-2.76744 -7.810612,-5.07975 -11.770883,-9.04361 -2.937128,-2.9398 -4.761463,-5.12211 -6.790275,-8.12267 -4.762684,-7.0439 -7.626217,-14.47709 -9.018435,-23.410143 -0.429502,-2.755866 -0.629817,-8.01215 -0.417366,-10.951766 0.05067,-0.701145 0.08649,-1.2812 0.07959,-1.289012 -0.0069,-0.0078 -1.3424,-0.09992 -2.967782,-0.204691 -9.790369,-0.631063 -10.37493,-0.677381 -10.638244,-0.842913 -0.313371,-0.197002 -0.524757,-0.686391 -0.440461,-1.019721 0.03289,-0.129969 0.585667,-0.966425 1.228435,-1.858791 0.642772,-0.892367 1.330636,-1.857165 1.528594,-2.143997 0.505842,-0.732959 0.793605,-1.035782 1.194333,-1.256848 0.305078,-0.168302 1.014354,-0.198898 5.789377,-0.249745 l 5.4417,-0.05795 0.161097,-0.695351 c 1.987895,-8.580507 6.339804,-17.008919 12.296977,-23.815753 0.886402,-1.012829 3.798059,-3.95447 4.852815,-4.902793 10.673996,-9.596878 25.284067,-14.74991 39.684555,-13.996903 6.801167,0.355636 12.033727,1.539855 18.982017,4.295962 0.98535,0.390847 3.80098,1.765058 5.12424,2.500965 9.85893,5.482824 17.78875,13.675007 22.78054,23.534213 2.10053,4.148727 3.39704,7.687729 4.60065,12.558147 1.11108,4.495973 1.67657,11.145209 1.34043,15.761277 -0.0534,0.733015 -0.086,1.344898 -0.0726,1.359736 0.0135,0.01485 1.24659,0.1077 2.74027,0.206353 1.49369,0.09866 4.22818,0.282783 6.07665,0.409177 1.84848,0.126395 3.63867,0.2291 3.97821,0.228242 0.52891,-0.0014 0.66588,0.04697 0.95611,0.337198 0.47917,0.479176 0.44881,0.907142 -0.12238,1.724684 -1.82419,2.61096 -3.02132,4.1611 -3.37313,4.3678 -0.37711,0.22156 -0.6554,0.23527 -5.89777,0.29048 l -5.50199,0.0579 -0.24858,1.043033 c -1.44488,6.06261 -4.03507,12.02395 -7.54735,17.37029 -2.20198,3.35183 -4.02568,5.57193 -7.15857,8.71458 -3.06559,3.07514 -5.28031,4.91876 -8.40343,6.99533 -0.60553,0.40263 -1.23135,0.82054 -1.3907,0.9287 -0.77723,0.52754 -4.0212,2.3149 -5.41442,2.98324 -4.92096,2.36061 -10.67412,4.14638 -15.619929,4.8484 -0.701145,0.0995 -1.353036,0.20375 -1.448647,0.23161 -0.09561,0.0279 -1.262713,0.12976 -2.593563,0.22642 -2.811258,0.20419 -6.391767,0.20413 -9.111503,-1.6e-4 z m 8.402152,-7.82776 c 4.924754,-0.34776 10.472401,-1.73709 15.131621,-3.78949 2.36633,-1.04238 5.14663,-2.56813 7.27322,-3.99135 8.13383,-5.44357 14.3629,-13.02661 18.10583,-22.04137 0.55204,-1.32956 1.84776,-5.207423 1.84776,-5.530003 0,-0.21481 -0.74279,-0.21941 -35.42643,-0.21941 H 66.562487 l -0.268228,-0.25199 c -0.298504,-0.28043 -0.360535,-0.86335 -0.123359,-1.15925 0.07968,-0.0994 1.005361,-0.77152 2.057078,-1.49358 1.051718,-0.72207 4.598006,-3.170832 7.880639,-5.441709 3.282634,-2.270872 6.298507,-4.354076 6.701937,-4.629341 0.87319,-0.595781 0.809891,-0.695215 -0.443782,-0.697147 -0.478054,-7.24e-4 -2.381576,-0.102689 -4.230049,-0.226562 -1.848473,-0.123872 -5.134005,-0.335014 -7.30118,-0.469204 -2.167176,-0.13419 -5.530934,-0.344276 -7.475018,-0.466857 -1.944084,-0.122581 -5.281767,-0.331096 -7.417072,-0.463366 -2.135306,-0.132269 -5.394761,-0.342947 -7.243235,-0.468173 -1.848473,-0.125226 -3.731229,-0.227278 -4.183898,-0.226783 l -0.823042,9.05e-4 -0.07443,0.956107 c -0.215182,2.764236 0.0082,7.54596 0.488604,10.45923 1.651649,10.015923 6.257517,18.949343 13.50807,26.199893 3.224909,3.22491 6.377683,5.64341 10.264779,7.87413 6.06044,3.47796 12.944363,5.60197 19.701598,6.07885 3.269614,0.23074 4.163483,0.23032 7.475018,-0.004 z M 139.00775,88.530455 c 0.16356,-6.45798 -0.88356,-12.532614 -3.16016,-18.333057 -4.11981,-10.496668 -11.70821,-19.170117 -21.652,-24.747974 -2.42765,-1.361759 -5.59825,-2.764693 -8.01306,-3.545631 -3.96572,-1.282493 -7.21324,-1.937414 -11.125611,-2.24368 -5.922569,-0.463627 -11.492884,0.106888 -17.036088,1.744848 -1.733929,0.512358 -2.203978,0.673361 -4.056211,1.389341 -1.532531,0.592399 -3.975424,1.755427 -5.579333,2.656246 -9.56991,5.37483 -16.885888,13.499214 -21.136135,23.471651 -0.722009,1.694072 -2.083632,5.642903 -2.083632,6.042733 0,0.210015 0.949161,0.215811 35.34153,0.215811 26.01957,0 35.41733,0.03453 35.62888,0.130925 0.15804,0.07201 0.34935,0.280614 0.42513,0.463567 0.25745,0.621531 0.0311,0.869172 -2.16177,2.36526 -1.11748,0.762404 -2.53683,1.734811 -3.15412,2.160906 -0.61728,0.426094 -2.08712,1.432746 -3.26632,2.237005 -1.1792,0.804258 -3.16095,2.160725 -4.40389,3.01437 -1.24294,0.853646 -2.7814,1.906013 -3.41881,2.338592 l -1.158912,0.786509 0.463567,0.08237 c 0.254962,0.0453 0.802545,0.08497 1.216865,0.08815 0.41431,0.0032 2.26568,0.108771 4.11415,0.234652 1.84848,0.12588 5.05578,0.336011 7.12735,0.466957 2.07156,0.130947 5.35709,0.339651 7.30118,0.463786 1.94408,0.124134 5.22961,0.332816 7.30118,0.463741 2.07156,0.130925 5.35709,0.342007 7.30118,0.469072 4.29773,0.280896 4.89793,0.306091 5.02289,0.210836 0.0536,-0.04087 0.12659,-1.223013 0.16215,-2.626979 z"
       id="path1" /></g></svg>
