<?xml version="1.0" encoding="UTF-8" standalone="no"?>
<!-- Created with Inkscape (http://www.inkscape.org/) -->

<svg
   width="125.29402"
   height="120.13101"
   viewBox="0 0 125.29402 120.13101"
   version="1.1"
   id="svg1"
   xml:space="preserve"
   xmlns:inkscape="http://www.inkscape.org/namespaces/inkscape"
   xmlns:sodipodi="http://sodipodi.sourceforge.net/DTD/sodipodi-0.dtd"
   xmlns="http://www.w3.org/2000/svg"
   xmlns:svg="http://www.w3.org/2000/svg"><sodipodi:namedview
     id="namedview1"
     pagecolor="#ffffff"
     bordercolor="#000000"
     borderopacity="0.25"
     inkscape:showpageshadow="2"
     inkscape:pageopacity="0.0"
     inkscape:pagecheckerboard="0"
     inkscape:deskcolor="#d1d1d1"
     inkscape:document-units="px"><inkscape:page
       x="0"
       y="0"
       width="125.29402"
       height="120.13101"
       id="page2"
       margin="0"
       bleed="0" /></sodipodi:namedview><defs
     id="defs1" /><g
     inkscape:label="Camada 1"
     inkscape:groupmode="layer"
     id="layer1"
     transform="translate(-25.318254,-28.775604)"><path
       style="fill:#000000"
       d="m 66.518255,148.75359 c -2.44199,-0.4098 -4.40583,-1.79396 -5.29221,-3.73006 -0.22387,-0.48899 -0.44202,-1.40116 -0.54031,-2.2592 -0.19443,-1.69727 -0.22132,-11.10651 -0.0326,-11.40392 0.0975,-0.15363 0.66687,-0.19363 2.27755,-0.16 l 2.14757,0.0448 0.08,6.4 0.08,6.4 0.4,0.7129 c 0.60792,1.08346 1.53596,1.65767 2.81025,1.73881 1.69443,0.10789 3.01316,-0.62738 3.63993,-2.02948 0.13005,-0.29091 0.21379,-2.41267 0.26928,-6.82223 l 0.0805,-6.4 2.20684,-0.0446 2.20683,-0.0446 -0.0468,6.44456 -0.0468,6.44456 -0.43261,0.92319 c -0.82191,1.75397 -2.86222,3.25935 -5.04422,3.72173 -1.17126,0.24819 -3.479,0.27892 -4.76317,0.0634 z m 20.4,-0.0544 c -3.82312,-0.68454 -6.32642,-2.94507 -7.2799,-6.57391 -0.32355,-1.23138 -0.32561,-3.25391 -0.005,-4.48 1.2439,-4.75041 5.50183,-7.3602 11.52446,-7.06363 1.95306,0.0962 4.1517,0.54413 4.82007,0.98207 l 0.36071,0.23634 -0.32508,0.96261 c -0.17879,0.52944 -0.37246,0.96176 -0.43039,0.96071 -0.0579,-0.001 -0.50131,-0.1108 -0.98531,-0.24389 -0.484,-0.1331 -1.6,-0.28556 -2.48,-0.33881 -2.75603,-0.16676 -4.63952,0.57497 -6.26062,2.46547 -1.08769,1.26845 -1.51881,2.43248 -1.53138,4.1348 -0.0223,3.02266 1.20938,5.36788 3.36914,6.41507 0.7857,0.38096 1.10011,0.43851 2.42286,0.44351 0.836,0.003 1.646,-0.046 1.8,-0.10923 0.2524,-0.10364 0.28,-0.40601 0.28,-3.06691 0,-1.62357 0.0437,-3.06583 0.0971,-3.20502 0.0821,-0.21398 0.44062,-0.25309 2.32,-0.25309 h 2.22288 v 3.67437 c 0,4.18425 0.15907,3.74535 -1.57563,4.3476 -2.36066,0.81957 -6.00614,1.1306 -8.34437,0.71194 z m 36.239995,0.12596 c -0.176,-0.0347 -0.716,-0.14185 -1.2,-0.2382 -1.21203,-0.24128 -2.87868,-1.14563 -3.82132,-2.07352 -1.64132,-1.61564 -2.42027,-3.72554 -2.41631,-6.54493 0.004,-3.05565 0.81762,-5.15687 2.66502,-6.88502 1.71142,-1.60095 3.51734,-2.33581 6.12641,-2.49294 4.9987,-0.30104 8.87027,2.4541 9.61047,6.83912 0.22867,1.35467 0.12051,3.60614 -0.23676,4.92837 -0.8863,3.28013 -3.40464,5.63053 -6.77797,6.32595 -1.07015,0.22062 -3.1657,0.29552 -3.94954,0.14117 z m 3.30265,-2.32556 c 1.93134,-0.57864 3.16944,-3.12802 3.17337,-6.53431 0.003,-2.6379 -0.5816,-4.63797 -1.74209,-5.95969 -1.05275,-1.19902 -3.2452,-1.56496 -4.74551,-0.79208 -1.62646,0.83787 -2.49682,2.5112 -2.78306,5.35062 -0.29772,2.95321 0.47128,5.85173 1.89473,7.14168 1.0041,0.90991 2.72809,1.23554 4.20256,0.79378 z M 25.318255,139.64525 v -8.48 l 5.96,0.003 c 6.49358,0.003 7.53954,0.10664 8.85423,0.8771 1.54766,0.90699 2.41591,2.75449 2.26046,4.80991 -0.20479,2.7078 -1.59252,4.16803 -4.55842,4.79657 -0.72491,0.15362 -2.12965,0.22899 -4.30294,0.23086 -2.43584,0.002 -3.24357,0.0518 -3.29563,0.20278 -0.0379,0.11 -0.034,1.32549 0.009,2.70109 0.0428,1.3756 0.0304,2.6896 -0.0274,2.92 l -0.10514,0.41891 h -2.39695 -2.39695 z m 10.33293,-0.18382 c 2.04417,-1.05485 2.45711,-3.51836 0.84615,-5.04807 -0.87482,-0.83071 -1.42313,-0.97561 -3.81908,-1.00927 -1.188,-0.0167 -2.25,-0.0233 -2.36,-0.0146 -0.15275,0.012 -0.2,0.76549 -0.2,3.18909 0,1.74533 0.054,3.22901 0.12,3.29707 0.066,0.0681 1.13382,0.0941 2.37293,0.0578 2.0261,-0.0593 2.33216,-0.10679 3.04,-0.47206 z m 8.78044,8.46382 c -0.0421,-0.11 -0.0579,-3.908 -0.035,-8.44 l 0.0416,-8.24 6.52,-0.0418 6.52,-0.0418 v 1.20179 c 0,1.03591 -0.0387,1.20252 -0.28,1.20703 -0.154,0.003 -2.026,6e-4 -4.16,-0.005 l -3.88,-0.0103 v 2.08508 2.08507 h 3.10692 c 1.7088,0 3.2208,0.0437 3.36,0.0971 0.19116,0.0734 0.25308,0.32781 0.25308,1.04 v 0.94288 h -3.36 -3.36 v 2.8 2.8 h 4.16 4.16 v 1.36 1.36 h -6.48502 c -5.0405,0 -6.50208,-0.0445 -6.56161,-0.2 z m 56.246625,-8.28 v -8.48359 l 6.52,0.0418 6.52,0.0418 v 1.2 1.2 l -4.2,0.0427 -4.2,0.0427 v 2.07416 2.07416 l 3.4,0.0432 3.4,0.0432 v 0.96 0.96 l -3.36,0.08 -3.36,0.08 v 2.64 2.64 l 4.16,0.08 4.16,0.08 v 1.28 1.28 l -6.52,0.0418 -6.52,0.0418 z m 39.62667,8.37333 c -0.0587,-0.0587 -0.10667,-3.33467 -0.10667,-7.28 v -7.17333 h -2.72 -2.72 v -1.2 -1.2 h 7.92701 7.92701 l -0.047,1.16 -0.047,1.16 -2.8,0.08 -2.8,0.08 -0.0416,7.24 -0.0416,7.24 h -2.2117 c -1.21644,0 -2.2597,-0.048 -2.31837,-0.10667 z m -36.02667,-32.48075 c -1.90933,-1.11137 -3.95008,-1.80655 -6.044735,-2.05913 -0.77797,-0.0938 -0.91081,-0.15541 -0.83696,-0.3881 0.1329,-0.41872 0.55317,-2.66662 0.72777,-3.89261 0.24951,-1.75206 0.94511,-2.88784 2.153925,-3.51697 0.8117,-0.42245 2.91359,-0.54956 4.71995,-0.28543 1.08635,0.15884 1.42539,0.15011 2.13045,-0.0549 1.34948,-0.39231 2.0296,-1.29409 2.0296,-2.69107 0,-1.13787 -0.51099,-2.13521 -1.41528,-2.762285 -0.67471,-0.467871 -0.74471,-0.481191 -2.36529,-0.450091 -1.33443,0.02561 -1.81202,-0.02883 -2.3768,-0.270923 -0.38874,-0.166634 -2.60036,-1.587348 -4.914715,-3.157141 -2.31435,-1.569793 -4.94141,-3.347915 -5.83791,-3.951382 l -1.63001,-1.097212 -1.03523,0.908887 c -0.97077,0.852288 -11.60701,11.651377 -14.16085,14.377667 -1.85041,1.97535 -2.42372,3.69177 -1.8565,5.55806 0.14711,0.484 0.30149,1.24431 0.34307,1.68958 0.12235,1.31001 0.0195,1.33025 -2.94431,0.57922 -1.38939,-0.35207 -3.23411,-0.72823 -4.09938,-0.83589 -2.1959,-0.27323 -4.91673,-0.11602 -6.82679,0.39445 -0.836,0.22342 -1.56665,0.40767 -1.62366,0.40943 -0.057,0.002 -0.66902,-0.47059 -1.36,-1.04967 -1.82199,-1.52692 -3.32514,-2.37579 -6.07748,-3.43215 -0.32724,-0.12559 -0.28318,-0.24693 1.08131,-2.97754 1.55795,-3.11779 2.10844,-3.82888 3.40265,-4.39532 1.20929,-0.52928 2.48334,-0.48181 4.73718,0.17652 1.42781,0.41705 2.15026,0.54013 3.22498,0.54941 1.29037,0.0111 1.43147,-0.0208 2.06575,-0.46804 1.41878,-1.00036 1.7807,-2.854238 0.8496,-4.352055 l -0.49433,-0.795218 0.31656,-0.626366 c 1.24564,-2.464725 5.02888,-8.95486 6.56741,-11.266366 1.25231,-1.881493 3.80254,-5.23495 5.04956,-6.64 0.62481,-0.704 1.13292,-1.352 1.12912,-1.44 -0.0107,-0.247133 -5.76966,-7.129221 -6.28138,-7.506346 -0.43891,-0.323467 -0.59768,-0.332089 -5.2,-0.28239 -2.611,0.02819 -4.86823,0.08545 -5.01607,0.127229 -0.14785,0.04178 -0.48146,0.452753 -0.74136,0.913272 -0.94608,1.676366 -2.4197,2.618934 -4.3471,2.78052 l -1.10709,0.09281 -0.0478,-1.10255 -0.0478,-1.10255 -0.77097,-0.04922 c -1.17593,-0.07506 -2.22688,0.353016 -3.29547,1.342339 l -0.93157,0.862466 -0.70099,-0.368326 c -0.52917,-0.278044 -0.9167,-0.692677 -1.581,-1.691574 l -0.88,-1.323248 -0.61735,0.09844 -0.61736,0.09844 0.11703,-1.484666 c 0.21209,-2.690441 0.85988,-4.425054 2.06865,-5.539261 0.98883,-0.911473 1.82345,-1.100989 5.36903,-1.219144 4.77018,-0.158963 9.93338,-0.395642 10.84932,-0.497327 l 0.84932,-0.09429 -0.43957,-0.587322 c -0.24177,-0.323027 -1.09586,-1.415323 -1.89798,-2.427323 -0.80213,-1.012 -2.27105,-2.865805 -3.26428,-4.119567 l -1.80587,-2.279568 -0.66547,0.119568 c -1.32329,0.23776 -5.54318,0.09208 -6.73297,-0.232439 l -1.10749,-0.302073 0.90648,-0.782598 c 0.89939,-0.776477 0.90445,-0.785807 0.64678,-1.19296 -0.94341,-1.490757 -2.10687,-2.086567 -4.07886,-2.0888 -1.35777,-0.0015 -1.38339,-0.0088 -1.54999,-0.441563 -0.49087,-1.274928 -0.33617,-2.42132 0.46295,-3.430618 0.2572,-0.32484 0.46763,-0.661256 0.46763,-0.747591 0,-0.08634 -0.25492,-0.241107 -0.5665,-0.343935 l -0.56649,-0.186962 0.31388,-0.505447 c 0.75622,-1.217727 3.00936,-1.790643 6.53148,-1.66079 3.78153,0.139416 5.35492,0.721523 8.20763,3.036577 1.012,0.821265 4.85232,3.937959 8.53404,6.925988 3.68172,2.988028 6.77772,5.448927 6.88,5.468664 0.46745,0.09021 2.4678,-3.385647 3.32099,-5.770631 0.2021,-0.564919 0.19495,-0.633002 -0.0881,-0.84 -0.20104,-0.147001 -0.73149,-0.225255 -1.5269,-0.225255 -0.72319,0 -1.32956,-0.08133 -1.49111,-0.2 -0.24406,-0.179275 -1.22889,-2.340308 -1.22889,-2.696578 0,-0.07888 0.846,-0.14656 1.88,-0.150396 3.23622,-0.01201 5.05628,-0.223493 6.004,-0.697651 0.94863,-0.474614 1.48909,-0.855621 1.37523,-0.969483 -0.0426,-0.04258 -1.72932,-0.150514 -3.74832,-0.239857 -3.22309,-0.142625 -5.4928,-0.41819 -5.99356,-0.727677 -0.40774,-0.251992 -0.0728,-0.536524 1.00265,-0.851806 0.97213,-0.284987 1.67828,-0.349014 4.36,-0.395324 2.86544,-0.04948 3.29686,-0.09309 4.12638,-0.417125 0.81544,-0.318532 0.91352,-0.403315 0.81901,-0.707984 -0.3302,-1.064457 -1.58527,-2.080367 -2.90981,-2.355341 -1.50849,-0.313161 -2.39174,-0.01261 -4.49924,1.531021 -0.48276,0.353591 -0.70291,0.398201 -1.96514,0.398201 -2.05465,0 -2.37334,-0.173127 -3.14537,-1.70872 -1.11992,-2.227563 -1.19211,-3.06502 -0.31297,-3.63084 0.20193,-0.129962 1.55514,-0.494431 3.00714,-0.80993 1.452,-0.3155 2.79002,-0.607297 2.97338,-0.648438 0.18335,-0.04114 0.91035,-0.458781 1.61556,-0.928088 0.7052,-0.469307 1.70718,-1.006636 2.22662,-1.194064 0.51944,-0.187429 2.27644,-0.821946 3.90444,-1.410039 3.25638,-1.176319 4.29577,-1.35812 5.95607,-1.041783 2.52539,0.481162 7.458695,1.680212 7.966035,1.936162 0.65239,0.32913 2.41298,2.084861 3.45964,3.450105 0.41799,0.545212 1.78029,3.079787 3.21719,5.985635 l 2.49222,5.04 0.27981,-1.291297 c 0.56472,-2.606062 1.80805,-4.541814 3.77759,-5.88134 4.30192,-2.925832 10.19102,-1.706754 12.34231,2.554932 1.36342,2.700922 1.32861,5.101641 -0.13775,9.497705 -0.48526,1.454789 -0.46397,2.558613 0.0741,3.84 0.8807,2.097492 1.39011,3.693437 1.28481,4.025212 -0.15721,0.495322 -0.94581,0.303 -2.46636,-0.601485 -2.51833,-1.498014 -4.12044,-3.130918 -5.21136,-5.31155 -1.47229,-2.942932 -1.32146,-6.165752 0.43391,-9.271303 0.61513,-1.088283 0.55353,-1.441035 -0.33335,-1.908884 -1.96545,-1.036815 -4.02524,-0.01714 -5.25049,2.599189 -0.63355,1.352825 -0.63105,3.371789 0.007,5.428821 1.32721,4.280824 3.07934,9.383094 4.83511,14.08 2.81809,7.538732 2.85595,7.67625 2.86303,10.400001 0.006,2.160489 -0.0125,2.285434 -0.51132,3.52 -0.91767,2.271341 -2.60726,4.059832 -4.77452,5.054001 -0.95733,0.439147 -4.22846,1.452392 -5.39594,1.671413 -0.32502,0.06097 -0.62619,0.1679 -0.66928,0.237612 -0.0431,0.06971 0.52393,1.519551 1.26003,3.221862 0.7361,1.702312 1.46002,3.43165 1.6087,3.842975 0.80827,2.236022 2.60936,3.332137 5.47521,3.332137 h 1.15483 l 0.0597,8.200005 0.0597,8.2 0.54049,1.6 c 0.29727,0.88 0.5456,1.924 0.55184,2.32 0.0111,0.70257 -0.002,0.72124 -0.52499,0.77135 -0.29498,0.0282 -1.69898,-0.15042 -3.12,-0.39703 -4.16942,-0.72359 -6.71415,-0.55571 -9.93122,0.65519 -1.40863,0.53021 -1.88502,0.5026 -3.05245,-0.17693 z m 7.80317,-36.927669 c 2.22807,-0.472137 3.92183,-1.786492 4.6152,-3.58138 0.27428,-0.71003 0.34956,-1.246198 0.3515,-2.503535 0.004,-2.588165 -0.57181,-4.769915 -2.68136,-10.160001 -0.4994,-1.276 -1.11437,-2.86 -1.36661,-3.52 -1.01836,-2.664629 -3.5366,-9.014685 -3.66823,-9.249889 -0.14791,-0.264307 -0.20249,-0.103159 -2.63847,7.790846 -0.66208,2.145526 -1.23096,3.928138 -1.26418,3.961361 -0.0332,0.03322 -0.5791,-0.153487 -1.21305,-0.41491 -0.8133,-0.335378 -1.17204,-0.418212 -1.2185,-0.281361 -0.33199,0.977882 -2.1869,7.529833 -2.26179,7.989171 -0.10771,0.660633 -0.13109,0.621616 4.07403,6.798185 2.05397,3.016895 2.12238,3.083445 3.38829,3.295891 0.91128,0.152932 2.87069,0.09017 3.88317,-0.124378 z M 85.023225,34.499832 c 1.15984,-0.449889 2.06722,-0.895557 2.12386,-1.043162 0.0552,-0.143901 -0.0265,-0.396932 -0.18497,-0.572985 -0.26111,-0.290013 -0.41851,-0.306662 -1.96386,-0.207726 -2.98349,0.19101 -3.26844,0.390097 -2.8794,2.011773 0.22614,0.942649 -0.0576,0.961005 2.90437,-0.1879 z"
       id="path1" /></g></svg>
