<?xml version="1.0" encoding="UTF-8" standalone="no"?>
<!-- Created with Inkscape (http://www.inkscape.org/) -->

<svg
   width="154.03967"
   height="129.89027"
   viewBox="0 0 154.03967 129.89027"
   version="1.1"
   id="svg1"
   xml:space="preserve"
   inkscape:export-filename="peugeot.svg"
   inkscape:export-xdpi="84.26667"
   inkscape:export-ydpi="84.26667"
   xmlns:inkscape="http://www.inkscape.org/namespaces/inkscape"
   xmlns:sodipodi="http://sodipodi.sourceforge.net/DTD/sodipodi-0.dtd"
   xmlns="http://www.w3.org/2000/svg"
   xmlns:svg="http://www.w3.org/2000/svg"><sodipodi:namedview
     id="namedview1"
     pagecolor="#ffffff"
     bordercolor="#000000"
     borderopacity="0.25"
     inkscape:showpageshadow="2"
     inkscape:pageopacity="0.0"
     inkscape:pagecheckerboard="0"
     inkscape:deskcolor="#d1d1d1"
     inkscape:document-units="px"
     inkscape:export-bgcolor="#ffffff00"><inkscape:page
       x="0"
       y="0"
       width="154.03967"
       height="129.89027"
       id="page2"
       margin="0"
       bleed="0" /></sodipodi:namedview><defs
     id="defs1" /><g
     inkscape:label="Camada 1"
     inkscape:groupmode="layer"
     id="layer1"
     transform="translate(-16.30164,-20.804853)"><path
       style="fill:#000000;stroke-width:0.141084"
       d="m 118.28121,150.47619 c -0.73716,-0.14305 -1.78472,-0.43666 -2.32789,-0.65247 -0.54317,-0.2158 -1.25054,-0.5717 -1.57193,-0.79083 -0.32138,-0.2192 -0.84304,-0.69246 -1.15924,-1.05168 -0.3162,-0.35923 -0.71986,-1.01164 -0.89705,-1.44984 -0.31895,-0.7888 -0.32253,-0.86858 -0.36226,-8.06257 l -0.0401,-7.26583 2.43854,0.0308 2.43856,0.0308 0.0367,6.65087 c 0.0356,6.45404 0.0453,6.66295 0.32667,7.05815 0.15949,0.224 0.57065,0.57176 0.91368,0.77279 0.34303,0.20102 0.93871,0.44861 1.32374,0.55014 0.38506,0.10159 1.07311,0.228 1.52905,0.28092 0.45593,0.053 1.30981,0.0296 1.8975,-0.0524 0.5877,-0.0817 1.43151,-0.28444 1.87516,-0.45041 0.47027,-0.17594 1.03462,-0.52981 1.3534,-0.84856 l 0.54677,-0.54681 0.0366,-6.71032 0.0367,-6.71032 h 2.39843 l 2.39843,6e-5 0.0366,6.94713 c 0.0307,5.82036 0.002,7.08199 -0.17634,7.77845 -0.11713,0.45718 -0.44072,1.17433 -0.71909,1.59375 -0.27839,0.41941 -0.75055,0.95612 -1.04927,1.19269 -0.29872,0.23663 -0.95202,0.61557 -1.45179,0.84216 -0.49976,0.22665 -1.53543,0.54509 -2.30149,0.70779 -0.98906,0.21001 -2.08815,0.31308 -3.79127,0.35565 -1.93594,0.0487 -2.6569,0.01 -3.73874,-0.20009 z M 16.452626,150.34405 c -0.140135,-0.089 -0.169749,-2.10293 -0.141084,-9.59681 l 0.03629,-9.48426 6.854509,0.008 c 6.418924,0.007 6.919566,0.0259 7.877966,0.29139 0.562882,0.15599 1.319374,0.43519 1.681076,0.6205 0.361708,0.18525 0.91761,0.61206 1.235332,0.94836 0.317733,0.33631 0.716158,0.81401 0.885402,1.0616 0.169245,0.2476 0.43306,0.94023 0.586262,1.53923 0.15319,0.59899 0.27854,1.44651 0.27854,1.88342 0,0.43685 -0.09792,1.17267 -0.217605,1.63515 -0.119682,0.46248 -0.42125,1.17939 -0.670151,1.59313 -0.248901,0.41375 -0.769984,1.04922 -1.157967,1.41208 -0.387976,0.36292 -0.859214,0.75898 -1.04718,0.88016 l -0.341766,0.22031 0.423357,0.76601 c 0.23284,0.42132 1.074564,1.87707 1.870509,3.23499 0.795926,1.35799 1.505197,2.5293 1.576149,2.60305 0.07094,0.0737 0.128991,0.21654 0.128991,0.31745 0,0.14398 -0.570344,0.1834 -2.65364,0.1834 -1.904916,0 -2.7192,-0.0499 -2.886005,-0.17637 -0.127796,-0.097 -0.633649,-0.87475 -1.124132,-1.7283 -0.490465,-0.85355 -1.236502,-2.13915 -1.657839,-2.85692 l -0.766084,-1.30507 H 24.21939 21.215244 v 3.0333 3.03336 h -2.292622 c -1.260941,0 -2.372432,-0.053 -2.469979,-0.11471 z m 12.982141,-10.14696 c 0.204403,-0.2134 0.470233,-0.624 0.590735,-0.91251 0.125405,-0.3002 0.219114,-0.93604 0.219114,-1.48674 0,-0.71826 -0.08049,-1.12104 -0.317437,-1.58851 -0.187998,-0.37087 -0.51881,-0.74266 -0.811236,-0.91165 -0.46109,-0.2665 -0.736753,-0.28542 -4.161984,-0.28542 h -3.668193 l -0.03826,2.78639 -0.03826,2.78644 h 3.926939 3.926951 z m 11.627429,10.17098 c -0.05237,-0.0524 -0.09518,-4.40859 -0.09518,-9.68053 0,-8.68258 0.02101,-9.57722 0.223169,-9.49966 0.122731,0.0474 3.805032,0.0856 8.182891,0.0856 h 7.959723 l 3.7e-5,1.86938 4.3e-5,1.86937 h -5.678684 -5.678683 l -0.03924,1.93992 -0.03924,1.93991 h 5.153571 5.153553 v 1.90462 1.90467 h -5.153553 -5.153571 l 0.03924,1.93985 0.03924,1.93992 5.823803,0.037 5.823821,0.037 -0.03937,1.86783 -0.03937,1.86777 -8.193524,0.0364 c -4.50643,0.0203 -8.236347,-0.006 -8.288706,-0.0585 z m 21.242823,-0.0222 c -0.140123,-0.0904 -0.169737,-2.10712 -0.141084,-9.60624 l 0.03629,-9.49178 2.437445,0.0185 c 1.340592,0.0105 2.515124,0.0524 2.610059,0.0941 0.09493,0.0413 0.542239,0.50468 0.994009,1.02937 0.451775,0.5247 0.959693,1.10713 1.128716,1.29429 0.169004,0.18722 0.783438,0.87998 1.3654,1.53953 0.581956,0.65956 1.089849,1.23095 1.128648,1.26977 0.03881,0.0388 0.546699,0.61021 1.128673,1.26976 0.581968,0.65955 1.092868,1.23095 1.135333,1.26976 0.04245,0.0388 0.772577,0.85596 1.62247,1.81584 0.849887,0.95995 1.692714,1.92815 1.872936,2.15153 0.180204,0.22345 0.382026,0.40623 0.448462,0.40623 0.06645,0 0.125227,-2.71411 0.130629,-6.03136 0.0055,-3.31724 0.0099,-6.06308 0.0099,-6.10189 3.1e-5,-0.0388 1.095308,-0.0517 2.433934,-0.0296 l 2.433884,0.0413 v 9.48192 c 0,5.71304 -0.05237,9.51962 -0.131787,9.57685 -0.07247,0.0524 -1.153279,0.1014 -2.401776,0.10941 -1.646004,0.0105 -2.332647,-0.0351 -2.497899,-0.16547 -0.125337,-0.099 -1.068668,-1.13226 -2.096295,-2.29625 -1.027633,-1.16392 -2.067297,-2.33844 -2.310358,-2.61006 -0.243061,-0.27156 -0.980646,-1.09985 -1.639073,-1.84054 -0.658428,-0.74076 -1.609817,-1.818 -2.114192,-2.39389 -0.504375,-0.57584 -1.289366,-1.46173 -1.74442,-1.96863 -0.455053,-0.50695 -0.88292,-0.94263 -0.95081,-0.9682 -0.069,-0.0259 -0.139661,2.6495 -0.160219,6.0666 l -0.03678,6.11317 -2.257346,0.0351 c -1.241548,0.0191 -2.337163,-0.0166 -2.43471,-0.0795 z m 23.766073,0.009 c -0.03271,-0.0579 0.726021,-1.88349 1.686155,-4.05615 0.960149,-2.17272 2.134903,-4.83922 2.610582,-5.92552 0.47568,-1.08636 1.078156,-2.44114 1.338818,-3.01063 0.260686,-0.56948 0.473973,-1.06221 0.473973,-1.09492 0,-0.0326 0.125257,-0.32867 0.278361,-0.65758 0.153091,-0.32898 0.647252,-1.44381 1.098128,-2.47749 l 0.819774,-1.87936 3.308537,0.0148 c 1.81969,0.008 3.3456,0.0604 3.39089,0.11582 0.0453,0.0554 0.48335,1.02155 0.97345,2.14672 0.4901,1.12511 1.00623,2.29963 1.14696,2.61001 0.14073,0.31043 1.09332,2.46898 2.11687,4.79689 1.02356,2.32791 2.33442,5.3118 2.91305,6.63097 0.57861,1.31911 1.08514,2.50953 1.1256,2.64531 0.0682,0.22911 -0.12063,0.24692 -2.61793,0.24692 -1.97446,0 -2.73378,-0.0468 -2.85024,-0.17638 -0.0873,-0.097 -0.42335,-0.84296 -0.74676,-1.6577 l -0.58801,-1.48138 -4.81571,-0.037 -4.815706,-0.037 -0.598564,1.51853 c -0.329205,0.83513 -0.661582,1.59782 -0.738614,1.69479 -0.103147,0.12992 -0.839809,0.17637 -2.795063,0.17637 -1.460237,0 -2.681789,-0.0474 -2.714551,-0.10584 z m 14.856748,-7.14847 c 0,-0.11458 -0.72462,-2.03694 -1.610272,-4.27195 -1.420593,-3.58492 -1.626813,-4.02201 -1.750715,-3.71084 -0.07725,0.194 -0.812856,2.0614 -1.634675,4.14979 -0.821813,2.08838 -1.494206,3.84594 -1.494206,3.9057 0,0.0598 1.460224,0.11471 3.24494,0.1221 2.773618,0.0117 3.244928,-0.0166 3.244928,-0.1948 z m 36.43501,7.15537 -0.31743,-0.0618 v -9.51334 -9.5134 h 2.46776 2.46776 l 0.0365,7.65382 0.0365,7.65382 0.42325,0.0222 c 0.23279,0.0123 2.66304,0.0283 5.40057,0.0351 l 4.97731,0.0129 -0.0394,1.86931 -0.0394,1.86938 -7.54801,0.0166 c -4.1514,0.009 -7.69086,-0.0111 -7.86545,-0.045 z m 20.73707,0.007 c -0.14117,-0.0585 -0.17719,-1.66053 -0.17156,-7.63256 0.004,-4.19944 -0.0483,-7.61433 -0.11756,-7.68357 -0.0686,-0.0686 -1.72149,-0.10572 -3.67312,-0.0824 l -3.54842,0.0425 1.2e-4,-1.90468 1.3e-4,-1.90461 h 9.8759 9.8759 v 1.86937 1.86938 l -3.49184,0.016 c -1.92051,0.009 -3.58706,0.0246 -3.70346,0.0351 -0.18436,0.0166 -0.22072,1.01016 -0.28217,7.70809 l -0.0705,7.68912 -2.25735,0.0259 c -1.24154,0.0142 -2.33776,-0.007 -2.43603,-0.0481 z M 83.910276,107.67745 c -0.129674,-0.25215 -1.265149,-2.4266 -2.523268,-4.83213 -1.25812,-2.40547 -2.605531,-4.976728 -2.994247,-5.713898 -0.388698,-0.73712 -1.072322,-2.03867 -1.519151,-2.89223 -0.446829,-0.85355 -1.145381,-2.18677 -1.55232,-2.96276 -0.406945,-0.77599 -1.056655,-2.013961 -1.4438,-2.751141 -0.387151,-0.73718 -1.133602,-2.16564 -1.658775,-3.17438 -0.525167,-1.0088 -1.192312,-2.2785 -1.482557,-2.82168 -0.29022,-0.54318 -1.021491,-1.93991 -1.625033,-3.1039 -0.60353,-1.16392 -1.350782,-2.59238 -1.660549,-3.17438 -0.309762,-0.58199 -0.830919,-1.56602 -1.158102,-2.18683 -0.327203,-0.62074 -1.008474,-1.92223 -1.513964,-2.89222 -0.505478,-0.96993 -1.445168,-2.77936 -2.0882,-4.02091 -0.643038,-1.24148 -1.227693,-2.33333 -1.299236,-2.42623 -0.08596,-0.11157 0.03505,-0.47042 0.356792,-1.05808 0.267777,-0.48909 0.917105,-1.71462 1.442938,-2.72336 0.525851,-1.00874 1.603958,-3.07211 2.395793,-4.58522 0.791854,-1.51317 2.757748,-5.25894 4.368692,-8.32397 1.610925,-3.06509 3.565397,-6.77913 4.343266,-8.25343 0.777851,-1.47436 2.429172,-4.61701 3.669573,-6.98373 1.240414,-2.36666 2.492453,-4.74749 2.78231,-5.29061 0.289844,-0.54318 0.988605,-1.87646 1.5528,-2.96282 0.564195,-1.0863 1.242854,-2.37196 1.508136,-2.85692 l 0.482339,-0.88177 h 2.955856 c 2.304573,0 2.955873,0.0394 2.955873,0.1802 0,0.0991 -0.08478,0.3055 -0.188391,0.45853 -0.10361,0.1531 -0.714761,1.2941 -1.358119,2.53565 -0.643346,1.24155 -1.407496,2.70173 -1.698107,3.24492 -0.290602,0.54318 -0.95795,1.81294 -1.482994,2.82168 -0.525032,1.0088 -1.874033,3.58005 -2.997771,5.71396 -1.123751,2.13385 -2.312342,4.38771 -2.641324,5.00846 -0.328983,0.6208 -0.948746,1.79532 -1.377248,2.61006 -0.428519,0.81474 -1.143926,2.17975 -1.589794,3.0333 -0.445887,0.85355 -1.25722,2.40905 -1.802989,3.4566 -0.545756,1.04755 -1.327617,2.52634 -1.737439,3.28625 -0.409835,0.75991 -1.138068,2.15664 -1.618306,3.10384 -0.480238,0.94725 -0.919903,1.78571 -0.977011,1.86334 -0.05711,0.0776 -0.564971,1.02993 -1.12855,2.11623 -0.563573,1.08636 -1.306283,2.50059 -1.65047,3.14271 l -0.625783,1.16743 0.271548,0.45503 c 0.149351,0.25024 0.733512,1.34381 1.298145,2.43017 0.564632,1.0863 1.295366,2.48304 1.62385,3.10384 0.32849,0.62074 0.99614,1.89051 1.48366,2.82168 0.487513,0.93118 1.12258,2.13743 1.411247,2.68061 0.288662,0.54318 1.557489,2.95573 2.8196,5.36121 1.262112,2.40547 2.88067,5.48466 3.596786,6.84258 0.716134,1.35793 1.717763,3.262541 2.225877,4.232531 0.508097,0.96992 1.754665,3.34718 2.770149,5.28272 1.015478,1.93554 1.846322,3.570378 1.846322,3.632908 0,0.0626 0.09524,0.11373 0.21163,0.11373 0.116392,0 0.211623,-0.053 0.211623,-0.11773 0,-0.0647 0.753014,-1.540828 1.673365,-3.280218 0.920365,-1.73932 3.341977,-6.33686 5.381379,-10.216631 2.039414,-3.87983 4.048112,-7.70501 4.463805,-8.50035 0.415675,-0.79539 1.113549,-2.12861 1.550808,-2.96276 0.43728,-0.83421 2.02437,-3.85451 3.52692,-6.7118 l 2.73188,-5.19512 -1.63903,-3.12885 c -0.90148,-1.7209 -1.97356,-3.7637 -2.3824,-4.53969 -0.40885,-0.77599 -1.70614,-3.23955 -2.88287,-5.47462 -1.176738,-2.23513 -2.522585,-4.80639 -2.99076,-5.71397 l -0.85123,-1.65006 1.458247,-2.7841 c 0.802049,-1.53128 1.500545,-2.78515 1.552221,-2.78644 0.05169,0 0.5845,0.93413 1.184038,2.07871 0.599534,1.14452 1.294054,2.4619 1.543374,2.92746 0.24931,0.46562 0.85175,1.60835 1.33873,2.53953 0.487,0.93117 1.18649,2.26439 1.55444,2.96276 0.36796,0.69836 1.00262,1.90467 1.41035,2.6806 0.40774,0.77599 1.01114,1.91879 1.34091,2.53953 0.32977,0.62074 1.68923,3.20616 3.02102,5.74538 l 2.42144,4.6167 -0.55196,1.02667 c -0.30358,0.56468 -0.9178,1.72503 -1.36492,2.57858 -0.44712,0.85355 -1.12966,2.15504 -1.51676,2.89222 -0.3871,0.73718 -0.97336,1.84825 -1.30282,2.46899 -0.32946,0.62081 -1.01332,1.9223 -1.51968,2.89222 -0.50636,0.96999 -1.87823,3.58634 -3.04858,5.81408 -1.17034,2.2278 -2.37437,4.51338 -2.67561,5.07905 -0.30124,0.56567 -1.010206,1.91737 -1.575449,3.003671 -0.565254,1.08636 -1.200628,2.29261 -1.411943,2.6806 -0.211328,0.388 -1.194191,2.26088 -2.184164,4.16199 -0.98998,1.9011 -2.039027,3.901018 -2.331224,4.444198 -0.292198,0.54312 -1.079351,2.03509 -1.74925,3.31545 -0.66988,1.28036 -1.326188,2.53423 -1.458444,2.78638 l -0.240473,0.45854 h -2.715439 -2.715449 z m 13.284032,-1.05531 c 0.445006,-0.83568 1.078433,-2.02733 1.407638,-2.64814 0.329192,-0.62074 1.946564,-3.69993 3.594144,-6.842578 1.64757,-3.14265 3.34669,-6.38055 3.77581,-7.19529 0.42913,-0.814741 2.38077,-4.528791 4.33701,-8.253431 1.95621,-3.72464 3.92489,-7.47041 4.37484,-8.32397 0.44993,-0.85355 1.10123,-2.09159 1.44732,-2.75114 0.34611,-0.65956 0.89896,-1.70711 1.22859,-2.32791 0.32963,-0.62074 0.90801,-1.72331 1.2853,-2.45001 l 0.68597,-1.32139 -0.63745,-1.21814 c -0.35062,-0.66997 -1.70569,-3.24978 -3.01127,-5.73288 -1.30558,-2.48303 -2.70801,-5.14953 -3.11651,-5.92552 -0.40849,-0.77593 -2.3281,-4.42652 -4.26578,-8.11235 -1.93769,-3.68583 -3.85877,-7.33636 -4.26904,-8.11235 -0.41029,-0.77593 -1.44522,-2.74406 -2.29986,-4.3736 -0.85464,-1.62955 -1.62306,-3.10514 -1.70759,-3.27911 -0.08454,-0.17398 -0.185456,-0.31653 -0.224256,-0.31684 -0.03881,-2.5e-4 -0.307987,0.45952 -0.598183,1.0218 -0.290195,0.56221 -1.263183,2.41896 -2.162201,4.12606 -0.899018,1.70717 -1.92779,3.67524 -2.286159,4.37361 -0.358369,0.69836 -1.010205,1.9364 -1.448526,2.75114 -0.438321,0.8148 -1.242798,2.3385 -1.787722,3.38606 -0.544937,1.04755 -1.292484,2.47601 -1.661227,3.17437 -0.368737,0.69837 -0.972748,1.84116 -1.342231,2.53953 -0.369501,0.69837 -1.10087,2.0951 -1.625282,3.10384 -0.524409,1.0088 -1.506762,2.88168 -2.183012,4.16198 -0.676244,1.28036 -1.937283,3.66489 -2.802313,5.29899 -0.86503,1.63404 -1.572779,3.03773 -1.572779,3.11924 0,0.0815 0.180309,0.49044 0.400668,0.90875 0.220371,0.41831 0.864789,1.64938 1.432033,2.73574 0.567245,1.08636 1.519601,2.8958 2.116361,4.02091 0.596747,1.12517 1.901028,3.60118 2.898396,5.50229 0.997366,1.9011 2.269452,4.31365 2.826851,5.3612 l 1.013451,1.90462 -1.095522,2.11629 c -0.602526,1.16392 -1.26802,2.44958 -1.478842,2.856981 -0.210841,0.40734 -0.44017,0.74069 -0.509624,0.74069 -0.06947,0 -0.126299,-0.0579 -0.126299,-0.12882 0,-0.0708 -0.465465,-1.007251 -1.034381,-2.080991 -0.568889,-1.07373 -1.76873,-3.3489 -2.666306,-5.05607 -0.897564,-1.70711 -2.914941,-5.54812 -4.483069,-8.53559 -1.568121,-2.98746 -3.234381,-6.16184 -3.70281,-7.0542 -0.468428,-0.89237 -1.032992,-1.95236 -1.254608,-2.35551 -0.221615,-0.40321 -0.402922,-0.80723 -0.402922,-0.89779 0,-0.0906 0.658156,-1.41139 1.462566,-2.93516 0.804403,-1.5237 1.860319,-3.53225 2.346471,-4.46342 0.486146,-0.93118 1.121761,-2.13742 1.41248,-2.68061 0.290719,-0.54318 0.89505,-1.68597 1.342963,-2.53952 0.447914,-0.85355 1.129875,-2.15504 1.515473,-2.89222 0.385599,-0.73718 1.00304,-1.9117 1.372073,-2.61007 0.369033,-0.69837 0.955788,-1.80937 1.303887,-2.46892 0.348099,-0.65962 0.990866,-1.88176 1.428368,-2.71591 0.437514,-0.83415 1.152812,-2.19915 1.589569,-3.0333 0.436738,-0.83415 1.445236,-2.75465 2.241106,-4.26782 0.795859,-1.51311 2.366635,-4.49706 3.490614,-6.63098 1.123972,-2.13385 2.350322,-4.46705 2.725195,-5.18483 l 0.68161,-1.305 h 2.645328 2.645341 l 0.48231,0.88177 c 0.26526,0.48496 0.87768,1.63583 1.36093,2.55739 0.48324,0.92157 1.59321,3.04846 2.46657,4.7263 0.87338,1.6779 3.66784,7.01872 6.20991,11.86847 2.54207,4.84982 4.89245,9.32569 5.22305,9.94649 0.33062,0.62075 1.06228,2.01748 1.62593,3.10384 0.56365,1.08636 1.32588,2.54655 1.69385,3.24492 0.36797,0.69837 1.37506,2.61616 2.23798,4.26178 0.86291,1.64563 1.56817,3.07409 1.56723,3.17444 -0.001,0.1003 -0.16539,0.46803 -0.36547,0.81721 -0.20007,0.34918 -0.73159,1.33328 -1.18114,2.18683 -0.44956,0.85355 -1.84949,3.52005 -3.11093,5.92552 -1.26147,2.40547 -2.86299,5.45294 -3.55896,6.77205 -0.69595,1.31911 -1.66479,3.16027 -2.15297,4.09145 -0.48818,0.93117 -2.52114,4.80392 -4.51767,8.606121 -1.99655,3.80227 -3.86638,7.357558 -4.15521,7.900738 -0.28881,0.54318 -1.00707,1.90818 -1.59612,3.0333 -0.58906,1.12517 -1.32305,2.5219 -1.63111,3.1039 l -0.56007,1.05808 -3.059427,0.0382 -3.059426,0.0382 z"
       id="path22" /></g></svg>
