<?xml version="1.0" encoding="UTF-8" standalone="no"?>
<!-- Created with Inkscape (http://www.inkscape.org/) -->

<svg
   width="151.89507"
   height="135.3847"
   viewBox="0 0 151.89507 135.3847"
   version="1.1"
   id="svg1"
   xml:space="preserve"
   xmlns:inkscape="http://www.inkscape.org/namespaces/inkscape"
   xmlns:sodipodi="http://sodipodi.sourceforge.net/DTD/sodipodi-0.dtd"
   xmlns="http://www.w3.org/2000/svg"
   xmlns:svg="http://www.w3.org/2000/svg"><sodipodi:namedview
     id="namedview1"
     pagecolor="#ffffff"
     bordercolor="#000000"
     borderopacity="0.25"
     inkscape:showpageshadow="2"
     inkscape:pageopacity="0.0"
     inkscape:pagecheckerboard="0"
     inkscape:deskcolor="#d1d1d1"
     inkscape:document-units="px"><inkscape:page
       x="0"
       y="0"
       width="151.89507"
       height="135.3847"
       id="page2"
       margin="0"
       bleed="0" /></sodipodi:namedview><defs
     id="defs1" /><g
     inkscape:label="Camada 1"
     inkscape:groupmode="layer"
     id="layer1"
     transform="translate(-17.994346,-24.685205)"><path
       style="fill:#000000;stroke-width:0.0678515"
       d="m 85.017555,160.0347 c -16.468071,-0.24651 -32.693342,-0.9147 -50.277928,-2.07055 -6.152851,-0.40443 -6.625375,-0.43877 -7.531511,-0.5473 -3.752946,-0.44949 -5.908034,-1.47835 -6.692206,-3.19489 -0.65288,-1.42913 -0.865778,-3.32472 -1.412308,-12.57466 -0.185554,-3.14049 -1.080575,-20.6327 -1.057858,-20.67462 0.0042,-0.008 1.212424,0.06 2.685098,0.15027 12.627384,0.77393 28.101973,1.40278 44.236608,1.79769 6.748519,0.16517 17.768817,0.27833 39.4217,0.4048 6.36277,0.0372 12.1946,0.0846 12.95962,0.10538 4.68334,0.1273 8.09924,-0.93214 10.33621,-3.20576 0.57822,-0.5877 0.81351,-0.94857 0.77856,-1.19407 -0.0196,-0.13762 -0.10794,-0.16112 -1.27631,-0.33947 -2.13667,-0.32617 -7.43898,-1.21162 -13.63814,-2.27747 -3.26535,-0.56142 -13.66189,-2.33635 -23.103419,-3.94427 -35.776762,-6.09291 -72.381594,-12.34734 -72.409454,-12.37215 -0.0066,-0.006 -0.02185,-4.109437 -0.03392,-9.119067 -0.01876,-7.7795 -0.0081,-9.108416 0.07318,-9.108407 0.130771,1.4e-5 23.097331,4.246656 41.870974,7.742169 4.011717,0.746953 7.950494,1.479741 8.752837,1.628417 0.802344,0.148676 6.298311,1.171421 12.213262,2.272766 5.914951,1.101344 11.655184,2.169882 12.756074,2.374528 1.100889,0.204646 5.360264,0.998533 9.465276,1.764193 9.59879,1.79035 14.76685,2.753251 41.52509,7.736861 12.12844,2.25887 22.55552,4.19493 23.17127,4.30235 1.46431,0.25546 1.81963,0.36358 1.90138,0.57859 0.0393,0.10331 0.0386,0.89453 -0.002,2.0829 -0.0358,1.05397 -0.14197,4.71009 -0.23602,8.12471 -0.3984,14.46551 -0.47671,16.4342 -0.75287,18.93056 -0.56889,5.14226 -1.99334,9.08463 -4.25742,11.78306 -2.38476,2.84226 -6.27192,5.03519 -10.68271,6.02662 -4.09648,0.92078 -9.57188,1.47115 -18.91258,1.90103 -1.2315,0.0567 -2.81923,0.13334 -3.52827,0.17036 -4.72146,0.24656 -12.42394,0.50421 -20.3894,0.68204 -4.10873,0.0917 -21.261324,0.13362 -25.953177,0.0634 z M 168.13559,99.773985 c -0.85832,-0.146359 -3.4689,-0.588234 -5.8013,-0.981945 -4.39588,-0.74203 -14.84034,-2.540963 -22.96771,-3.955914 -2.57497,-0.448293 -7.79614,-1.352216 -11.60261,-2.008717 C 118.46698,91.223954 92.529831,86.739026 80.878615,84.720217 59.24078,80.971021 36.80852,77.101055 25.240424,75.121636 22.292278,74.617175 19.486298,74.136827 19.004905,74.054197 l -0.875264,-0.150243 0.04633,-2.276196 c 0.02549,-1.251892 0.09118,-3.848641 0.145983,-5.770541 0.05481,-1.92189 0.144965,-5.1584 0.200345,-7.19225 0.206913,-7.59886 0.308561,-10.1531 0.48199,-12.11148 0.464558,-5.24579 1.701592,-9.25925 3.739955,-12.13402 0.540355,-0.76208 2.340386,-2.56127 3.187628,-3.18613 3.213132,-2.36978 7.350171,-3.79226 13.048472,-4.48657 3.214741,-0.3917 8.767554,-0.79873 14.859468,-1.08918 1.175527,-0.0561 2.473185,-0.11836 2.883687,-0.13846 2.135109,-0.10457 12.093775,-0.46506 15.911166,-0.57594 19.537175,-0.56753 42.246055,-0.19582 66.392645,1.08674 5.26817,0.27982 14.58596,0.83149 15.43621,0.9139 0.20525,0.0199 1.36552,0.0979 2.57836,0.17324 3.03903,0.18889 4.70567,0.38081 5.937,0.68364 2.29145,0.56357 3.64826,1.40055 4.27404,2.63653 0.83308,1.64543 1.07925,4.16307 1.79814,18.38927 0.21879,4.32972 0.50841,9.4149 0.61219,10.74887 0.0351,0.45089 0.0644,0.9801 0.0653,1.17602 l 0.002,0.35622 h -0.91861 c -0.50525,0 -1.42887,-0.0306 -2.05251,-0.0682 -1.60077,-0.0963 -8.42641,-0.43724 -13.55071,-0.67694 -25.29199,-1.1831 -41.29218,-1.55797 -62.694748,-1.46885 -15.408794,0.0642 -23.524255,0.26167 -25.553761,0.62191 -2.215004,0.39315 -4.133272,1.19421 -5.384725,2.24862 -0.4612,0.38857 -1.185162,1.20866 -1.187842,1.34555 -7.46e-4,0.0376 1.166557,0.27772 2.593982,0.53364 2.69489,0.48315 3.159028,0.56839 12.569482,2.30821 3.134737,0.57956 7.455178,1.37694 9.600981,1.77195 2.145802,0.39501 5.275451,0.97518 6.954774,1.289274 6.239789,1.167037 19.222257,3.576658 36.198747,6.718691 26.18128,4.84567 43.55882,8.080553 43.57772,8.112132 0.009,0.01549 0.008,3.669239 -0.003,8.119447 -0.0154,6.271786 -0.0383,8.089679 -0.10178,8.084159 -0.0451,-0.004 -0.78422,-0.126885 -1.64255,-0.273245 z"
       id="path1"
       sodipodi:nodetypes="csssssssssssssssssssssssssssssssssccssssssscsssssssssssssssssscssssssssssssssss" /></g></svg>
