<?xml version="1.0" encoding="UTF-8" standalone="no"?>
<!-- Created with Inkscape (http://www.inkscape.org/) -->

<svg
   width="89.560333"
   height="89.034569"
   viewBox="0 0 89.560333 89.034569"
   version="1.1"
   id="svg1"
   xml:space="preserve"
   xmlns:inkscape="http://www.inkscape.org/namespaces/inkscape"
   xmlns:sodipodi="http://sodipodi.sourceforge.net/DTD/sodipodi-0.dtd"
   xmlns="http://www.w3.org/2000/svg"
   xmlns:svg="http://www.w3.org/2000/svg"><sodipodi:namedview
     id="namedview1"
     pagecolor="#ffffff"
     bordercolor="#000000"
     borderopacity="0.25"
     inkscape:showpageshadow="2"
     inkscape:pageopacity="0.0"
     inkscape:pagecheckerboard="0"
     inkscape:deskcolor="#d1d1d1"
     inkscape:document-units="px"><inkscape:page
       x="0"
       y="0"
       width="89.560333"
       height="89.034569"
       id="page2"
       margin="0"
       bleed="0" /></sodipodi:namedview><defs
     id="defs1" /><g
     inkscape:label="Camada 1"
     inkscape:groupmode="layer"
     id="layer1"
     transform="translate(-48.22047,-22.785246)"><path
       style="fill:#000000;stroke-width:0.0459346"
       d="M 86.674939,76.695158 C 83.209805,57.351909 80.354116,41.50224 80.328936,41.473677 c -0.06322,-0.07178 -4.911338,0.06328 -6.335995,0.176518 -5.365064,0.426438 -7.951614,1.494304 -9.118301,3.764542 -0.375287,0.730345 -0.709589,1.84549 -0.712592,2.377292 0,0.322176 -0.06395,0.336542 -0.555028,0.128358 -3.54742,-1.503907 -7.057648,-3.841201 -9.431058,-6.279622 -0.877425,-0.901458 -2.149418,-2.483852 -2.06471,-2.56855 0.01422,-0.01407 0.428388,-0.204738 0.920728,-0.423731 6.979945,-3.104608 15.182629,-5.395001 23.349595,-6.519813 2.354235,-0.324235 4.769367,-0.56597 6.52269,-0.652859 l 0.826853,-0.04098 1.197926,1.462486 c 0.658912,0.804369 2.477926,3.021132 4.042236,4.92614 1.564362,1.905007 3.106123,3.784523 3.426149,4.176694 0.541386,0.663505 0.588686,0.705828 0.680456,0.609214 0.11326,-0.119245 7.374305,-8.969782 8.441275,-10.28907 l 0.70827,-0.875835 0.8268,0.03614 c 1.01223,0.04425 2.60415,0.177313 4.0729,0.340403 8.97996,0.997097 18.22101,3.433116 25.68528,6.770862 0.55171,0.246702 1.0174,0.462829 1.03484,0.480276 0.0929,0.09285 -1.17876,1.691235 -2.07815,2.612158 -1.99701,2.044876 -4.62713,3.90351 -7.69975,5.44118 -0.9466,0.473728 -2.14858,1.010045 -2.18003,0.972732 -0.009,-0.01059 -0.0605,-0.285305 -0.11452,-0.610436 -0.4718,-2.836629 -2.0655,-4.376954 -5.36891,-5.188931 -1.32762,-0.326337 -2.66262,-0.510356 -4.96091,-0.683824 -1.03293,-0.07797 -5.83206,-0.181074 -5.88453,-0.12643 -0.0195,0.02033 -2.84263,15.843084 -6.273525,35.161647 -3.43084,19.31856 -6.2545,35.144862 -6.27483,35.169552 -0.0206,0.0247 -2.872021,-15.781392 -6.337156,-35.124652 z M 50.152902,35.658 c -0.953178,-1.794518 -2.010766,-4.07438 -1.927849,-4.156017 0.02423,-0.02413 0.471742,-0.207509 0.993846,-0.407479 12.078136,-4.625885 24.164016,-7.29198 36.686449,-8.092894 4.507657,-0.288298 9.825307,-0.288498 14.178462,-5.27e-4 12.79262,0.846234 24.55953,3.453877 36.91613,8.180916 0.42949,0.164301 0.78086,0.332185 0.78086,0.373069 0,0.215121 -1.63463,3.61734 -2.26494,4.714159 l -0.18217,0.317003 -0.75162,-0.324094 c -1.23496,-0.532508 -3.5962,-1.458556 -5.13075,-2.012199 -10.04861,-3.625495 -20.24537,-5.593354 -31.327395,-6.045853 -1.92011,-0.0784 -8.412818,-0.07745 -10.289305,0.0016 -13.265632,0.558142 -25.110662,3.214097 -36.967546,8.289051 l -0.21983,0.09409 z"
       id="path1"
       sodipodi:nodetypes="ccscccsccssccccsccscsccsccssscccccccscssscscscscc" /></g></svg>
