<?xml version="1.0" encoding="UTF-8" standalone="no"?>
<!-- Created with Inkscape (http://www.inkscape.org/) -->

<svg
   width="152.37051"
   height="99.331276"
   viewBox="0 0 152.37051 99.331276"
   version="1.1"
   id="svg1"
   xml:space="preserve"
   xmlns:inkscape="http://www.inkscape.org/namespaces/inkscape"
   xmlns:sodipodi="http://sodipodi.sourceforge.net/DTD/sodipodi-0.dtd"
   xmlns="http://www.w3.org/2000/svg"
   xmlns:svg="http://www.w3.org/2000/svg"><sodipodi:namedview
     id="namedview1"
     pagecolor="#ffffff"
     bordercolor="#000000"
     borderopacity="0.25"
     inkscape:showpageshadow="2"
     inkscape:pageopacity="0.0"
     inkscape:pagecheckerboard="0"
     inkscape:deskcolor="#d1d1d1"
     inkscape:document-units="px"><inkscape:page
       x="0"
       y="0"
       width="152.37051"
       height="99.331276"
       id="page2"
       margin="0"
       bleed="0" /></sodipodi:namedview><defs
     id="defs1" /><g
     inkscape:label="Camada 1"
     inkscape:groupmode="layer"
     id="layer1"
     transform="translate(-15.375711,-37.494698)"><path
       style="fill:#000000;stroke-width:0.11699"
       d="m 88.355319,136.8072 c -7.84085,-0.31908 -13.32552,-0.95832 -20.01804,-2.33311 -1.11903,-0.22988 -2.64003,-0.5745 -3.38,-0.76583 -0.73996,-0.19133 -1.42435,-0.36737 -1.52087,-0.39121 -4.1723,-1.03044 -9.43226,-2.8151 -13.98033,-4.7434 -1.38698,-0.58806 -5.66816,-2.68097 -7.07789,-3.46013 -11.1137,-6.14248 -19.25445,-14.14112 -23.5693,-23.15784 -1.80569,-3.773324 -2.81985,-7.257989 -3.28568,-11.289552 -0.22135,-1.915671 -0.18784,-6.113513 0.0621,-7.779848 0.39473,-2.631578 0.97457,-4.958293 1.80207,-7.231159 0.43262,-1.188239 1.43509,-3.560601 1.59134,-3.765919 0.049,-0.06434 0.28956,-0.511832 0.53466,-0.994416 0.51585,-1.015694 1.66822,-2.954565 2.25981,-3.802182 2.14309,-3.070528 2.93589,-4.025948 5.5665,-6.708322 4.21062,-4.29345 8.67256,-7.64291 14.86302,-11.15727 2.71913,-1.54367 7.54072,-3.76454 11.05556,-5.09231 3.619,-1.36711 9.28306,-3.09862 12.16698,-3.71946 0.41824,-0.09 1.44483,-0.31908 2.28131,-0.50898 3.50268,-0.79521 9.45794,-1.70601 13.39538,-2.0487 3.48963,-0.30371 5.17092,-0.36231 10.41213,-0.36286 6.60718,-7e-4 8.767611,0.11662 14.155811,0.76876 5.46797,0.66178 12.37138,2.06734 16.96358,3.45385 1.73159,0.52281 5.06869,1.59982 5.61553,1.81235 0.28955,0.11253 1.26349,0.48002 2.16432,0.81664 0.90082,0.33663 1.84844,0.70552 2.10582,0.81976 4.67092,2.07323 5.58751,2.52385 9.35922,4.60129 1.70835,0.94094 5.47536,3.42068 7.37038,4.85174 3.20402,2.41958 7.14,6.13543 9.43288,8.905311 4.83894,5.845613 7.74023,12.144771 8.83691,19.186392 0.32326,2.075582 0.29798,6.85879 -0.048,9.083309 -0.5947,3.823494 -1.63193,7.091109 -3.35556,10.571046 -4.48663,9.05835 -12.53983,16.8158 -23.92005,23.04162 -5.5243,3.0222 -13.26068,6.0553 -19.55026,7.66481 -0.41824,0.10703 -1.36586,0.3499 -2.10583,0.53973 -5.84904,1.50045 -13.66314,2.67732 -20.122311,3.03059 -2.28709,0.12509 -8.52918,0.22764 -10.06116,0.1653 z m -3.59419,-5.97334 c -2.26647,-2.03689 -4.5739,-5.52109 -6.22475,-9.39931 -0.20542,-0.48259 -0.50866,-1.18864 -0.67386,-1.56901 -0.6879,-1.58387 -1.82174,-5.19658 -2.57295,-8.19813 -1.62409,-6.48919 -2.65804,-15.622773 -2.60258,-22.990115 l 0.0145,-1.930338 -0.91811,-0.154337 c -3.6656,-0.616192 -9.37166,-1.874744 -11.49441,-2.535257 -0.29579,-0.09203 -1.16954,-0.35955 -1.94167,-0.594477 -4.76481,-1.449729 -9.69406,-3.60863 -13.44349,-5.887958 -3.74871,-2.278893 -7.10048,-5.453523 -8.76422,-8.301032 -1.01434,-1.736047 -1.68639,-3.889373 -1.74828,-5.601702 -0.019,-0.525104 -0.0687,-0.988965 -0.11058,-1.030803 -0.15424,-0.154247 -2.72577,3.48268 -3.89174,5.504125 -3.19048,5.531335 -4.74654,11.256574 -4.73672,17.428046 0.0141,8.895665 3.32254,16.981588 10.02959,24.512938 2.37865,2.67098 4.83964,4.91075 7.80769,7.10581 0.90083,0.66622 1.7176,1.27469 1.81504,1.35214 0.52896,0.42045 2.64106,1.7342 5.37985,3.34631 2.02767,1.19353 6.70689,3.31105 10.17815,4.60598 6.60381,2.46351 14.63468,4.29524 21.44854,4.89211 0.78267,0.0686 1.71259,0.16154 2.06649,0.20663 0.35389,0.0451 0.77115,0.0595 0.92721,0.032 0.26108,-0.046 0.21758,-0.10943 -0.54374,-0.79365 z m 14.82525,0.66065 c 11.133711,-0.89254 22.641171,-4.16946 31.762841,-9.04494 5.97263,-3.19233 11.41511,-7.27881 15.29689,-11.48564 5.23389,-5.67218 8.49487,-11.522808 10.00926,-17.957998 0.61023,-2.593096 0.77963,-4.222086 0.77859,-7.487372 -0.001,-2.624836 -0.041,-3.357816 -0.26215,-4.779958 -0.75172,-4.834658 -2.35948,-9.167842 -5.03064,-13.558379 -0.87751,-1.442344 -2.83758,-4.158326 -3.69372,-5.118197 l -0.41738,-0.467961 -0.007,1.403883 c -0.0177,3.704231 -1.48183,6.793924 -4.79912,10.127245 -3.63807,3.655671 -8.40899,6.452529 -15.53279,9.105805 -4.79511,1.785946 -12.15757,3.672656 -16.80065,4.305344 l -0.68708,0.09363 -0.0396,3.392715 c -0.097,8.323359 -1.06428,16.220083 -2.74421,22.403623 -0.13111,0.48258 -0.26132,0.98272 -0.28937,1.11141 -0.0698,0.32026 -0.91666,3.10205 -1.22876,4.03616 -0.74596,2.23268 -2.37307,5.87351 -3.47685,7.77985 -1.04796,1.80992 -2.40809,3.60563 -3.745271,4.94468 -0.72387,0.7249 -1.31614,1.34216 -1.31614,1.37171 0,0.0296 0.14478,0.0306 0.32173,0.002 0.17694,-0.0282 1.03243,-0.10833 1.90109,-0.17797 z m -6.53141,-15.43717 c 3.8426,-1.4377 7.095901,-7.89929 8.751391,-17.381722 0.40849,-2.33973 0.80134,-6.180259 0.89002,-8.700953 l 0.084,-2.387822 -1.04131,0.07394 c -0.57271,0.04067 -1.804661,0.134818 -2.737661,0.209224 -2.54903,0.203282 -12.39974,0.199007 -15.4427,-0.0067 -1.38341,-0.09352 -2.71957,-0.172375 -2.96925,-0.175232 l -0.45396,-0.0052 0.0206,1.169902 c 0.0113,0.643446 0.0953,2.19649 0.18665,3.45121 1.02884,14.134283 5.88834,24.425083 11.35452,24.045143 0.39031,-0.0271 1.00128,-0.15844 1.3577,-0.29179 z m 5.39764,-40.950531 c 0.97747,-0.06201 2.132581,-0.145446 2.566901,-0.185421 0.93849,-0.08638 0.91916,-0.01904 0.55151,-1.920779 -0.67629,-3.498271 -1.730211,-6.990601 -2.819111,-9.341584 -0.24882,-0.537232 -0.45242,-0.993728 -0.45242,-1.014438 0,-0.116843 -1.22357,-2.128675 -1.64665,-2.707475 -0.6923,-0.94711 -1.97938,-2.17827 -2.71182,-2.59401 -2.24942,-1.27677 -4.43227,-0.84739 -6.54426,1.28729 -2.2118,2.235566 -3.97,5.899832 -5.31539,11.077832 -0.41791,1.608385 -1.11485,5.0678 -1.03673,5.14593 0.0738,0.0738 2.81381,0.263624 5.30732,0.367687 2.76328,0.115321 9.47516,0.05152 12.10065,-0.115032 z m -24.43994,-2.193943 c 2.13498,-12.700154 6.61632,-22.525054 12.03572,-26.387214 0.98789,-0.70402 2.23366,-1.31516 3.26144,-1.59998 1.14818,-0.31817 2.99907,-0.32304 4.21875,-0.0111 5.23834,1.33974 10.039901,8.04784 13.120961,18.330864 0.52569,1.754503 1.06546,3.715653 1.17156,4.256633 0.0316,0.160861 0.21299,1.029514 0.40322,1.930338 0.19021,0.900824 0.43152,2.164319 0.53622,2.807765 0.3066,1.883982 0.22749,1.733326 0.86312,1.643817 1.35966,-0.191467 5.30366,-0.999899 6.86064,-1.406279 2.34526,-0.612123 3.0014,-0.802929 4.62828,-1.345896 4.11961,-1.37491 7.00966,-2.753265 9.76868,-4.658982 1.04483,-0.721686 3.29627,-2.920254 3.62573,-3.540598 0.97136,-1.828903 1.10534,-2.281062 1.10952,-3.744482 0.003,-1.17294 -0.20116,-1.96755 -0.78078,-3.03373 -1.7615,-3.24022 -5.91981,-6.02535 -12.60216,-8.44065 -1.63664,-0.59155 -6.47778,-1.9764 -7.55545,-2.1613 -0.16087,-0.0276 -0.76629,-0.15209 -1.34539,-0.27665 -3.87123,-0.83266 -9.20013,-1.54523 -14.155811,-1.89288 -2.98397,-0.20933 -12.93774,-0.20883 -15.91067,8.2e-4 -13.89432,0.97975 -25.46136,4.12759 -31.80306,8.65485 -1.79688,1.28277 -3.20742,2.82167 -3.93335,4.29131 -0.55266,1.11886 -0.69937,1.70952 -0.70317,2.83125 -0.004,1.14066 0.17682,1.927348 0.66566,2.898057 2.48257,4.929763 11.14362,9.187834 23.31446,11.462186 2.02498,0.378403 2.71722,0.503182 2.88171,0.519434 0.0789,0.0078 0.20989,-0.447764 0.32417,-1.12757 z"
       id="path1" /></g></svg>
