<?xml version="1.0" encoding="UTF-8" standalone="no"?>
<!-- Created with Inkscape (http://www.inkscape.org/) -->

<svg
   width="150"
   height="149.93011"
   viewBox="0 0 150 149.93011"
   version="1.1"
   id="svg1"
   xml:space="preserve"
   xmlns:inkscape="http://www.inkscape.org/namespaces/inkscape"
   xmlns:sodipodi="http://sodipodi.sourceforge.net/DTD/sodipodi-0.dtd"
   xmlns="http://www.w3.org/2000/svg"
   xmlns:svg="http://www.w3.org/2000/svg"><sodipodi:namedview
     id="namedview1"
     pagecolor="#ffffff"
     bordercolor="#000000"
     borderopacity="0.25"
     inkscape:showpageshadow="2"
     inkscape:pageopacity="0.0"
     inkscape:pagecheckerboard="0"
     inkscape:deskcolor="#d1d1d1"
     inkscape:document-units="px"><inkscape:page
       x="0"
       y="0"
       width="150"
       height="149.93011"
       id="page2"
       margin="0"
       bleed="0" /></sodipodi:namedview><defs
     id="defs1" /><g
     inkscape:label="Camada 1"
     inkscape:groupmode="layer"
     id="layer1"
     transform="translate(-15.71973,-13.574448)"><path
       style="fill:#000000;stroke-width:0.444894"
       d="m 84.047445,163.33126 c -4.74185,-0.44454 -9.438585,-1.30667 -13.768271,-2.52732 -21.973196,-6.1948 -40.084916,-22.26036 -48.860084,-43.34013 -2.776265,-6.66916 -4.535617,-13.56521 -5.376465,-21.073877 -0.307363,-2.74472 -0.428196,-9.96229 -0.21661,-12.9384 0.465096,-6.541916 1.660581,-12.633059 3.664766,-18.672423 8.773114,-26.436662 31.678195,-45.937518 59.147704,-50.356975 4.51441,-0.726305 6.1561,-0.842133 12.01211,-0.847516 5.8619,-0.0054 7.57614,0.113773 12.108815,0.841688 17.83187,2.863688 33.8955,12.001057 45.57722,25.925359 8.91493,10.626386 14.69664,23.54596 16.69461,37.305125 0.59332,4.085902 0.74991,6.946182 0.6685,12.210242 -0.0787,5.09078 -0.26815,7.36933 -0.94183,11.329347 -3.4212,20.11036 -14.91361,37.97792 -31.81906,49.46993 -10.05301,6.83383 -21.15382,10.95526 -33.628265,12.48523 -3.1024,0.38051 -12.04265,0.49165 -15.26314,0.18972 z m 11.94187,-6.81442 c 0.92725,-0.0778 2.63423,-0.26961 3.7933,-0.42617 25.610195,-3.45936 47.389965,-21.69309 55.536515,-46.49445 1.63579,-4.98 2.60445,-9.635467 3.14246,-15.102937 0.27375,-2.78198 0.23278,-9.87403 -0.0735,-12.71457 -0.62251,-5.774328 -2.03984,-11.9973 -3.72783,-16.367385 l -0.27133,-0.702463 -6.49222,13.065805 c -3.57073,7.186193 -7.93093,15.974003 -9.68932,19.528463 -1.7584,3.554457 -7.06795,14.238917 -11.79899,23.743227 -4.73106,9.50433 -9.41507,18.93275 -10.40893,20.95207 -1.91775,3.89644 -2.18076,4.26713 -3.22775,4.54905 -1.0264,0.27639 -1.99438,-0.16114 -2.58244,-1.16725 -0.18987,-0.32485 -4.49161,-9.91582 -9.55943,-21.31327 -5.366225,-12.06859 -9.336465,-20.82533 -9.506955,-20.96851 -0.16101,-0.13523 -0.35375,-0.24586 -0.42831,-0.24586 -0.2933,0 -0.72877,0.70975 -1.50846,2.45861 -0.44785,1.00452 -4.52825,10.17167 -9.06757,20.37143 -4.539321,10.19975 -8.417485,18.88203 -8.618145,19.29398 -0.431324,0.88548 -0.956743,1.3655 -1.719401,1.57087 -0.667269,0.17968 -1.453799,0.006 -2.033094,-0.45013 -0.284167,-0.22354 -2.966969,-5.48409 -9.869392,-19.35238 C 52.665045,116.27 47.687106,106.24548 46.816481,104.46826 45.945862,102.69102 41.142844,93.018113 36.143119,82.972893 L 27.0527,64.708865 26.646387,65.832804 c -5.504705,15.227099 -5.132979,32.687739 1.021418,47.978196 5.121017,12.72306 14.238668,23.89919 25.752268,31.56634 5.824749,3.87882 12.524686,6.97289 19.130302,8.83448 3.680627,1.03727 8.77531,1.96492 12.55076,2.28524 2.07785,0.17629 8.87621,0.18864 10.88818,0.0197 z M 69.582699,122.04039 c 0.122758,-0.18735 0.813562,-1.68886 1.535108,-3.33669 3.29841,-7.53273 9.356948,-21.412017 10.568238,-24.210417 1.47018,-3.39651 1.74196,-3.78667 2.73884,-3.932 0.3333,-0.0486 3.39901,-0.0689 6.81268,-0.0451 7.07504,0.0493 6.68987,-0.0191 7.32854,1.30256 0.31482,0.65151 5.466925,12.412367 10.645485,24.300737 1.34406,3.08555 2.53978,5.75665 2.65717,5.9358 0.2376,0.36264 0.78497,0.43421 1.03319,0.13512 0.16213,-0.19534 6.29031,-12.44369 10.62419,-21.23448 1.33331,-2.704487 4.96864,-10.038197 8.0785,-16.297137 3.10988,-6.25894 8.04943,-16.211108 10.9768,-22.115927 l 5.32249,-10.736034 -0.7293,-1.06534 c -2.72668,-3.983049 -5.16722,-6.902426 -8.82057,-10.55121 -4.423,-4.417451 -8.51785,-7.60659 -13.67401,-10.649556 l -1.23416,-0.728356 -0.26112,0.597416 c -0.5226,1.195582 -1.26119,2.84231 -13.84754,30.873555 -3.77033,8.396994 -5.13885,11.448418 -8.78965,19.598712 -1.243595,2.77629 -2.242455,4.81943 -2.489825,5.09285 l -0.41308,0.4566 h -6.89615 -6.89615 l -0.36098,-0.31613 c -0.24323,-0.213 -1.43143,-2.69903 -3.6428,-7.621718 C 78.043585,73.47556 73.389524,63.107211 69.506235,54.45287 65.622942,45.798529 61.735827,37.137165 60.868192,35.205394 60.000561,33.27362 59.016551,31.076667 58.681503,30.323276 c -0.335049,-0.753391 -0.678009,-1.3698 -0.762133,-1.3698 -0.2066,0 -2.741076,1.530802 -4.639789,2.802399 -3.760811,2.518665 -6.752966,4.998524 -10.260893,8.504104 -3.428996,3.426698 -5.865417,6.338525 -8.542538,10.209386 l -0.937274,1.355212 2.618453,5.247937 c 1.44015,2.886365 4.530519,9.104457 6.867488,13.817982 20.312993,40.970044 25.354802,51.106994 25.515203,51.300254 0.252838,0.30466 0.795838,0.22633 1.042679,-0.1504 z M 91.316845,72.752062 c 0.11378,-0.173859 0.68192,-1.390876 1.26255,-2.70448 0.93283,-2.110385 3.86513,-8.696123 17.033935,-38.257036 1.83494,-4.119042 3.3028,-7.522647 3.26188,-7.563564 -0.1354,-0.13545 -2.94522,-1.034065 -5.00966,-1.602171 -5.42623,-1.49324 -11.148705,-2.24134 -17.144715,-2.24134 -5.62974,0 -10.53398,0.590743 -15.872475,1.911928 -2.023077,0.500674 -6.325343,1.832955 -6.325343,1.958761 0,0.0602 2.623231,5.960877 16.692788,37.548626 2.62656,5.896932 4.88627,10.844026 5.02158,10.993541 0.32952,0.364111 0.82555,0.343771 1.07946,-0.04427 z"
       id="path1" /></g></svg>
