<?xml version="1.0" encoding="UTF-8" standalone="no"?>
<!-- Created with Inkscape (http://www.inkscape.org/) -->

<svg
   width="147.10207"
   height="146.95061"
   viewBox="0 0 147.10207 146.95061"
   version="1.1"
   id="svg1"
   xml:space="preserve"
   xmlns:inkscape="http://www.inkscape.org/namespaces/inkscape"
   xmlns:sodipodi="http://sodipodi.sourceforge.net/DTD/sodipodi-0.dtd"
   xmlns="http://www.w3.org/2000/svg"
   xmlns:svg="http://www.w3.org/2000/svg"><sodipodi:namedview
     id="namedview1"
     pagecolor="#ffffff"
     bordercolor="#000000"
     borderopacity="0.25"
     inkscape:showpageshadow="2"
     inkscape:pageopacity="0.0"
     inkscape:pagecheckerboard="0"
     inkscape:deskcolor="#d1d1d1"
     inkscape:document-units="px"><inkscape:page
       x="0"
       y="0"
       width="147.10207"
       height="146.95061"
       id="page2"
       margin="0"
       bleed="0" /></sodipodi:namedview><defs
     id="defs1" /><g
     inkscape:label="Camada 1"
     inkscape:groupmode="layer"
     id="layer1"
     transform="translate(-18.488218,-16.936235)"><path
       style="fill:#000000;stroke-width:0.177374"
       d="m 86.412589,163.84866 c -7.72346,-0.77198 -13.07703,-1.92869 -19.33375,-4.17733 -8.50403,-3.05632 -16.24839,-7.59386 -23.22092,-13.60551 -2.11478,-1.82334 -6.44167,-6.19801 -7.91228,-7.99965 -0.43674,-0.53506 -0.92998,-1.1337 -1.0961,-1.33031 -1.72501,-2.04187 -3.78042,-4.95052 -5.64229,-7.98454 -4.04773,-6.59598 -7.08653,-14.01247 -8.86714,-21.64102 -2.16025,-9.255118 -2.44158,-19.762738 -0.78592,-29.353968 2.89486,-16.76995 11.63186,-32.12377 24.55473,-43.15089 2.36124,-2.01484 2.44638,-2.08447 3.19273,-2.61155 0.34145,-0.24112 0.74054,-0.5341 0.88687,-0.65107 0.9683,-0.77397 2.26815,-1.68709 3.97548,-2.79268 7.65574,-4.95755 16.51837,-8.55075 25.3799,-10.28986 4.78537,-0.93914 7.61146,-1.21121 13.48041,-1.29777 5.455242,-0.0804 6.974592,-0.001 11.263251,0.58901 9.17706,1.26252 18.27726,4.36311 26.25355,8.94503 2.09145,1.20142 5.08422,3.13245 5.23641,3.3787 0.0642,0.10379 -2.16946,2.29596 -6.44658,6.32699 l -1.17175,1.10432 -0.62822,-0.37477 c -0.34553,-0.20612 -0.98743,-0.57607 -1.42643,-0.8221 -0.439,-0.24604 -1.09948,-0.63646 -1.46775,-0.86761 -1.23901,-0.77767 -5.46982,-2.74122 -7.9793,-3.70324 -4.68104,-1.7945 -9.52468,-3.01365 -14.853169,-3.73856 -3.40283,-0.46294 -11.981822,-0.46519 -15.520222,-0.004 -4.5618,0.59448 -9.83417,1.86212 -13.5691,3.26243 -0.92678,0.34747 -1.99382,0.74282 -2.3712,0.87855 -1.64891,0.59305 -6.15741,2.83011 -8.27123,4.10407 -1.78032,1.07297 -4.85591,3.06133 -4.96647,3.21081 -0.0488,0.0659 -0.36805,0.31177 -0.70949,0.54625 -0.34145,0.23449 -0.66072,0.4701 -0.7095,0.52358 -0.0488,0.0535 -0.44787,0.37256 -0.88687,0.70907 -2.78117,2.13188 -7.11872,6.43957 -9.7244,9.65747 -6.6703,8.23756 -11.12918,17.82821 -12.99671,27.95476 -0.8547,4.63452 -0.9436,5.7327 -0.94775,11.70668 -0.004,6.02944 0.12769,7.66213 0.97421,12.061418 1.33671,6.94669 3.93217,13.83564 7.48461,19.86588 0.88957,1.51004 3.88866,6.02476 4.274,6.43392 0.11271,0.11968 0.68302,0.81623 1.26734,1.5479 2.83193,3.54607 6.62841,7.22169 10.76207,10.41954 4.00579,3.09892 10.59364,6.78789 15.4024,8.62483 2.27532,0.86917 5.85573,1.97353 7.85155,2.42177 3.53043,0.7929 3.982,0.88608 5.09674,1.05161 3.02329,0.44895 6.74537,0.71809 9.91153,0.71667 13.799151,-0.006 26.887631,-4.42067 38.068111,-12.83967 0.78045,-0.58768 1.50834,-1.15151 1.61755,-1.25294 0.10919,-0.10144 0.62801,-0.54023 1.15293,-0.9751 1.28867,-1.06762 5.89481,-5.67341 7.10291,-7.10247 4.0239,-4.75967 8.0181,-11.26332 10.0762,-16.40708 0.3123,-0.78044 0.6405,-1.57863 0.7294,-1.77374 0.4981,-1.09359 1.8151,-5.31455 2.3521,-7.53839 0.7342,-3.04045 1.0482,-4.74552 1.47,-7.981818 0.3805,-2.91931 0.4346,-10.59808 0.095,-13.5691 -1.0825,-9.48584 -3.6901,-17.43963 -8.3831,-25.56992 l -1.0934,-1.89423 3.1972,-3.11844 c 1.7585,-1.71515 3.4782,-3.38707 3.8215,-3.71538 l 0.6242,-0.59694 0.9673,1.48381 c 1.5902,2.43919 2.6929,4.38652 4.1672,7.35903 1.2657,2.55183 3.3315,7.65428 4.0127,9.91104 1.1134,3.68881 1.3999,4.79398 1.9545,7.53839 0.7591,3.75703 0.9263,4.90979 1.2608,8.69132 0.469,5.30276 0.2345,12.9408 -0.5299,17.254928 -0.142,0.80191 -0.3793,2.13647 -0.5272,2.96569 -0.4028,2.25773 -1.6032,6.80191 -2.5211,9.54326 -2.6247,7.83918 -6.9605,15.78664 -12.1633,22.29536 -1.7651,2.20817 -6.124,7.03569 -6.6055,7.31573 -0.1267,0.0737 -0.8447,0.7117 -1.5956,1.41782 -3.1657,2.97698 -7.95037,6.48682 -12.4245,9.11414 -6.92887,4.06879 -14.75691,7.02692 -22.72628,8.58801 -4.85286,0.9506 -7.419889,1.18638 -13.458001,1.23611 -3.12178,0.0257 -5.99524,0.0148 -6.38546,-0.0242 z M 70.360259,96.456362 c -2.68179,-0.46083 -4.19358,-1.10869 -5.4448,-2.33331 -1.36801,-1.33895 -1.73436,-2.26586 -1.73667,-4.39398 -0.002,-1.57938 0.0496,-1.87092 0.46808,-2.66061 1.2453,-2.34999 3.66303,-3.69724 7.13314,-3.97487 2.98627,-0.23893 5.78789,0.22856 7.45855,1.24455 0.89466,0.54408 2.13473,1.86409 2.59176,2.75883 0.38399,0.75178 0.43843,1.08961 0.43843,2.72078 0,1.67429 -0.0477,1.95274 -0.4719,2.75642 -0.88861,1.68341 -2.62093,2.92161 -4.938,3.52947 -1.10449,0.28976 -4.57095,0.51212 -5.49859,0.35272 z m 3.76057,-2.90963 c 0.83114,-0.93656 1.20589,-2.13617 1.20589,-3.86 0,-1.86435 -0.27345,-2.7603 -1.13177,-3.70791 -0.62158,-0.68628 -0.85508,-0.82069 -1.56427,-0.90049 -1.17436,-0.13214 -2.19994,0.4854 -2.87938,1.73377 -0.94431,1.735 -0.79922,5.08494 0.27966,6.4565 0.69281,0.88076 1.37307,1.18872 2.44932,1.10884 0.87722,-0.0651 1.02964,-0.1423 1.64055,-0.83071 z m 60.892211,2.73853 c -2.96294,-0.66005 -4.70678,-1.9002 -5.68638,-4.04393 -0.43135,-0.94399 -0.46679,-1.18627 -0.40218,-2.7493 0.0614,-1.48427 0.14055,-1.84143 0.59052,-2.66399 0.95491,-1.74564 2.94788,-3.06968 5.40935,-3.59372 1.45656,-0.3101 5.10418,-0.30615 6.38548,0.007 2.4374,0.59555 4.4368,1.98705 5.4105,3.76542 0.4696,0.85779 0.5199,1.11005 0.5246,2.63371 0,1.4599 -0.058,1.81979 -0.4667,2.69352 -0.9227,1.97213 -2.9405,3.39296 -5.613,3.95243 -1.5704,0.32873 -4.67414,0.32819 -6.15219,-10e-4 z m 4.22429,-2.05486 c 0.6272,-0.32229 1.1508,-1.02017 1.5643,-2.08504 0.5283,-1.36047 0.5315,-3.81527 0.01,-5.01974 -0.6725,-1.54301 -1.8858,-2.30237 -3.2444,-2.03064 -0.86897,0.17379 -1.51802,0.75728 -2.05202,1.84473 -0.45058,0.91755 -0.49874,1.19544 -0.49874,2.87804 0,1.67341 0.0493,1.96144 0.48526,2.83798 0.62216,1.25078 1.35775,1.77374 2.4949,1.77374 0.4712,0 1.031,-0.0896 1.2441,-0.19907 z m -94.297621,1.04511 c -0.2595,-0.5141 -0.7206,-1.37372 -1.02466,-1.91028 -0.51442,-0.90777 -1.76579,-3.16416 -3.39376,-6.1194 -0.37618,-0.68289 -0.77332,-1.42121 -0.88249,-1.64071 -0.18213,-0.3661 -0.32082,-0.39909 -1.67775,-0.39909 h -1.4792 v -0.97774 -0.97774 l 6.51849,0.0465 6.51848,0.0465 0.0582,0.50921 c 0.032,0.28006 0.0105,0.69911 -0.0477,0.93121 -0.10048,0.40032 -0.17865,0.422 -1.52153,0.422 -1.66851,0 -1.68949,0.0395 -0.82037,1.54252 0.32737,0.56617 1.21196,2.16618 1.96574,3.55556 0.75379,1.38939 1.44024,2.56925 1.52545,2.62192 0.17871,0.11044 0.37222,-0.18118 1.41527,-2.13272 1.76238,-3.29746 2.2033,-4.1076 2.50991,-4.61172 0.52251,-0.85913 0.44047,-0.95429 -0.87233,-1.0118 l -1.19727,-0.0525 -0.0536,-0.93121 -0.0536,-0.93121 h 4.53231 4.53229 v 0.97556 0.97555 h -1.40691 c -1.65421,0 -1.49677,-0.14806 -3.11226,2.92667 -0.56381,1.07311 -1.08279,2.03093 -1.1533,2.12849 -0.11932,0.16511 -0.68739,1.21735 -2.44192,4.52303 l -0.70607,1.33031 -3.62978,0.0478 -3.62978,0.0479 z m 39.82291,-0.003 0.0536,-0.93122 1.44444,-0.0512 c 1.19499,-0.0424 1.45537,-0.10363 1.50768,-0.35475 0.0348,-0.16694 0.0405,-2.19921 0.0126,-4.51616 l -0.0506,-4.21263 h -1.40936 c -1.33631,0 -1.41485,-0.0219 -1.51528,-0.422 -0.0582,-0.2321 -0.0797,-0.65115 -0.0477,-0.93122 l 0.0582,-0.50921 5.96909,-0.0467 5.969102,-0.0467 0.0616,0.90408 c 0.0339,0.49724 0.0284,0.93729 -0.0122,0.97789 -0.0407,0.0406 -0.69916,0.0738 -1.46334,0.0738 -0.988682,0 -1.391922,0.0639 -1.398092,0.22172 -0.005,0.12195 -0.009,2.13736 -0.01,4.47869 l -0.002,4.25698 2.005322,-0.001 c 1.74851,-10e-4 2.10754,-0.054 2.8035,-0.4129 1.05988,-0.54652 1.716309,-1.37273 2.013609,-2.53441 l 0.24404,-0.95361 h 0.91816 0.91818 l 0.002,2.66061 c 0.002,1.46333 -0.002,2.80029 -0.007,2.97101 -0.008,0.29145 -0.56176,0.3104 -9.064261,0.3104 h -9.05534 z m 26.449381,0.70949 c -0.0784,-0.12194 -0.23027,-0.38135 -0.33749,-0.57646 -0.2516,-0.45793 -1.18677,-2.16975 -1.98643,-3.63617 -0.34577,-0.63411 -1.02685,-1.87129 -1.51349,-2.74929 -0.48663,-0.878 -1.12507,-2.03537 -1.41875,-2.57193 -0.29366,-0.53655 -0.62057,-1.03419 -0.72647,-1.10587 -0.10587,-0.0717 -0.81111,-0.13153 -1.56716,-0.13303 l -1.37465,-0.003 v -0.97555 -0.97556 h 6.56283 6.56283 v 0.97556 0.97555 h -1.4085 c -0.7747,0 -1.45427,0.074 -1.51017,0.16446 -0.11442,0.18512 3.83935,7.50345 4.10087,7.59062 0.0924,0.0308 0.29994,-0.20491 0.46128,-0.52379 0.16134,-0.31887 0.63941,-1.21831 1.06236,-1.99876 0.42297,-0.78044 1.18447,-2.18714 1.6922,-3.12599 0.50775,-0.93886 0.92318,-1.7969 0.92318,-1.90677 0,-0.12762 -0.4164,-0.19977 -1.15293,-0.19977 h -1.15293 v -0.97555 -0.97556 l 4.47869,-1.3e-4 4.47869,-1.3e-4 -0.0226,0.93134 -0.0226,0.93135 -1.42479,0.0513 c -0.84789,0.0305 -1.49223,0.13823 -1.59133,0.26606 -0.0916,0.11814 -0.50816,0.85334 -0.9257,1.63379 -0.41752,0.78045 -1.04411,1.93781 -1.39238,2.57192 -1.00206,1.82439 -2.10238,3.88227 -2.82152,5.27687 l -0.66312,1.28596 h -3.58371 c -2.67269,0 -3.61997,-0.0564 -3.72629,-0.22171 z m 48.96633,-43.78647 c -0.3782,-0.50747 -0.8473,-1.14831 -1.0424,-1.42408 -1.9196,-2.7131 -7.1409,-9.53826 -7.3019,-9.54499 -0.1138,-0.005 -0.2336,0.0626 -0.2661,0.14972 -0.033,0.0871 -1.5045,1.66352 -3.2711,3.50314 -1.7665,1.83962 -3.9134,4.08308 -4.7709,4.98547 -0.8574,0.90239 -1.6155,1.64071 -1.6846,1.64071 -0.069,0 -0.7956,-0.77823 -1.6144,-1.7294 -1.7808,-2.06855 -5.23518,-5.56039 -7.07057,-7.14712 -0.72851,-0.62981 -1.50981,-1.3098 -1.73623,-1.51109 l -0.41166,-0.36599 2.26834,-2.17368 c 3.43978,-3.29622 8.21042,-8.05846 8.21042,-8.19597 0,-0.0671 -0.6186,-0.70335 -1.3747,-1.41379 -1.3202,-1.24053 -3.22015,-2.58922 -5.09949,-3.6198 -0.48778,-0.26749 -0.96669,-0.54799 -1.06425,-0.62334 -0.0976,-0.0754 -1.24186,-0.6771 -2.5429,-1.33722 -1.30105,-0.66012 -2.3968,-1.28853 -2.43501,-1.39647 -0.0382,-0.10794 0.0304,-0.63526 0.15251,-1.17181 l 0.22198,-0.97556 h 16.75766 16.7577 v 16.58446 16.58445 l -0.9974,0.0525 -0.9974,0.0525 z"
       id="path2" /></g></svg>
